<svg width="21" height="24" viewBox="0 0 21 24" fill="none" xmlns="http://www.w3.org/2000/svg">
<path d="M17.2213 12.6895C17.2034 11.7653 17.4422 10.8544 17.9109 10.0594C18.3796 9.26442 19.0595 8.61683 19.8741 8.1897C19.3611 7.47188 18.6912 6.8822 17.9161 6.4661C17.1408 6.05002 16.2812 5.81864 15.4031 5.78979C13.5104 5.6398 11.4538 6.89975 10.6937 6.89975C9.93369 6.89975 8.0559 5.84979 6.62518 5.84979C3.64456 5.84979 0.5 8.2347 0.5 12.9895C0.514367 14.4716 0.771162 15.9413 1.26006 17.3394C1.9158 19.2593 4.37481 24.0741 6.93815 23.9991C8.27944 23.9991 9.23324 23.0392 10.9769 23.0392C12.7206 23.0392 13.5402 23.9991 15.0455 23.9991C17.6237 23.9991 19.8592 19.5743 20.5 17.6094C19.5297 17.2099 18.6996 16.5287 18.1157 15.6524C17.5316 14.7761 17.2203 13.7446 17.2213 12.6895ZM14.2407 3.88486C14.7037 3.35935 15.0529 2.74249 15.2659 2.0736C15.4788 1.40471 15.551 0.69851 15.4776 0C14.0861 0.153579 12.8009 0.821745 11.8711 1.87493C11.3903 2.38478 11.0191 2.98888 10.7806 3.64955C10.5422 4.31021 10.4416 5.01325 10.4851 5.71479C11.2067 5.73521 11.9227 5.57941 12.5714 5.26073C13.2203 4.94205 13.7827 4.46997 14.2109 3.88486H14.2407Z" fill="black"/>
</svg>
