<svg width="24" height="24" viewBox="0 0 24 24" fill="none" xmlns="http://www.w3.org/2000/svg">
<path d="M16 6.00003L7.586 14.586C7.21085 14.9612 7.00009 15.47 7.00009 16.0005C7.00009 16.5311 7.21085 17.0399 7.586 17.415C7.96115 17.7902 8.46996 18.0009 9.0005 18.0009C9.53104 18.0009 10.0398 17.7902 10.415 17.415L18.829 8.82903C19.5792 8.07887 20.0006 7.06142 20.0006 6.00053C20.0006 4.93964 19.5792 3.9222 18.829 3.17203C18.0788 2.42187 17.0614 2.00043 16.0005 2.00043C14.9396 2.00043 13.9222 2.42187 13.172 3.17203L4.793 11.723C4.2284 12.2785 3.77936 12.9403 3.4718 13.6702C3.16423 14.4001 3.00422 15.1836 3.001 15.9756C2.99777 16.7677 3.15139 17.5525 3.45301 18.2849C3.75462 19.0173 4.19825 19.6827 4.75831 20.2427C5.31836 20.8028 5.98377 21.2464 6.71614 21.548C7.4485 21.8496 8.23334 22.0033 9.02538 22C9.81741 21.9968 10.601 21.8368 11.3309 21.5292C12.0607 21.2217 12.7225 20.7726 13.278 20.208L21.657 11.657" stroke="#178C91" stroke-width="1.5" stroke-linecap="round" stroke-linejoin="round"/>
</svg>
