<svg width="24" height="24" viewBox="0 0 24 24" fill="none" xmlns="http://www.w3.org/2000/svg">
<path d="M21.64 3.63998L20.36 2.35998C20.2475 2.2463 20.1136 2.15605 19.966 2.09446C19.8184 2.03287 19.66 2.00116 19.5 2.00116C19.3401 2.00116 19.1817 2.03287 19.0341 2.09446C18.8865 2.15605 18.7526 2.2463 18.64 2.35998L2.36004 18.64C2.24636 18.7525 2.15612 18.8864 2.09452 19.0341C2.03293 19.1817 2.00122 19.34 2.00122 19.5C2.00122 19.6599 2.03293 19.8183 2.09452 19.9659C2.15612 20.1135 2.24636 20.2475 2.36004 20.36L3.64005 21.64C3.75187 21.7549 3.88558 21.8462 4.03329 21.9086C4.181 21.971 4.33971 22.0031 4.50005 22.0031C4.66038 22.0031 4.81909 21.971 4.9668 21.9086C5.11451 21.8462 5.24822 21.7549 5.36005 21.64L21.64 5.35998C21.755 5.24816 21.8463 5.11445 21.9087 4.96674C21.971 4.81903 22.0031 4.66032 22.0031 4.49998C22.0031 4.33965 21.971 4.18094 21.9087 4.03323C21.8463 3.88552 21.755 3.7518 21.64 3.63998Z" stroke="white" stroke-width="1.5" stroke-linecap="round" stroke-linejoin="round"/>
<path d="M14 7L17 10" stroke="white" stroke-width="1.5" stroke-linecap="round" stroke-linejoin="round"/>
<path d="M5 6V10" stroke="white" stroke-width="1.5" stroke-linecap="round" stroke-linejoin="round"/>
<path d="M19 14V18" stroke="white" stroke-width="1.5" stroke-linecap="round" stroke-linejoin="round"/>
<path d="M10 2V4" stroke="white" stroke-width="1.5" stroke-linecap="round" stroke-linejoin="round"/>
<path d="M7 8H3" stroke="white" stroke-width="1.5" stroke-linecap="round" stroke-linejoin="round"/>
<path d="M21 16H17" stroke="white" stroke-width="1.5" stroke-linecap="round" stroke-linejoin="round"/>
<path d="M11 3H9" stroke="white" stroke-width="1.5" stroke-linecap="round" stroke-linejoin="round"/>
</svg>
