<svg width="628" height="511" viewBox="0 0 628 511" fill="none" xmlns="http://www.w3.org/2000/svg">
<g clip-path="url(#clip0_131_1226)">
<rect x="10" y="10" width="608" height="491" rx="16" fill="white"/>
<path d="M216.604 65.6807C155.868 87.2012 80.3895 140.401 94.7879 291.829C109.176 443.256 264.609 489.422 359.221 475.709C480.144 458.172 555.902 355.993 535.768 253.309C519.11 168.322 471.879 182.991 417.568 113.812C388.513 76.7953 303.5 34.8927 216.593 65.6807H216.604Z" fill="url(#paint0_linear_131_1226)"/>
<g clip-path="url(#clip1_131_1226)">
<path d="M266.654 401.957C266.654 401.957 265.175 427.661 264.928 431.855C264.682 436.055 251.809 511.493 255.895 575.228C255.895 575.228 287.904 585.455 326.386 575.228L330.814 473.661H334.9L340.933 575.905C340.933 575.905 383.255 585.108 409.478 575.905C409.478 575.905 405.475 474.338 397.601 430.034L395.86 393.168C395.86 393.168 311.468 359.894 266.659 401.951L266.654 401.957Z" fill="#D9D9D9"/>
<path d="M279.532 146.78H378.554C378.554 146.78 385.757 135.545 386.643 124.001C387.53 112.456 383.984 97.9922 383.984 97.9922C383.984 97.9922 392.697 95.9237 384.87 85.4289C377.044 74.9342 356.512 67.0959 356.512 67.0959C356.512 67.0959 363.751 59.7039 351.623 58.5227C339.495 57.3414 323.213 60.8904 323.213 60.8904C323.213 60.8904 325.935 52.0757 318.995 56.0132C312.055 59.9507 303.93 68.1354 303.93 68.1354C303.93 68.1354 290.317 71.3537 283.729 76.4567C277.14 81.5597 286.351 82.7094 286.351 82.7094C286.351 82.7094 278.787 88.3059 270.892 99.3362C262.998 110.366 277.082 108.555 277.082 108.555C277.082 108.555 270.441 129.949 279.532 146.786V146.78Z" fill="#07191A"/>
<path d="M367.58 226.581L327.519 256.075L288.817 226.843C296.906 225.069 314.027 224.286 314.673 216.091C314.83 214.08 315.124 209.565 315.224 205.124C315.344 199.459 315.36 193.926 315.36 193.926L345.37 192.498C345.37 192.498 345.255 197.553 345.192 203.076C345.134 208.017 345.108 213.324 345.239 215.713C345.512 220.764 367.586 226.581 367.586 226.581H367.58Z" fill="#FFCFBE"/>
<path d="M285.795 146.219C285.795 146.219 279.48 138.9 271.721 142.449C263.963 145.998 261.749 161.633 270.279 167.292C278.813 172.947 287.563 171.062 289.336 168.069L285.79 146.224L285.795 146.219Z" fill="#FFCFBE"/>
<path d="M283.729 160.672C283.23 160.672 282.763 160.368 282.575 159.874C282.464 159.585 279.863 152.986 271.8 152.986C271.118 152.986 270.567 152.435 270.567 151.752C270.567 151.07 271.118 150.519 271.8 150.519C281.609 150.519 284.846 158.919 284.877 159.003C285.113 159.638 284.788 160.347 284.153 160.588C284.012 160.641 283.865 160.667 283.723 160.667L283.729 160.672Z" fill="#07191A"/>
<path d="M277.082 161.57C276.537 161.57 276.038 161.202 275.892 160.651C275.393 158.761 275.335 154.703 278.693 152.902C279.291 152.576 280.036 152.802 280.361 153.406C280.681 154.004 280.455 154.75 279.857 155.075C277.35 156.425 278.257 159.995 278.268 160.026C278.441 160.682 278.047 161.36 277.392 161.533C277.287 161.559 277.182 161.575 277.077 161.575L277.082 161.57Z" fill="#07191A"/>
<path d="M369.243 146.219C369.243 146.219 375.559 138.9 383.318 142.449C391.076 145.998 393.29 161.633 384.76 167.292C376.225 172.947 367.476 171.062 365.703 168.069L369.249 146.224L369.243 146.219Z" fill="#FFCFBE"/>
<path d="M371.31 160.672C371.169 160.672 371.022 160.646 370.88 160.593C370.245 160.352 369.925 159.648 370.161 159.013C370.193 158.929 373.429 150.529 383.239 150.529C383.921 150.529 384.472 151.08 384.472 151.763C384.472 152.445 383.921 152.996 383.239 152.996C375.176 152.996 372.574 159.601 372.464 159.884C372.275 160.378 371.809 160.682 371.31 160.682V160.672Z" fill="#07191A"/>
<path d="M377.962 161.57C377.857 161.57 377.752 161.554 377.647 161.528C376.991 161.354 376.598 160.682 376.771 160.026C376.813 159.863 377.657 156.404 375.181 155.07C374.583 154.75 374.358 153.999 374.678 153.401C374.998 152.802 375.743 152.576 376.346 152.897C379.703 154.703 379.646 158.756 379.147 160.646C379 161.197 378.502 161.564 377.956 161.564L377.962 161.57Z" fill="#07191A"/>
<path d="M345.37 192.498C345.37 192.498 345.255 197.553 345.192 203.076C333.678 209.718 321.12 207.035 315.229 205.124C315.349 199.459 315.365 193.926 315.365 193.926L345.376 192.498H345.37Z" fill="#07282A"/>
<path d="M324.781 78.5146C296.837 80.4518 280.078 100.943 282.7 128.978C285.328 157.013 286.32 176.511 295.919 185.384C305.519 194.256 318.67 199.874 328.128 199.874C337.586 199.874 353.984 194.996 362.849 180.947C371.714 166.898 372.747 126.09 372.601 113.669C372.454 101.247 356.297 76.3306 324.781 78.5146Z" fill="#FFCFBE"/>
<path d="M333.379 162.877C333.195 162.877 333.006 162.835 332.828 162.746C332.219 162.441 331.973 161.701 332.277 161.092C332.749 160.136 333.3 158.383 332.964 157.669C332.933 157.595 332.875 157.475 332.571 157.401C330.494 156.897 328.5 159.375 328.479 159.401C328.154 159.811 327.603 159.974 327.11 159.8C326.617 159.627 326.287 159.165 326.287 158.64V139.661C326.287 138.979 326.837 138.428 327.519 138.428C328.201 138.428 328.752 138.979 328.752 139.661V155.926C329.911 155.18 331.448 154.603 333.153 155.012C334.103 155.243 334.811 155.805 335.199 156.635C336.143 158.672 334.764 161.627 334.48 162.2C334.265 162.63 333.83 162.882 333.379 162.882V162.877Z" fill="#07191A"/>
<path d="M314.568 122.027C315.517 122.142 316.11 121.024 315.481 120.299C314.138 118.761 311.824 116.955 308.383 116.992C303.951 117.039 300.877 119.596 299.088 122.373C298.527 123.239 299.403 124.31 300.357 123.917C303.248 122.73 308.299 121.271 314.568 122.021V122.027Z" fill="#07191A"/>
<path d="M344.384 122.027C343.435 122.142 342.842 121.024 343.471 120.299C344.814 118.761 347.128 116.955 350.569 116.992C355.001 117.039 358.075 119.596 359.864 122.373C360.425 123.239 359.549 124.31 358.595 123.917C355.704 122.73 350.653 121.271 344.384 122.021V122.027Z" fill="#43224D"/>
<path d="M329.99 178.769C323.034 178.769 318.198 173.823 318.124 173.75C317.652 173.256 317.673 172.479 318.166 172.007C318.659 171.539 319.436 171.555 319.903 172.043C320.28 172.432 329.245 181.504 340.062 171.97C340.571 171.518 341.352 171.571 341.798 172.08C342.249 172.589 342.197 173.366 341.688 173.818C337.481 177.524 333.473 178.763 329.99 178.763V178.769Z" fill="#43224D"/>
<path d="M312.658 143.84C312.213 143.84 311.782 143.599 311.562 143.174C311.536 143.126 310.277 140.795 307.764 140.092C305.928 139.577 303.814 140.034 301.485 141.441C300.903 141.793 300.147 141.604 299.796 141.021C299.445 140.438 299.633 139.682 300.216 139.331C303.164 137.546 305.944 137.01 308.467 137.729C312.029 138.743 313.687 141.914 313.755 142.045C314.064 142.649 313.823 143.394 313.22 143.704C313.041 143.798 312.847 143.84 312.658 143.84Z" fill="#07191A"/>
<path d="M342.59 143.84C342.401 143.84 342.207 143.798 342.029 143.704C341.426 143.394 341.19 142.654 341.499 142.05C341.567 141.914 343.225 138.748 346.787 137.735C349.315 137.015 352.09 137.556 355.038 139.336C355.62 139.688 355.809 140.444 355.458 141.026C355.106 141.609 354.351 141.793 353.769 141.446C351.44 140.039 349.326 139.583 347.49 140.097C344.961 140.806 343.702 143.158 343.692 143.179C343.471 143.599 343.041 143.84 342.595 143.84H342.59Z" fill="#07191A"/>
<path d="M172.153 270.502C172.153 270.502 169.693 258.732 175.925 249.88C182.157 241.029 182.828 238.052 183.458 231.999C184.082 225.945 187.791 211.623 193.424 206.547C199.058 201.47 187.964 197.517 181.108 204.594C174.251 211.671 170.784 224.439 169.84 225.609C168.901 226.78 166.745 226.675 166.745 226.675C166.745 226.675 160.183 196.887 157.387 182.26C154.591 167.634 151.837 166.652 149.099 166.909C146.36 167.166 145.269 171.104 146.035 178.433C146.801 185.762 149.041 204.415 148.154 204.909C147.268 205.402 143.166 196.876 139.861 189.216C136.556 181.557 130.015 164.421 125.063 167.151C120.111 169.881 123.919 178.575 126.762 186.024C129.606 193.474 135.413 206.174 134.694 207.04C133.975 207.906 125.441 193.59 121.029 186.591C116.617 179.593 114.65 176.349 111.298 177.561C107.946 178.774 109.21 186.602 113.884 196.015C118.558 205.428 123.909 214.81 123.5 215.739C123.085 216.669 115.799 211.392 109.342 206.001C102.884 200.609 98.3887 196.797 96.2065 198.719C94.0243 200.64 94.2761 204.567 101.269 211.676C108.261 218.784 118.154 229.704 121.113 233.127C124.071 236.556 126.899 253.272 131.95 261.372C137.002 269.478 140.17 281.412 140.17 281.412C140.17 281.412 160.964 287.58 172.148 270.492L172.153 270.502Z" fill="#FFCFBE"/>
<path d="M144.981 243.228C144.933 243.228 144.886 243.223 144.844 243.207C144.603 243.128 144.467 242.871 144.545 242.63C148.207 231.011 157.995 224.475 165.344 224.223C165.596 224.207 165.811 224.412 165.822 224.669C165.832 224.927 165.633 225.137 165.376 225.147C158.341 225.389 148.962 231.699 145.427 242.908C145.364 243.107 145.18 243.233 144.986 243.233L144.981 243.228Z" fill="#43224D"/>
<path d="M407.72 406.204C407.72 406.204 425.708 413.827 423.851 435.347C423.851 435.347 409.588 446.729 393.667 456.867C393.667 456.867 376.713 445.485 374.646 421.072C374.646 421.072 382.966 418.242 395.923 417.282L407.72 406.209V406.204Z" fill="#FFCFBE"/>
<path d="M259.557 404.645V428.133C259.557 428.133 272.256 438.801 301.275 446.219C330.294 453.638 337.282 452.577 337.282 452.577C337.282 452.577 367.78 413.984 384.094 409.758L337.822 278.072L304.947 280.514L259.557 404.645Z" fill="#07191A"/>
<path d="M281.289 138.659C281.289 138.659 277.334 106.046 281.289 98.1233C285.245 90.201 301.936 72.4665 321.891 70.23C341.845 67.9935 363.012 76.0838 373.503 92.9573C383.994 109.831 374.877 141.478 374.877 141.478C367.308 138.17 354.398 125.675 354.398 125.675C354.398 125.675 355.437 133.597 349.247 130.153C343.052 126.709 329.943 114.829 329.943 114.829C329.943 114.829 329.801 126.363 323.952 119.648C318.103 112.934 306.542 98.8005 306.542 98.8005C306.542 98.8005 303.641 114.262 298.91 119.879C294.178 125.497 294.619 115.296 294.619 115.296C294.619 115.296 288.339 133.934 281.284 138.659H281.289Z" fill="#07191A"/>
<path d="M308.499 211.025C308.499 211.025 312.181 232.156 331.454 243.643C331.454 243.643 349.305 228.471 353.984 211.025C353.984 211.025 362.97 215.986 365.703 223.362C365.703 223.362 407.899 229.137 422.025 247.129C436.152 265.121 473.716 330.347 483.667 348.984C493.618 367.622 484.569 384.826 475.237 397.673C465.9 410.52 432.768 448.619 432.768 448.619C432.768 448.619 403.917 423.445 403.917 407.916C403.917 407.916 425.503 368.079 433.529 355.636L399.322 321.165C399.322 321.165 397.942 341.382 398.257 351.746C398.572 362.115 405.003 398.166 405.003 398.166C405.003 398.166 398.467 410.352 392.602 413.733C386.743 417.119 374.657 412.378 374.657 412.378L353.375 427.272L328.212 299.566C328.212 299.566 320.684 378.085 319.105 396.812C317.526 415.539 316.173 429.078 316.173 429.078L252.821 406.199L256.43 358.23C256.43 358.23 219.459 393.877 208.637 400.424C197.815 406.965 182.036 403.584 171.665 401.101C161.295 398.618 151.165 378.988 143.606 358.907C136.047 338.826 131.31 315.584 131.31 315.584C131.31 315.584 154.024 290.893 175.264 282.273C175.264 282.273 187.088 314.387 192.695 329.817C192.695 329.817 229.766 267.032 244.397 250.584C259.027 234.141 282.826 225.62 297.897 222.685L308.504 211.02L308.499 211.025Z" fill="url(#paint1_linear_131_1226)"/>
<path fill-rule="evenodd" clip-rule="evenodd" d="M292.696 284C299.429 284 305.231 286.813 307.872 290.864H277.52C280.161 286.813 285.963 284 292.696 284Z" fill="url(#paint2_linear_131_1226)"/>
<path d="M283.544 305.639C286.66 303.12 290.542 301.985 295.422 302.532C297.466 302.76 299.624 303.561 299.624 303.561C299.624 303.561 296.671 303.447 293.491 304.019C291.062 304.455 288.898 305.551 287.035 306.87C284.58 308.61 282.651 310.737 281.338 312.255C282.454 310.781 284.422 308.007 280.545 303.863C281.441 304.534 282.448 305.131 283.544 305.639Z" fill="url(#paint3_linear_131_1226)"/>
<path fill-rule="evenodd" clip-rule="evenodd" d="M295.422 302.532C290.542 301.985 286.66 303.12 283.544 305.639C282.448 305.131 281.441 304.534 280.545 303.863C277.727 301.754 276 298.91 276 295.782C276 294.027 276.544 292.361 277.52 290.864H307.872C308.848 292.361 309.392 294.027 309.392 295.782C309.392 298.502 308.087 301.006 305.894 303C302.922 305.702 298.32 307.468 293.13 307.561C292.985 307.564 292.841 307.565 292.696 307.565C290.709 307.565 288.803 307.32 287.035 306.87C288.898 305.551 291.062 304.455 293.491 304.019C296.671 303.447 299.624 303.561 299.624 303.561C299.624 303.561 297.466 302.76 295.422 302.532Z" fill="url(#paint4_linear_131_1226)"/>
<path fill-rule="evenodd" clip-rule="evenodd" d="M293.037 307.55C298.228 307.457 302.83 305.692 305.801 302.989C308.041 304.626 308.97 306.538 306.346 308.355C302.367 311.11 296.15 308.93 293.037 307.55Z" fill="url(#paint5_linear_131_1226)"/>
<path d="M286.443 295.24C286.412 294.926 286.279 294.681 286.044 294.507C285.809 294.333 285.49 294.246 285.088 294.246C284.814 294.246 284.583 294.285 284.395 294.363C284.206 294.438 284.062 294.544 283.961 294.679C283.863 294.814 283.814 294.967 283.814 295.139C283.809 295.282 283.838 295.407 283.903 295.513C283.97 295.62 284.062 295.712 284.178 295.79C284.294 295.866 284.428 295.932 284.58 295.989C284.733 296.044 284.895 296.09 285.068 296.129L285.781 296.301C286.127 296.379 286.444 296.483 286.733 296.613C287.022 296.743 287.273 296.903 287.484 297.093C287.696 297.283 287.86 297.506 287.976 297.763C288.095 298.021 288.156 298.316 288.158 298.649C288.156 299.137 288.032 299.561 287.786 299.92C287.544 300.276 287.193 300.553 286.733 300.751C286.276 300.946 285.725 301.043 285.08 301.043C284.44 301.043 283.882 300.944 283.407 300.747C282.935 300.549 282.566 300.257 282.3 299.869C282.036 299.479 281.898 298.997 281.885 298.423H283.508C283.526 298.69 283.602 298.914 283.736 299.093C283.873 299.27 284.055 299.404 284.282 299.495C284.512 299.583 284.771 299.628 285.06 299.628C285.344 299.628 285.591 299.586 285.8 299.503C286.012 299.42 286.176 299.304 286.292 299.156C286.408 299.007 286.466 298.837 286.466 298.645C286.466 298.465 286.413 298.315 286.307 298.192C286.204 298.07 286.052 297.966 285.85 297.88C285.652 297.795 285.408 297.717 285.119 297.646L284.255 297.428C283.587 297.264 283.059 297.008 282.671 296.66C282.284 296.311 282.092 295.842 282.095 295.252C282.092 294.768 282.22 294.346 282.478 293.985C282.739 293.623 283.096 293.341 283.55 293.138C284.005 292.936 284.521 292.834 285.099 292.834C285.688 292.834 286.201 292.936 286.64 293.138C287.082 293.341 287.425 293.623 287.67 293.985C287.915 294.346 288.042 294.765 288.05 295.24H286.443Z" fill="white"/>
<path d="M289.255 300.93V294.94H290.904V300.93H289.255ZM290.083 294.168C289.838 294.168 289.628 294.086 289.452 293.922C289.279 293.756 289.193 293.557 289.193 293.326C289.193 293.097 289.279 292.9 289.452 292.737C289.628 292.57 289.838 292.487 290.083 292.487C290.329 292.487 290.538 292.57 290.711 292.737C290.886 292.9 290.974 293.097 290.974 293.326C290.974 293.557 290.886 293.756 290.711 293.922C290.538 294.086 290.329 294.168 290.083 294.168Z" fill="white"/>
<path d="M292.257 300.93V292.943H295.385C295.987 292.943 296.499 293.059 296.922 293.29C297.346 293.519 297.668 293.838 297.89 294.246C298.115 294.651 298.227 295.119 298.227 295.65C298.227 296.18 298.114 296.648 297.887 297.054C297.659 297.459 297.33 297.775 296.899 298.001C296.471 298.228 295.952 298.341 295.343 298.341H293.349V296.987H295.072C295.394 296.987 295.66 296.932 295.869 296.82C296.081 296.705 296.238 296.548 296.342 296.348C296.447 296.145 296.5 295.912 296.5 295.65C296.5 295.385 296.447 295.153 296.342 294.956C296.238 294.755 296.081 294.601 295.869 294.492C295.658 294.38 295.389 294.324 295.064 294.324H293.933V300.93H292.257Z" fill="white"/>
<path d="M299.014 294.336V292.943H305.527V294.336H303.099V300.93H301.442V294.336H299.014Z" fill="white"/>
<path fill-rule="evenodd" clip-rule="evenodd" d="M305.737 305.205C305.904 305.205 306.055 305.283 306.14 305.415C306.221 305.541 306.234 305.699 306.177 305.849C305.989 306.338 305.507 307.149 304.387 307.182C304.248 307.426 304.075 307.652 303.858 307.84C303.434 308.208 302.853 308.251 302.303 308.251C301.775 308.251 301.22 308.211 300.797 307.878C299.73 307.038 299.63 305.372 299.624 304.893C299.623 304.82 299.681 304.761 299.751 304.761H304.809C304.878 304.761 304.936 304.82 304.935 304.893C304.934 304.969 304.931 305.076 304.923 305.205H305.737ZM304.586 306.771C305.303 306.666 305.656 306.146 305.827 305.702C305.838 305.674 305.838 305.652 305.828 305.636C305.816 305.618 305.787 305.6 305.737 305.6H304.883C304.836 305.949 304.748 306.367 304.586 306.771Z" fill="white"/>
<path d="M302.232 304.59C302.258 304.622 302.296 304.638 302.333 304.638C302.364 304.638 302.395 304.627 302.42 304.604C302.476 304.554 302.482 304.465 302.433 304.407C302.43 304.403 302.077 303.965 302.304 303.665C302.607 303.266 302.422 302.939 302.282 302.823C302.225 302.775 302.141 302.785 302.095 302.845C302.05 302.905 302.059 302.992 302.115 303.04C302.148 303.069 302.297 303.224 302.095 303.492C301.73 303.973 302.211 304.565 302.232 304.59Z" fill="white"/>
<path d="M302.945 302.093C303.002 302.045 303.011 301.958 302.966 301.898C302.92 301.837 302.836 301.828 302.778 301.876C302.638 301.992 302.454 302.319 302.757 302.718C302.984 303.018 302.63 303.456 302.627 303.46C302.579 303.518 302.585 303.606 302.64 303.657C302.666 303.68 302.697 303.691 302.728 303.691C302.765 303.691 302.802 303.675 302.829 303.643C302.849 303.618 303.33 303.025 302.966 302.544C302.763 302.277 302.913 302.122 302.945 302.093Z" fill="white"/>
<path d="M170.768 268.507C172.746 278.529 177.798 289.182 177.798 289.182L140.511 311.148C140.511 311.148 140.281 289.056 138.796 279.422L170.774 268.502L170.768 268.507Z" fill="#FFCFBE"/>
<path d="M256.425 358.697C256.425 358.697 256.393 358.697 256.378 358.697C256.126 358.671 255.942 358.445 255.968 358.188C258.471 334.279 264.823 272.109 264.472 268.754C264.472 268.754 264.466 268.743 264.461 268.738C264.335 268.518 264.414 268.234 264.634 268.108C264.786 268.024 264.991 268.029 265.133 268.124C265.474 268.35 265.668 268.47 264.388 282.813C263.722 290.279 262.73 300.653 261.44 313.636C259.242 335.739 256.907 358.062 256.881 358.287C256.855 358.524 256.656 358.702 256.425 358.702V358.697Z" fill="#43224D"/>
<path d="M260.679 317.925C260.469 317.925 260.275 317.778 260.228 317.563L252.91 284.414C252.858 284.168 253.01 283.921 253.262 283.863C253.514 283.811 253.755 283.968 253.813 284.215L261.13 317.363C261.183 317.61 261.031 317.857 260.779 317.915C260.747 317.92 260.711 317.925 260.679 317.925Z" fill="#43224D"/>
<path d="M259.557 328.21C259.457 328.21 259.357 328.178 259.268 328.11L246.311 317.82C246.112 317.663 246.08 317.369 246.238 317.169C246.395 316.97 246.684 316.938 246.888 317.096L259.845 327.386C260.044 327.543 260.076 327.837 259.918 328.037C259.829 328.152 259.693 328.21 259.557 328.21Z" fill="#43224D"/>
<path d="M399.317 321.632C399.317 321.632 399.301 321.632 399.291 321.632C399.034 321.616 398.839 321.401 398.855 321.143L401.94 268.381C401.955 268.124 402.17 267.929 402.427 267.945C402.684 267.961 402.879 268.176 402.863 268.433L399.778 321.196C399.763 321.443 399.563 321.632 399.317 321.632Z" fill="#43224D"/>
<path d="M399.317 319.794C399.238 319.794 399.159 319.773 399.086 319.731C398.866 319.605 398.792 319.322 398.918 319.101L416.764 288.389C416.89 288.168 417.173 288.095 417.393 288.221C417.614 288.347 417.687 288.63 417.561 288.851L399.715 319.563C399.632 319.71 399.474 319.794 399.317 319.794Z" fill="#43224D"/>
<path d="M300.095 258.233C300.058 258.233 300.022 258.233 299.99 258.222C299.812 258.18 299.675 258.038 299.644 257.86C296.161 239.259 297.425 222.821 297.435 222.659C297.456 222.401 297.687 222.218 297.934 222.233C298.186 222.254 298.38 222.475 298.359 222.732C298.348 222.89 297.136 238.645 300.378 256.715C301.532 255.377 304.223 252.521 308.268 249.738C313.277 246.294 321.366 242.357 331.501 243.181C348.518 244.562 362.141 253.859 365.183 256.091C365.692 252.248 367.748 234.944 365.257 223.457C365.204 223.21 365.362 222.963 365.608 222.905C365.86 222.853 366.101 223.01 366.159 223.257C368.997 236.34 366.017 256.789 365.986 256.994C365.96 257.156 365.855 257.293 365.697 257.356C365.545 257.419 365.372 257.393 365.241 257.288C365.094 257.172 350.396 245.633 331.417 244.094C312.548 242.567 300.583 257.891 300.462 258.044C300.373 258.159 300.237 258.222 300.095 258.222V258.233Z" fill="#43224D"/>
<path d="M328.201 300.033C328.201 300.033 328.186 300.033 328.175 300.033C327.918 300.018 327.724 299.802 327.74 299.545L330.987 243.617C331.002 243.36 331.218 243.16 331.475 243.181C331.732 243.197 331.926 243.412 331.91 243.669L328.663 299.598C328.647 299.844 328.448 300.033 328.201 300.033Z" fill="#43224D"/>
<path d="M402.008 464.143C401.924 464.143 401.84 464.122 401.761 464.069C386.832 454.625 379.798 441.93 376.53 432.937C372.989 423.193 372.973 415.565 372.973 415.486C372.973 415.234 373.183 415.024 373.435 415.024C373.692 415.024 373.896 415.234 373.896 415.486C373.896 415.559 373.912 423.056 377.406 432.653C380.626 441.494 387.556 453.989 402.249 463.282C402.464 463.418 402.527 463.702 402.391 463.917C402.302 464.054 402.155 464.132 402.003 464.132L402.008 464.143Z" fill="#43224D"/>
<path d="M260.679 458.641C260.49 458.641 260.312 458.526 260.244 458.337C260.16 458.095 260.28 457.833 260.522 457.749C277.575 451.632 279.301 439.652 279.317 439.531C279.348 439.279 279.584 439.101 279.831 439.132C280.083 439.164 280.261 439.395 280.23 439.647C280.214 439.778 279.8 442.875 277.187 446.781C274.795 450.362 270.011 455.323 260.826 458.615C260.774 458.631 260.721 458.641 260.669 458.641H260.679Z" fill="#43224D"/>
<path d="M200.364 358.697C200.118 358.697 199.919 358.503 199.903 358.256C199.903 358.167 199.373 349.074 192.255 329.979C192.202 329.838 192.223 329.675 192.307 329.554C192.391 329.433 192.533 329.36 192.685 329.36C192.837 329.36 196.456 329.481 204.204 337.235C204.383 337.413 204.383 337.707 204.204 337.886C204.026 338.064 203.732 338.064 203.554 337.886C198.093 332.421 194.783 330.882 193.409 330.447C200.307 349.158 200.8 357.841 200.821 358.209C200.831 358.466 200.637 358.681 200.38 358.692C200.375 358.692 200.364 358.692 200.359 358.692L200.364 358.697Z" fill="#43224D"/>
<path d="M433.524 356.103C433.524 356.103 433.482 356.103 433.466 356.103C433.277 356.077 433.125 355.946 433.078 355.762C433.02 355.542 431.698 350.234 434.153 344.333C434.253 344.097 434.52 343.986 434.756 344.086C434.993 344.186 435.103 344.454 435.003 344.69C433.324 348.717 433.518 352.533 433.765 354.376C435.223 352.161 439.084 346.979 445.043 344.097C445.274 343.986 445.547 344.081 445.662 344.312C445.772 344.543 445.678 344.816 445.447 344.931C438.156 348.465 433.964 355.804 433.922 355.878C433.838 356.025 433.686 356.114 433.519 356.114L433.524 356.103Z" fill="#43224D"/>
</g>
<g clip-path="url(#clip2_131_1226)">
<path d="M119.77 121.92C119.77 121.92 148.9 117.71 171.63 107.73C194.36 97.76 192.95 88.06 191.97 78.51C190.99 68.96 184.86 57.58 171.63 56.18C158.4 54.78 112.98 54.49 94.11 60.82C75.24 67.14 73.41 79.22 73.69 94.11C73.97 109 78.53 118.55 87.28 121.92C96.03 125.29 99.4 123.99 99.4 123.99C99.4 123.99 102.63 138.77 115.13 141.72C127.63 144.67 131.28 142 131.28 140.88C131.28 139.76 121.31 138.91 119.76 121.92H119.77Z" fill="url(#paint6_linear_131_1226)"/>
<path d="M93.435 100.78L90.5408 79.1545L95.1129 78.5425L96.3071 87.4651L105.589 86.2229L104.395 77.3003L108.956 76.6898L111.85 98.3152L107.289 98.9257L106.093 89.9925L96.8116 91.2348L98.0072 100.168L93.435 100.78ZM122.969 97.1495C121.301 97.3728 119.82 97.2271 118.526 96.7124C117.237 96.1897 116.186 95.3487 115.372 94.1894C114.556 93.0231 114.034 91.5846 113.805 89.874C113.582 88.2056 113.71 86.6981 114.189 85.3513C114.668 84.0046 115.448 82.9006 116.53 82.0393C117.618 81.177 118.958 80.6395 120.549 80.4265C121.619 80.2833 122.638 80.3225 123.606 80.544C124.581 80.7575 125.458 81.1596 126.24 81.7501C127.028 82.3396 127.685 83.1259 128.211 84.1089C128.735 85.0848 129.09 86.2627 129.275 87.6424L129.44 88.8779L115.745 90.7108L115.372 87.9231L124.833 86.6569C124.746 86.0093 124.528 85.4544 124.18 84.9923C123.831 84.5302 123.388 84.1918 122.851 83.9771C122.32 83.7544 121.727 83.6869 121.072 83.7745C120.389 83.8659 119.805 84.1053 119.319 84.4927C118.84 84.8722 118.488 85.3457 118.263 85.9132C118.037 86.4737 117.963 87.0747 118.042 87.7163L118.396 90.3666C118.504 91.1691 118.744 91.8427 119.118 92.3874C119.499 92.9312 119.985 93.3247 120.577 93.568C121.168 93.8113 121.841 93.8826 122.594 93.7818C123.094 93.7149 123.542 93.5832 123.938 93.3869C124.335 93.1905 124.662 92.9317 124.92 92.6106C125.178 92.2894 125.357 91.9143 125.457 91.4853L129.654 91.2031C129.577 92.2309 129.261 93.1618 128.706 93.9956C128.157 94.8214 127.397 95.5108 126.425 96.0636C125.459 96.6085 124.307 96.9705 122.969 97.1495ZM134.911 73.2161L137.805 94.8415L133.307 95.4435L130.413 73.8182L134.911 73.2161ZM143.012 72.1319L145.907 93.7572L141.408 94.3592L138.514 72.7339L143.012 72.1319ZM156.88 92.611C155.24 92.8305 153.775 92.6719 152.485 92.1351C151.201 91.5904 150.152 90.7349 149.336 89.5685C148.52 88.3951 148.001 86.9777 147.778 85.3164C147.554 83.641 147.682 82.1335 148.162 80.7938C148.641 79.447 149.429 78.3456 150.525 77.4894C151.628 76.6253 152.999 76.0835 154.639 75.864C156.279 75.6445 157.741 75.8071 159.025 76.3518C160.315 76.8886 161.368 77.7436 162.185 78.917C163 80.0834 163.52 81.5043 163.744 83.1797C163.966 84.841 163.838 86.345 163.359 87.6918C162.879 89.0315 162.088 90.1334 160.985 90.9975C159.889 91.8536 158.521 92.3915 156.88 92.611ZM156.435 89.1236C157.181 89.0237 157.776 88.7292 158.219 88.2399C158.662 87.7436 158.96 87.1089 159.115 86.3358C159.276 85.5618 159.294 84.7032 159.168 83.7599C159.041 82.8166 158.799 81.9928 158.439 81.2885C158.087 80.5833 157.632 80.0494 157.075 79.6869C156.517 79.3244 155.866 79.1931 155.12 79.2929C154.366 79.3937 153.761 79.6932 153.305 80.1914C152.856 80.6887 152.55 81.3243 152.389 82.0983C152.234 82.8714 152.22 83.7295 152.346 84.6728C152.473 85.6161 152.712 86.4404 153.064 87.1456C153.424 87.8499 153.885 88.3828 154.45 88.7444C155.02 89.098 155.682 89.2244 156.435 89.1236ZM170.226 68.4897L171.841 83.6868L167.976 84.204L165.527 69.1185L170.226 68.4897ZM170.813 90.7033C170.116 90.7966 169.485 90.6303 168.919 90.2044C168.352 89.7715 168.026 89.2061 167.94 88.5082C167.84 87.8193 168.008 87.195 168.441 86.6354C168.875 86.0757 169.441 85.7492 170.138 85.656C170.806 85.5665 171.427 85.7342 172 86.1591C172.573 86.584 172.909 87.141 173.008 87.8299C173.063 88.2955 172.997 88.7378 172.81 89.157C172.628 89.5683 172.363 89.9155 172.014 90.1986C171.664 90.4748 171.264 90.643 170.813 90.7033Z" fill="white"/>
<path d="M94.86 103.59C95.72 104.4 88.75 108.32 87.78 107.54C86.81 106.76 94 102.77 94.86 103.59Z" fill="white"/>
<path d="M95.69 106.1C96.56 106.67 93.42 109.73 92.54 109.4C91.66 109.07 94.82 105.53 95.69 106.1Z" fill="white"/>
<path d="M98.33 107.66C99.14 107.79 96.3 112.43 95.49 112.09C94.68 111.75 97.06 107.46 98.33 107.66Z" fill="white"/>
<path d="M85.29 112.11C80.91 108.43 81.36 105.97 80.65 103.48C79.94 100.99 80.02 99.9398 78.54 100.43C77.06 100.92 78.33 108.37 82.26 112.79C86.19 117.21 90.13 118.2 93.08 118.97C96.03 119.74 96.8 119.18 96.59 117.85C96.38 116.52 93.43 116.8 90.83 115.81C88.23 114.82 88.23 114.59 85.28 112.11H85.29Z" fill="white"/>
<path d="M78.82 97.2697C79.86 97.0797 79.73 89.1197 78.26 89.0497C76.79 88.9797 76.93 97.6197 78.82 97.2697Z" fill="white"/>
<path d="M109.66 130.63C107.49 126.86 105.8 122.27 104.32 122.62C102.84 122.97 105.3 128.87 106.99 131.33C108.68 133.79 111.91 137.58 113.24 136.67C114.57 135.76 111.75 134.26 109.66 130.63Z" fill="white"/>
<path d="M118.296 139.789C118.616 139.234 118.057 138.312 117.048 137.729C116.039 137.146 114.961 137.124 114.641 137.679C114.321 138.233 114.879 139.155 115.888 139.738C116.897 140.321 117.975 140.343 118.296 139.789Z" fill="white"/>
<path d="M169.997 103.935C171.516 103.346 172.583 102.443 172.379 101.918C172.176 101.393 170.779 101.444 169.26 102.032C167.741 102.621 166.674 103.524 166.878 104.049C167.081 104.574 168.478 104.523 169.997 103.935Z" fill="white"/>
<path d="M186.409 92.0606C186.653 90.7466 186.451 89.6069 185.957 89.5149C185.463 89.4229 184.864 90.4134 184.62 91.7273C184.375 93.0413 184.577 94.181 185.071 94.2731C185.565 94.3651 186.164 93.3745 186.409 92.0606Z" fill="white"/>
<path d="M143.09 110.47C153.93 107.91 163.6 103.87 164.3 104.85C165 105.83 159.52 108.08 152.78 110.47C146.04 112.86 127.36 116.16 123.84 116.79C120.32 117.42 120.82 115.24 122.65 114.68C124.48 114.12 134.17 112.57 143.09 110.47Z" fill="white"/>
<path d="M186.77 86.3798C185.5 86.3098 186.91 82.5898 186.14 77.2498C185.37 71.9098 179.4 66.8598 179.61 65.4498C179.82 64.0398 181.79 65.0998 184.25 67.9798C186.71 70.8598 187.55 74.0898 187.83 79.2898C188.11 84.4898 188.11 86.4498 186.78 86.3798H186.77Z" fill="white"/>
<path d="M93.65 130.01C92.88 127.96 78.9 141.39 80.87 142.93C82.84 144.47 94.07 131.13 93.65 130.01Z" fill="#B7D5ED"/>
<path d="M92.94 137.88C91.68 136.9 87.32 147.43 88.87 148.13C90.42 148.83 94.21 138.86 92.94 137.88Z" fill="#B7D5ED"/>
<path d="M86.06 129.4C85.5 128.47 76.09 135.26 77.07 136.43C78.05 137.6 86.62 130.33 86.06 129.4Z" fill="#B7D5ED"/>
<path d="M178.34 53.8302C178.86 55.4202 189.95 45.6502 188.5 44.4102C187.05 43.1702 178.06 52.9602 178.34 53.8302Z" fill="#B7D5ED"/>
<path d="M177 50.7102C177.93 51.5002 181.59 43.6202 180.44 43.0302C179.29 42.4402 176.07 49.9202 177 50.7102Z" fill="#B7D5ED"/>
<path d="M182.3 55.1302C182.7 55.8602 190.09 50.9902 189.38 50.0702C188.67 49.1502 181.9 54.4002 182.3 55.1302Z" fill="#B7D5ED"/>
<path d="M69.62 119.55C70.6307 119.55 71.45 118.731 71.45 117.72C71.45 116.709 70.6307 115.89 69.62 115.89C68.6093 115.89 67.79 116.709 67.79 117.72C67.79 118.731 68.6093 119.55 69.62 119.55Z" fill="#B7D5ED"/>
<path d="M69.13 101.71C69.7099 101.71 70.18 101.24 70.18 100.66C70.18 100.08 69.7099 99.6104 69.13 99.6104C68.5501 99.6104 68.08 100.08 68.08 100.66C68.08 101.24 68.5501 101.71 69.13 101.71Z" fill="#B7D5ED"/>
<path d="M63.89 114.33C64.3815 114.33 64.78 113.932 64.78 113.44C64.78 112.949 64.3815 112.55 63.89 112.55C63.3985 112.55 63 112.949 63 113.44C63 113.932 63.3985 114.33 63.89 114.33Z" fill="#B7D5ED"/>
<path d="M158.96 120.91C159.838 120.91 160.55 120.198 160.55 119.32C160.55 118.442 159.838 117.73 158.96 117.73C158.082 117.73 157.37 118.442 157.37 119.32C157.37 120.198 158.082 120.91 158.96 120.91Z" fill="#B7D5ED"/>
<path d="M169.66 125.36C170.417 125.36 171.03 124.747 171.03 123.99C171.03 123.233 170.417 122.62 169.66 122.62C168.903 122.62 168.29 123.233 168.29 123.99C168.29 124.747 168.903 125.36 169.66 125.36Z" fill="#B7D5ED"/>
<path d="M173.2 116.53C174.056 116.53 174.75 115.836 174.75 114.98C174.75 114.124 174.056 113.43 173.2 113.43C172.344 113.43 171.65 114.124 171.65 114.98C171.65 115.836 172.344 116.53 173.2 116.53Z" fill="#B7D5ED"/>
<path d="M148.71 123.79C149.356 123.79 149.88 123.266 149.88 122.62C149.88 121.974 149.356 121.45 148.71 121.45C148.064 121.45 147.54 121.974 147.54 122.62C147.54 123.266 148.064 123.79 148.71 123.79Z" fill="#B7D5ED"/>
<path d="M103.34 55.2602C104.196 55.2602 104.89 54.5662 104.89 53.7102C104.89 52.8541 104.196 52.1602 103.34 52.1602C102.484 52.1602 101.79 52.8541 101.79 53.7102C101.79 54.5662 102.484 55.2602 103.34 55.2602Z" fill="#B7D5ED"/>
<path d="M109.64 48.2502C110.143 48.2502 110.55 47.8428 110.55 47.3402C110.55 46.8376 110.143 46.4302 109.64 46.4302C109.137 46.4302 108.73 46.8376 108.73 47.3402C108.73 47.8428 109.137 48.2502 109.64 48.2502Z" fill="#B7D5ED"/>
<path d="M118.91 54.5101C119.645 54.5101 120.24 53.9146 120.24 53.1801C120.24 52.4456 119.645 51.8501 118.91 51.8501C118.175 51.8501 117.58 52.4456 117.58 53.1801C117.58 53.9146 118.175 54.5101 118.91 54.5101Z" fill="#B7D5ED"/>
<path d="M129.46 50.72C129.808 50.72 130.09 50.4379 130.09 50.09C130.09 49.742 129.808 49.46 129.46 49.46C129.112 49.46 128.83 49.742 128.83 50.09C128.83 50.4379 129.112 50.72 129.46 50.72Z" fill="#B7D5ED"/>
</g>
<path d="M452.864 73.344C453.408 71.7632 455.644 71.7632 456.188 73.344L458.857 81.1043C459.034 81.6161 459.436 82.0182 459.947 82.1943L467.708 84.8641C469.289 85.4079 469.289 87.6435 467.708 88.1874L459.947 90.8572C459.436 91.0333 459.034 91.4354 458.857 91.9472L456.188 99.7075C455.644 101.288 453.408 101.288 452.864 99.7075L450.195 91.9472C450.018 91.4354 449.616 91.0333 449.105 90.8572L441.344 88.1874C439.764 87.6435 439.764 85.4079 441.344 84.8641L449.105 82.1943C449.616 82.0182 450.018 81.6161 450.195 81.1043L452.864 73.344Z" fill="#178C91"/>
<rect x="479.566" y="74.2256" width="101.919" height="13.1792" rx="1.75723" fill="url(#paint7_linear_131_1226)"/>
<rect x="479.566" y="91.7979" width="75.5607" height="7.0289" rx="1.75723" fill="url(#paint8_linear_131_1226)"/>
<path d="M452.864 123.425C453.408 121.844 455.644 121.844 456.188 123.425L458.857 131.185C459.034 131.697 459.436 132.099 459.947 132.275L467.708 134.945C469.289 135.489 469.289 137.725 467.708 138.268L459.947 140.938C459.436 141.114 459.034 141.516 458.857 142.028L456.188 149.789C455.644 151.369 453.408 151.369 452.864 149.789L450.195 142.028C450.018 141.516 449.616 141.114 449.105 140.938L441.344 138.268C439.764 137.725 439.764 135.489 441.344 134.945L449.105 132.275C449.616 132.099 450.018 131.697 450.195 131.185L452.864 123.425Z" fill="#178C91"/>
<rect x="479.566" y="124.306" width="101.919" height="13.1792" rx="1.75723" fill="url(#paint9_linear_131_1226)"/>
<rect x="479.566" y="141.878" width="75.5607" height="7.0289" rx="1.75723" fill="url(#paint10_linear_131_1226)"/>
</g>
<rect x="5" y="5" width="618" height="501" rx="21" stroke="url(#paint11_linear_131_1226)" stroke-width="10"/>
<defs>
<linearGradient id="paint0_linear_131_1226" x1="278" y1="436" x2="278" y2="153" gradientUnits="userSpaceOnUse">
<stop stop-color="#E6F0F3"/>
<stop offset="1" stop-color="white"/>
</linearGradient>
<linearGradient id="paint1_linear_131_1226" x1="350.86" y1="454.073" x2="342.918" y2="225.943" gradientUnits="userSpaceOnUse">
<stop stop-color="#3AADB2"/>
<stop offset="1" stop-color="#0D777C"/>
</linearGradient>
<linearGradient id="paint2_linear_131_1226" x1="309.315" y1="312.255" x2="276.077" y2="312.255" gradientUnits="userSpaceOnUse">
<stop stop-color="#0D777C"/>
<stop offset="1" stop-color="#3AADB2"/>
</linearGradient>
<linearGradient id="paint3_linear_131_1226" x1="302.832" y1="286.352" x2="270.903" y2="297.715" gradientUnits="userSpaceOnUse">
<stop stop-color="#3AADB2"/>
<stop offset="1" stop-color="#0D777C"/>
</linearGradient>
<linearGradient id="paint4_linear_131_1226" x1="309.315" y1="312.255" x2="276.077" y2="312.255" gradientUnits="userSpaceOnUse">
<stop stop-color="#293842"/>
<stop offset="1" stop-color="#425D71"/>
</linearGradient>
<linearGradient id="paint5_linear_131_1226" x1="309.315" y1="312.255" x2="276.077" y2="312.255" gradientUnits="userSpaceOnUse">
<stop stop-color="#0D777C"/>
<stop offset="1" stop-color="#3AADB2"/>
</linearGradient>
<linearGradient id="paint6_linear_131_1226" x1="146.759" y1="145.076" x2="143.51" y2="60.886" gradientUnits="userSpaceOnUse">
<stop stop-color="#3AADB2"/>
<stop offset="1" stop-color="#0D777C"/>
</linearGradient>
<linearGradient id="paint7_linear_131_1226" x1="578.35" y1="87.4048" x2="471.727" y2="87.4048" gradientUnits="userSpaceOnUse">
<stop stop-color="white"/>
<stop offset="0.35" stop-color="#CFE4E5"/>
<stop offset="1" stop-color="#0D777C"/>
</linearGradient>
<linearGradient id="paint8_linear_131_1226" x1="553.94" y1="98.8268" x2="467.303" y2="98.8268" gradientUnits="userSpaceOnUse">
<stop stop-color="white"/>
<stop offset="0.35" stop-color="#CFE4E5"/>
<stop offset="1" stop-color="#0D777C"/>
</linearGradient>
<linearGradient id="paint9_linear_131_1226" x1="578.35" y1="137.485" x2="471.727" y2="137.485" gradientUnits="userSpaceOnUse">
<stop stop-color="white"/>
<stop offset="0.35" stop-color="#CFE4E5"/>
<stop offset="1" stop-color="#0D777C"/>
</linearGradient>
<linearGradient id="paint10_linear_131_1226" x1="553.94" y1="148.907" x2="467.303" y2="148.907" gradientUnits="userSpaceOnUse">
<stop stop-color="white"/>
<stop offset="0.35" stop-color="#CFE4E5"/>
<stop offset="1" stop-color="#0D777C"/>
</linearGradient>
<linearGradient id="paint11_linear_131_1226" x1="80.7586" y1="1171.52" x2="794.412" y2="1065.48" gradientUnits="userSpaceOnUse">
<stop stop-color="#178C91"/>
<stop offset="0.230769" stop-color="#178C91"/>
<stop offset="0.307692" stop-color="#98E7EA"/>
<stop offset="0.389423" stop-color="#178C91"/>
<stop offset="0.567308" stop-color="#178C91"/>
<stop offset="0.6875" stop-color="#178C91"/>
<stop offset="0.774038" stop-color="#98E7EA"/>
<stop offset="0.836538" stop-color="#178C91"/>
<stop offset="1" stop-color="#178C91"/>
</linearGradient>
<clipPath id="clip0_131_1226">
<rect x="10" y="10" width="608" height="491" rx="16" fill="white"/>
</clipPath>
<clipPath id="clip1_131_1226">
<rect width="393" height="525" fill="white" transform="translate(95 55)"/>
</clipPath>
<clipPath id="clip2_131_1226">
<rect width="129.42" height="105.17" fill="white" transform="translate(63 43)"/>
</clipPath>
</defs>
</svg>
