<svg width="25" height="24" viewBox="0 0 25 24" fill="none" xmlns="http://www.w3.org/2000/svg">
<path fill-rule="evenodd" clip-rule="evenodd" d="M5.67212 11.9998C5.67212 11.2204 5.80158 10.4732 6.03263 9.77227L1.98834 6.68402C1.20013 8.28433 0.756042 10.0875 0.756042 11.9998C0.756042 13.9105 1.19958 15.7126 1.9867 17.3118L6.02881 14.2176C5.79994 13.52 5.67212 12.7754 5.67212 11.9998Z" fill="#FBBC05"/>
<path fill-rule="evenodd" clip-rule="evenodd" d="M12.7712 4.90888C14.4646 4.90888 15.994 5.50886 17.1957 6.49064L20.6916 2.99986C18.5613 1.14538 15.8301 -3.05176e-05 12.7712 -3.05176e-05C8.0223 -3.05176e-05 3.94086 2.71569 1.98645 6.68373L6.03074 9.77198C6.96261 6.94336 9.61894 4.90888 12.7712 4.90888Z" fill="#EB4335"/>
<path fill-rule="evenodd" clip-rule="evenodd" d="M12.7712 19.0911C9.61893 19.0911 6.96261 17.0567 6.03074 14.228L1.98645 17.3157C3.94086 21.2843 8.0223 24 12.7712 24C15.7023 24 18.5006 22.9593 20.6009 21.0094L16.762 18.0417C15.6788 18.724 14.3149 19.0911 12.7712 19.0911Z" fill="#34A853"/>
<path fill-rule="evenodd" clip-rule="evenodd" d="M24.2439 12.0004C24.2439 11.2913 24.1347 10.5277 23.9708 9.81866H12.7731V14.4549H19.2186C18.8963 16.0355 18.0191 17.2508 16.7638 18.0416L20.6027 21.0094C22.809 18.9618 24.2439 15.9117 24.2439 12.0004Z" fill="#4285F4"/>
</svg>
