<svg width="460" height="429" viewBox="0 0 460 429" fill="none" xmlns="http://www.w3.org/2000/svg">
<path d="M0 20C0 8.95432 8.95431 0 20 0H440C451.046 0 460 8.95431 460 20V409C460 420.046 451.046 429 440 429H20C8.9543 429 0 420.046 0 409V20Z" fill="#F4F4F4"/>
<g clip-path="url(#clip0_21_5644)">
<rect x="16" y="16" width="428" height="397" rx="16" fill="white"/>
<g filter="url(#filter0_d_21_5644)">
<rect x="32" y="32" width="396" height="439" rx="15" fill="white" shape-rendering="crispEdges"/>
<rect x="31" y="31" width="398" height="441" rx="16" stroke="url(#paint0_linear_21_5644)" stroke-width="2" shape-rendering="crispEdges"/>
<circle cx="66" cy="66" r="22" fill="#E9E9E9"/>
<path d="M96 53.5C96 52.3954 96.8954 51.5 98 51.5H261C262.105 51.5 263 52.3954 263 53.5V64.5C263 65.6046 262.105 66.5 261 66.5H98C96.8954 66.5 96 65.6046 96 64.5V53.5Z" fill="url(#paint1_linear_21_5644)"/>
<path d="M96 73.5C96 72.3954 96.8954 71.5 98 71.5H180C181.105 71.5 182 72.3954 182 73.5V78.5C182 79.6046 181.105 80.5 180 80.5H98C96.8954 80.5 96 79.6046 96 78.5V73.5Z" fill="url(#paint2_linear_21_5644)"/>
<path fill-rule="evenodd" clip-rule="evenodd" d="M413.5 62C413.5 62.3978 413.342 62.7794 413.061 63.0607C412.779 63.342 412.398 63.5 412 63.5C411.602 63.5 411.221 63.342 410.939 63.0607C410.658 62.7794 410.5 62.3978 410.5 62C410.5 61.6022 410.658 61.2206 410.939 60.9393C411.221 60.658 411.602 60.5 412 60.5C412.398 60.5 412.779 60.658 413.061 60.9393C413.342 61.2206 413.5 61.6022 413.5 62ZM413.5 56C413.5 56.3978 413.342 56.7794 413.061 57.0607C412.779 57.342 412.398 57.5 412 57.5C411.602 57.5 411.221 57.342 410.939 57.0607C410.658 56.7794 410.5 56.3978 410.5 56C410.5 55.6022 410.658 55.2206 410.939 54.9393C411.221 54.658 411.602 54.5 412 54.5C412.398 54.5 412.779 54.658 413.061 54.9393C413.342 55.2206 413.5 55.6022 413.5 56ZM413.5 50C413.5 50.3978 413.342 50.7794 413.061 51.0607C412.779 51.342 412.398 51.5 412 51.5C411.602 51.5 411.221 51.342 410.939 51.0607C410.658 50.7794 410.5 50.3978 410.5 50C410.5 49.6022 410.658 49.2206 410.939 48.9393C411.221 48.658 411.602 48.5 412 48.5C412.398 48.5 412.779 48.658 413.061 48.9393C413.342 49.2206 413.5 49.6022 413.5 50Z" fill="#6A6A6A"/>
<path d="M44.7727 112V110.977C44.7727 110.667 44.8277 110.337 44.9375 109.989C45.0511 109.636 45.214 109.297 45.4261 108.972C45.642 108.642 45.9015 108.356 46.2045 108.114L46.9318 108.705C46.6932 109.045 46.4848 109.402 46.3068 109.773C46.1326 110.14 46.0455 110.534 46.0455 110.955V112H44.7727ZM47.6818 112V110.977C47.6818 110.667 47.7367 110.337 47.8466 109.989C47.9602 109.636 48.1231 109.297 48.3352 108.972C48.5511 108.642 48.8106 108.356 49.1136 108.114L49.8409 108.705C49.6023 109.045 49.3939 109.402 49.2159 109.773C49.0417 110.14 48.9545 110.534 48.9545 110.955V112H47.6818ZM50.4332 120H48.956L53.2287 108.364H54.6832L58.956 120H57.4787L54.0014 110.205H53.9105L50.4332 120ZM50.9787 115.455H56.9332V116.705H50.9787V115.455ZM60.5866 120V111.273H61.8821V112.591H61.973C62.1321 112.159 62.42 111.809 62.8366 111.54C63.2533 111.271 63.723 111.136 64.2457 111.136C64.3442 111.136 64.4673 111.138 64.6151 111.142C64.7628 111.146 64.8745 111.152 64.9503 111.159V112.523C64.9048 112.511 64.8007 112.494 64.6378 112.472C64.4787 112.445 64.3101 112.432 64.1321 112.432C63.7079 112.432 63.3291 112.521 62.9957 112.699C62.6662 112.873 62.4048 113.116 62.2116 113.426C62.0223 113.733 61.9276 114.083 61.9276 114.477V120H60.5866ZM69.9332 120.182C69.0923 120.182 68.367 119.996 67.7571 119.625C67.151 119.25 66.6832 118.727 66.3537 118.057C66.0279 117.383 65.8651 116.598 65.8651 115.705C65.8651 114.811 66.0279 114.023 66.3537 113.341C66.6832 112.655 67.1416 112.121 67.7287 111.739C68.3196 111.352 69.009 111.159 69.7969 111.159C70.2514 111.159 70.7003 111.235 71.1435 111.386C71.5866 111.538 71.9901 111.784 72.3537 112.125C72.7173 112.462 73.0071 112.909 73.223 113.466C73.4389 114.023 73.5469 114.708 73.5469 115.523V116.091H66.8196V114.932H72.1832C72.1832 114.439 72.0848 114 71.8878 113.614C71.6946 113.227 71.4181 112.922 71.0582 112.699C70.7022 112.475 70.2817 112.364 69.7969 112.364C69.2628 112.364 68.8007 112.496 68.4105 112.761C68.0241 113.023 67.7268 113.364 67.5185 113.784C67.3101 114.205 67.206 114.655 67.206 115.136V115.909C67.206 116.568 67.3196 117.127 67.5469 117.585C67.7779 118.04 68.098 118.386 68.5071 118.625C68.9162 118.86 69.3916 118.977 69.9332 118.977C70.2855 118.977 70.6037 118.928 70.8878 118.83C71.1757 118.727 71.4238 118.576 71.6321 118.375C71.8404 118.17 72.0014 117.917 72.1151 117.614L73.4105 117.977C73.2741 118.417 73.045 118.803 72.723 119.136C72.401 119.466 72.0033 119.723 71.5298 119.909C71.0563 120.091 70.5241 120.182 69.9332 120.182ZM80.9503 123.273C80.723 123.273 80.5204 123.254 80.3423 123.216C80.1643 123.182 80.0412 123.148 79.973 123.114L80.3139 121.932C80.6397 122.015 80.9276 122.045 81.1776 122.023C81.4276 122 81.6491 121.888 81.8423 121.688C82.0393 121.491 82.2192 121.17 82.3821 120.727L82.6321 120.045L79.4048 111.273H80.8594L83.2685 118.227H83.3594L85.7685 111.273H87.223L83.5185 121.273C83.3518 121.723 83.1454 122.097 82.8991 122.392C82.6529 122.691 82.367 122.913 82.0412 123.057C81.7192 123.201 81.3556 123.273 80.9503 123.273ZM92.2259 120.182C91.438 120.182 90.7467 119.994 90.152 119.619C89.5611 119.244 89.099 118.72 88.7656 118.045C88.4361 117.371 88.2713 116.583 88.2713 115.682C88.2713 114.773 88.4361 113.979 88.7656 113.301C89.099 112.623 89.5611 112.097 90.152 111.722C90.7467 111.347 91.438 111.159 92.2259 111.159C93.0137 111.159 93.7031 111.347 94.294 111.722C94.8887 112.097 95.3509 112.623 95.6804 113.301C96.0137 113.979 96.1804 114.773 96.1804 115.682C96.1804 116.583 96.0137 117.371 95.6804 118.045C95.3509 118.72 94.8887 119.244 94.294 119.619C93.7031 119.994 93.0137 120.182 92.2259 120.182ZM92.2259 118.977C92.8243 118.977 93.3168 118.824 93.7031 118.517C94.0895 118.21 94.3755 117.807 94.5611 117.307C94.7467 116.807 94.8395 116.265 94.8395 115.682C94.8395 115.098 94.7467 114.555 94.5611 114.051C94.3755 113.547 94.0895 113.14 93.7031 112.83C93.3168 112.519 92.8243 112.364 92.2259 112.364C91.6274 112.364 91.1349 112.519 90.7486 112.83C90.3622 113.14 90.0762 113.547 89.8906 114.051C89.705 114.555 89.6122 115.098 89.6122 115.682C89.6122 116.265 89.705 116.807 89.8906 117.307C90.0762 117.807 90.3622 118.21 90.7486 118.517C91.1349 118.824 91.6274 118.977 92.2259 118.977ZM103.727 116.432V111.273H105.068V120H103.727V118.523H103.636C103.432 118.966 103.114 119.343 102.682 119.653C102.25 119.96 101.705 120.114 101.045 120.114C100.5 120.114 100.015 119.994 99.5909 119.756C99.1667 119.513 98.8333 119.15 98.5909 118.665C98.3485 118.176 98.2273 117.561 98.2273 116.818V111.273H99.5682V116.727C99.5682 117.364 99.7462 117.871 100.102 118.25C100.462 118.629 100.92 118.818 101.477 118.818C101.811 118.818 102.15 118.733 102.494 118.562C102.843 118.392 103.134 118.131 103.369 117.778C103.608 117.426 103.727 116.977 103.727 116.432ZM114.592 120.205C114.039 120.205 113.537 120.1 113.087 119.892C112.636 119.68 112.278 119.375 112.013 118.977C111.748 118.576 111.615 118.091 111.615 117.523C111.615 117.023 111.714 116.617 111.911 116.307C112.107 115.992 112.371 115.746 112.7 115.568C113.03 115.39 113.393 115.258 113.791 115.17C114.193 115.08 114.596 115.008 115.001 114.955C115.532 114.886 115.962 114.835 116.291 114.801C116.625 114.763 116.867 114.701 117.018 114.614C117.174 114.527 117.251 114.375 117.251 114.159V114.114C117.251 113.553 117.098 113.117 116.791 112.807C116.488 112.496 116.028 112.341 115.411 112.341C114.77 112.341 114.268 112.481 113.905 112.761C113.541 113.042 113.286 113.341 113.138 113.659L111.865 113.205C112.092 112.674 112.395 112.261 112.774 111.966C113.157 111.667 113.573 111.458 114.024 111.341C114.479 111.22 114.926 111.159 115.365 111.159C115.645 111.159 115.967 111.193 116.331 111.261C116.698 111.326 117.053 111.46 117.393 111.665C117.738 111.869 118.024 112.178 118.251 112.591C118.479 113.004 118.592 113.557 118.592 114.25V120H117.251V118.818H117.183C117.092 119.008 116.941 119.21 116.729 119.426C116.517 119.642 116.234 119.826 115.882 119.977C115.53 120.129 115.1 120.205 114.592 120.205ZM114.797 119C115.327 119 115.774 118.896 116.138 118.688C116.505 118.479 116.782 118.21 116.967 117.881C117.157 117.551 117.251 117.205 117.251 116.841V115.614C117.195 115.682 117.07 115.744 116.876 115.801C116.687 115.854 116.467 115.902 116.217 115.943C115.971 115.981 115.731 116.015 115.496 116.045C115.265 116.072 115.077 116.095 114.933 116.114C114.585 116.159 114.259 116.233 113.956 116.335C113.657 116.434 113.414 116.583 113.229 116.784C113.047 116.981 112.956 117.25 112.956 117.591C112.956 118.057 113.128 118.409 113.473 118.648C113.821 118.883 114.263 119 114.797 119ZM129.335 111.273V112.409H124.812V111.273H129.335ZM126.131 109.182H127.472V117.5C127.472 117.879 127.527 118.163 127.636 118.352C127.75 118.538 127.894 118.663 128.068 118.727C128.246 118.788 128.434 118.818 128.631 118.818C128.778 118.818 128.9 118.811 128.994 118.795C129.089 118.777 129.165 118.761 129.222 118.75L129.494 119.955C129.403 119.989 129.277 120.023 129.114 120.057C128.951 120.095 128.744 120.114 128.494 120.114C128.116 120.114 127.744 120.032 127.381 119.869C127.021 119.706 126.722 119.458 126.483 119.125C126.248 118.792 126.131 118.371 126.131 117.864V109.182ZM131.352 120V111.273H132.648V112.591H132.739C132.898 112.159 133.186 111.809 133.602 111.54C134.019 111.271 134.489 111.136 135.011 111.136C135.11 111.136 135.233 111.138 135.381 111.142C135.528 111.146 135.64 111.152 135.716 111.159V112.523C135.67 112.511 135.566 112.494 135.403 112.472C135.244 112.445 135.076 112.432 134.898 112.432C134.473 112.432 134.095 112.521 133.761 112.699C133.432 112.873 133.17 113.116 132.977 113.426C132.788 113.733 132.693 114.083 132.693 114.477V120H131.352ZM140.699 120.182C139.858 120.182 139.133 119.996 138.523 119.625C137.917 119.25 137.449 118.727 137.119 118.057C136.794 117.383 136.631 116.598 136.631 115.705C136.631 114.811 136.794 114.023 137.119 113.341C137.449 112.655 137.907 112.121 138.494 111.739C139.085 111.352 139.775 111.159 140.562 111.159C141.017 111.159 141.466 111.235 141.909 111.386C142.352 111.538 142.756 111.784 143.119 112.125C143.483 112.462 143.773 112.909 143.989 113.466C144.205 114.023 144.312 114.708 144.312 115.523V116.091H137.585V114.932H142.949C142.949 114.439 142.85 114 142.653 113.614C142.46 113.227 142.184 112.922 141.824 112.699C141.468 112.475 141.047 112.364 140.562 112.364C140.028 112.364 139.566 112.496 139.176 112.761C138.79 113.023 138.492 113.364 138.284 113.784C138.076 114.205 137.972 114.655 137.972 115.136V115.909C137.972 116.568 138.085 117.127 138.312 117.585C138.544 118.04 138.864 118.386 139.273 118.625C139.682 118.86 140.157 118.977 140.699 118.977C141.051 118.977 141.369 118.928 141.653 118.83C141.941 118.727 142.189 118.576 142.398 118.375C142.606 118.17 142.767 117.917 142.881 117.614L144.176 117.977C144.04 118.417 143.811 118.803 143.489 119.136C143.167 119.466 142.769 119.723 142.295 119.909C141.822 120.091 141.29 120.182 140.699 120.182ZM147.693 114.75V120H146.352V111.273H147.648V112.636H147.761C147.966 112.193 148.277 111.837 148.693 111.568C149.11 111.295 149.648 111.159 150.307 111.159C150.898 111.159 151.415 111.28 151.858 111.523C152.301 111.761 152.646 112.125 152.892 112.614C153.138 113.098 153.261 113.712 153.261 114.455V120H151.92V114.545C151.92 113.86 151.742 113.326 151.386 112.943C151.03 112.557 150.542 112.364 149.92 112.364C149.492 112.364 149.11 112.456 148.773 112.642C148.439 112.828 148.176 113.098 147.983 113.455C147.79 113.811 147.693 114.242 147.693 114.75ZM159.007 120.182C158.28 120.182 157.638 119.998 157.081 119.631C156.524 119.259 156.089 118.737 155.774 118.062C155.46 117.384 155.303 116.583 155.303 115.659C155.303 114.742 155.46 113.947 155.774 113.273C156.089 112.598 156.526 112.078 157.087 111.71C157.647 111.343 158.295 111.159 159.03 111.159C159.598 111.159 160.047 111.254 160.376 111.443C160.71 111.629 160.964 111.841 161.138 112.08C161.316 112.314 161.454 112.508 161.553 112.659H161.666V108.364H163.007V120H161.712V118.659H161.553C161.454 118.818 161.314 119.019 161.132 119.261C160.95 119.5 160.691 119.714 160.354 119.903C160.017 120.089 159.568 120.182 159.007 120.182ZM159.189 118.977C159.727 118.977 160.181 118.837 160.553 118.557C160.924 118.273 161.206 117.881 161.399 117.381C161.592 116.877 161.689 116.295 161.689 115.636C161.689 114.985 161.594 114.415 161.405 113.926C161.215 113.434 160.935 113.051 160.564 112.778C160.193 112.502 159.734 112.364 159.189 112.364C158.621 112.364 158.147 112.509 157.768 112.801C157.393 113.089 157.111 113.481 156.922 113.977C156.736 114.47 156.643 115.023 156.643 115.636C156.643 116.258 156.738 116.822 156.928 117.33C157.121 117.833 157.405 118.235 157.78 118.534C158.159 118.83 158.628 118.977 159.189 118.977ZM165.649 120V111.273H166.99V120H165.649ZM166.331 109.818C166.07 109.818 165.844 109.729 165.655 109.551C165.469 109.373 165.376 109.159 165.376 108.909C165.376 108.659 165.469 108.445 165.655 108.267C165.844 108.089 166.07 108 166.331 108C166.592 108 166.816 108.089 167.001 108.267C167.191 108.445 167.286 108.659 167.286 108.909C167.286 109.159 167.191 109.373 167.001 109.551C166.816 109.729 166.592 109.818 166.331 109.818ZM170.787 114.75V120H169.446V111.273H170.741V112.636H170.855C171.06 112.193 171.37 111.837 171.787 111.568C172.204 111.295 172.741 111.159 173.401 111.159C173.991 111.159 174.509 111.28 174.952 111.523C175.395 111.761 175.74 112.125 175.986 112.614C176.232 113.098 176.355 113.712 176.355 114.455V120H175.014V114.545C175.014 113.86 174.836 113.326 174.48 112.943C174.124 112.557 173.635 112.364 173.014 112.364C172.586 112.364 172.204 112.456 171.866 112.642C171.533 112.828 171.27 113.098 171.077 113.455C170.884 113.811 170.787 114.242 170.787 114.75ZM182.328 123.455C181.68 123.455 181.124 123.371 180.658 123.205C180.192 123.042 179.804 122.826 179.493 122.557C179.186 122.292 178.942 122.008 178.76 121.705L179.828 120.955C179.949 121.114 180.103 121.295 180.288 121.5C180.474 121.708 180.728 121.888 181.05 122.04C181.375 122.195 181.802 122.273 182.328 122.273C183.033 122.273 183.614 122.102 184.072 121.761C184.531 121.42 184.76 120.886 184.76 120.159V118.386H184.646C184.548 118.545 184.408 118.742 184.226 118.977C184.048 119.208 183.79 119.415 183.453 119.597C183.12 119.775 182.669 119.864 182.101 119.864C181.396 119.864 180.764 119.697 180.203 119.364C179.646 119.03 179.205 118.545 178.879 117.909C178.557 117.273 178.396 116.5 178.396 115.591C178.396 114.697 178.554 113.919 178.868 113.256C179.182 112.589 179.62 112.074 180.18 111.71C180.741 111.343 181.389 111.159 182.124 111.159C182.692 111.159 183.143 111.254 183.476 111.443C183.813 111.629 184.071 111.841 184.249 112.08C184.43 112.314 184.571 112.508 184.669 112.659H184.805V111.273H186.101V120.25C186.101 121 185.93 121.61 185.589 122.08C185.252 122.553 184.798 122.9 184.226 123.119C183.658 123.343 183.025 123.455 182.328 123.455ZM182.283 118.659C182.821 118.659 183.275 118.536 183.646 118.29C184.018 118.044 184.3 117.689 184.493 117.227C184.686 116.765 184.783 116.212 184.783 115.568C184.783 114.939 184.688 114.384 184.499 113.903C184.309 113.422 184.029 113.045 183.658 112.773C183.286 112.5 182.828 112.364 182.283 112.364C181.714 112.364 181.241 112.508 180.862 112.795C180.487 113.083 180.205 113.47 180.016 113.955C179.83 114.439 179.737 114.977 179.737 115.568C179.737 116.174 179.832 116.71 180.021 117.176C180.214 117.638 180.499 118.002 180.874 118.267C181.252 118.528 181.722 118.659 182.283 118.659ZM196.851 111.273V112.409H192.328V111.273H196.851ZM193.646 109.182H194.987V117.5C194.987 117.879 195.042 118.163 195.152 118.352C195.266 118.538 195.41 118.663 195.584 118.727C195.762 118.788 195.949 118.818 196.146 118.818C196.294 118.818 196.415 118.811 196.51 118.795C196.605 118.777 196.68 118.761 196.737 118.75L197.01 119.955C196.919 119.989 196.792 120.023 196.629 120.057C196.466 120.095 196.26 120.114 196.01 120.114C195.631 120.114 195.26 120.032 194.896 119.869C194.536 119.706 194.237 119.458 193.999 119.125C193.764 118.792 193.646 118.371 193.646 117.864V109.182ZM202.32 120.182C201.532 120.182 200.84 119.994 200.246 119.619C199.655 119.244 199.193 118.72 198.859 118.045C198.53 117.371 198.365 116.583 198.365 115.682C198.365 114.773 198.53 113.979 198.859 113.301C199.193 112.623 199.655 112.097 200.246 111.722C200.84 111.347 201.532 111.159 202.32 111.159C203.107 111.159 203.797 111.347 204.388 111.722C204.982 112.097 205.445 112.623 205.774 113.301C206.107 113.979 206.274 114.773 206.274 115.682C206.274 116.583 206.107 117.371 205.774 118.045C205.445 118.72 204.982 119.244 204.388 119.619C203.797 119.994 203.107 120.182 202.32 120.182ZM202.32 118.977C202.918 118.977 203.411 118.824 203.797 118.517C204.183 118.21 204.469 117.807 204.655 117.307C204.84 116.807 204.933 116.265 204.933 115.682C204.933 115.098 204.84 114.555 204.655 114.051C204.469 113.547 204.183 113.14 203.797 112.83C203.411 112.519 202.918 112.364 202.32 112.364C201.721 112.364 201.229 112.519 200.842 112.83C200.456 113.14 200.17 113.547 199.984 114.051C199.799 114.555 199.706 115.098 199.706 115.682C199.706 116.265 199.799 116.807 199.984 117.307C200.17 117.807 200.456 118.21 200.842 118.517C201.229 118.824 201.721 118.977 202.32 118.977ZM208.321 123.273V111.273H209.616V112.659H209.776C209.874 112.508 210.01 112.314 210.185 112.08C210.363 111.841 210.616 111.629 210.946 111.443C211.279 111.254 211.73 111.159 212.298 111.159C213.033 111.159 213.681 111.343 214.241 111.71C214.802 112.078 215.24 112.598 215.554 113.273C215.868 113.947 216.026 114.742 216.026 115.659C216.026 116.583 215.868 117.384 215.554 118.062C215.24 118.737 214.804 119.259 214.247 119.631C213.69 119.998 213.048 120.182 212.321 120.182C211.76 120.182 211.312 120.089 210.974 119.903C210.637 119.714 210.378 119.5 210.196 119.261C210.014 119.019 209.874 118.818 209.776 118.659H209.662V123.273H208.321ZM209.639 115.636C209.639 116.295 209.736 116.877 209.929 117.381C210.122 117.881 210.404 118.273 210.776 118.557C211.147 118.837 211.601 118.977 212.139 118.977C212.7 118.977 213.168 118.83 213.543 118.534C213.921 118.235 214.205 117.833 214.395 117.33C214.588 116.822 214.685 116.258 214.685 115.636C214.685 115.023 214.59 114.47 214.401 113.977C214.215 113.481 213.933 113.089 213.554 112.801C213.179 112.509 212.707 112.364 212.139 112.364C211.594 112.364 211.135 112.502 210.764 112.778C210.393 113.051 210.113 113.434 209.923 113.926C209.734 114.415 209.639 114.985 209.639 115.636ZM218.071 120V111.273H219.412V120H218.071ZM218.753 109.818C218.491 109.818 218.266 109.729 218.077 109.551C217.891 109.373 217.798 109.159 217.798 108.909C217.798 108.659 217.891 108.445 218.077 108.267C218.266 108.089 218.491 108 218.753 108C219.014 108 219.238 108.089 219.423 108.267C219.613 108.445 219.707 108.659 219.707 108.909C219.707 109.159 219.613 109.373 219.423 109.551C219.238 109.729 219.014 109.818 218.753 109.818ZM225.413 120.182C224.595 120.182 223.891 119.989 223.3 119.602C222.709 119.216 222.254 118.684 221.936 118.006C221.618 117.328 221.459 116.553 221.459 115.682C221.459 114.795 221.622 114.013 221.947 113.335C222.277 112.653 222.735 112.121 223.322 111.739C223.913 111.352 224.603 111.159 225.391 111.159C226.004 111.159 226.557 111.273 227.05 111.5C227.542 111.727 227.946 112.045 228.26 112.455C228.574 112.864 228.769 113.341 228.845 113.886H227.504C227.402 113.489 227.175 113.136 226.822 112.83C226.474 112.519 226.004 112.364 225.413 112.364C224.891 112.364 224.432 112.5 224.038 112.773C223.648 113.042 223.343 113.422 223.124 113.915C222.908 114.403 222.8 114.977 222.8 115.636C222.8 116.311 222.906 116.898 223.118 117.398C223.334 117.898 223.637 118.286 224.027 118.562C224.421 118.839 224.883 118.977 225.413 118.977C225.762 118.977 226.078 118.917 226.362 118.795C226.646 118.674 226.887 118.5 227.084 118.273C227.281 118.045 227.421 117.773 227.504 117.455H228.845C228.769 117.97 228.582 118.434 228.283 118.847C227.987 119.256 227.595 119.581 227.107 119.824C226.622 120.062 226.057 120.182 225.413 120.182ZM232.555 116.727V116.659C232.563 115.936 232.639 115.36 232.783 114.932C232.927 114.504 233.131 114.157 233.396 113.892C233.661 113.627 233.98 113.383 234.351 113.159C234.574 113.023 234.775 112.862 234.953 112.676C235.131 112.487 235.271 112.269 235.374 112.023C235.48 111.777 235.533 111.504 235.533 111.205C235.533 110.833 235.446 110.511 235.271 110.239C235.097 109.966 234.864 109.756 234.572 109.608C234.281 109.46 233.957 109.386 233.601 109.386C233.29 109.386 232.991 109.451 232.703 109.58C232.415 109.708 232.175 109.911 231.982 110.188C231.788 110.464 231.677 110.826 231.646 111.273H230.214C230.245 110.629 230.411 110.078 230.714 109.619C231.021 109.161 231.425 108.811 231.925 108.568C232.429 108.326 232.987 108.205 233.601 108.205C234.268 108.205 234.847 108.337 235.339 108.602C235.836 108.867 236.218 109.231 236.487 109.693C236.76 110.155 236.896 110.682 236.896 111.273C236.896 111.689 236.832 112.066 236.703 112.403C236.578 112.741 236.396 113.042 236.158 113.307C235.923 113.572 235.639 113.807 235.305 114.011C234.972 114.22 234.705 114.439 234.504 114.67C234.304 114.898 234.158 115.169 234.067 115.483C233.976 115.797 233.927 116.189 233.919 116.659V116.727H232.555ZM233.283 120.091C233.002 120.091 232.762 119.991 232.561 119.79C232.36 119.589 232.26 119.348 232.26 119.068C232.26 118.788 232.36 118.547 232.561 118.347C232.762 118.146 233.002 118.045 233.283 118.045C233.563 118.045 233.804 118.146 234.004 118.347C234.205 118.547 234.305 118.788 234.305 119.068C234.305 119.254 234.258 119.424 234.163 119.58C234.072 119.735 233.949 119.86 233.794 119.955C233.643 120.045 233.472 120.091 233.283 120.091ZM243.597 120V108.364H247.665C248.475 108.364 249.144 108.504 249.67 108.784C250.197 109.061 250.589 109.434 250.847 109.903C251.104 110.369 251.233 110.886 251.233 111.455C251.233 111.955 251.144 112.367 250.966 112.693C250.792 113.019 250.561 113.277 250.273 113.466C249.989 113.655 249.68 113.795 249.347 113.886V114C249.703 114.023 250.061 114.148 250.42 114.375C250.78 114.602 251.081 114.928 251.324 115.352C251.566 115.777 251.688 116.295 251.688 116.909C251.688 117.492 251.555 118.017 251.29 118.483C251.025 118.949 250.606 119.318 250.034 119.591C249.462 119.864 248.718 120 247.801 120H243.597ZM245.006 118.75H247.801C248.722 118.75 249.375 118.572 249.761 118.216C250.152 117.856 250.347 117.42 250.347 116.909C250.347 116.515 250.246 116.152 250.045 115.818C249.845 115.481 249.559 115.212 249.188 115.011C248.816 114.807 248.377 114.705 247.869 114.705H245.006V118.75ZM245.006 113.477H247.619C248.044 113.477 248.426 113.394 248.767 113.227C249.112 113.061 249.384 112.826 249.585 112.523C249.79 112.22 249.892 111.864 249.892 111.455C249.892 110.943 249.714 110.509 249.358 110.153C249.002 109.794 248.438 109.614 247.665 109.614H245.006V113.477ZM257.48 120.182C256.639 120.182 255.914 119.996 255.304 119.625C254.698 119.25 254.23 118.727 253.901 118.057C253.575 117.383 253.412 116.598 253.412 115.705C253.412 114.811 253.575 114.023 253.901 113.341C254.23 112.655 254.688 112.121 255.276 111.739C255.866 111.352 256.556 111.159 257.344 111.159C257.798 111.159 258.247 111.235 258.69 111.386C259.134 111.538 259.537 111.784 259.901 112.125C260.264 112.462 260.554 112.909 260.77 113.466C260.986 114.023 261.094 114.708 261.094 115.523V116.091H254.366V114.932H259.73C259.73 114.439 259.632 114 259.435 113.614C259.241 113.227 258.965 112.922 258.605 112.699C258.249 112.475 257.829 112.364 257.344 112.364C256.81 112.364 256.348 112.496 255.957 112.761C255.571 113.023 255.274 113.364 255.065 113.784C254.857 114.205 254.753 114.655 254.753 115.136V115.909C254.753 116.568 254.866 117.127 255.094 117.585C255.325 118.04 255.645 118.386 256.054 118.625C256.463 118.86 256.938 118.977 257.48 118.977C257.832 118.977 258.151 118.928 258.435 118.83C258.723 118.727 258.971 118.576 259.179 118.375C259.387 118.17 259.548 117.917 259.662 117.614L260.957 117.977C260.821 118.417 260.592 118.803 260.27 119.136C259.948 119.466 259.55 119.723 259.077 119.909C258.603 120.091 258.071 120.182 257.48 120.182ZM266.679 120.182C265.861 120.182 265.156 119.989 264.565 119.602C263.974 119.216 263.52 118.684 263.202 118.006C262.884 117.328 262.724 116.553 262.724 115.682C262.724 114.795 262.887 114.013 263.213 113.335C263.543 112.653 264.001 112.121 264.588 111.739C265.179 111.352 265.868 111.159 266.656 111.159C267.27 111.159 267.823 111.273 268.315 111.5C268.808 111.727 269.211 112.045 269.526 112.455C269.84 112.864 270.035 113.341 270.111 113.886H268.77C268.668 113.489 268.44 113.136 268.088 112.83C267.74 112.519 267.27 112.364 266.679 112.364C266.156 112.364 265.698 112.5 265.304 112.773C264.914 113.042 264.609 113.422 264.389 113.915C264.173 114.403 264.065 114.977 264.065 115.636C264.065 116.311 264.171 116.898 264.384 117.398C264.599 117.898 264.902 118.286 265.293 118.562C265.687 118.839 266.149 118.977 266.679 118.977C267.027 118.977 267.344 118.917 267.628 118.795C267.912 118.674 268.152 118.5 268.349 118.273C268.546 118.045 268.687 117.773 268.77 117.455H270.111C270.035 117.97 269.848 118.434 269.548 118.847C269.253 119.256 268.861 119.581 268.372 119.824C267.887 120.062 267.323 120.182 266.679 120.182ZM274.639 120.205C274.086 120.205 273.584 120.1 273.134 119.892C272.683 119.68 272.325 119.375 272.06 118.977C271.795 118.576 271.662 118.091 271.662 117.523C271.662 117.023 271.76 116.617 271.957 116.307C272.154 115.992 272.418 115.746 272.747 115.568C273.077 115.39 273.44 115.258 273.838 115.17C274.24 115.08 274.643 115.008 275.048 114.955C275.579 114.886 276.009 114.835 276.338 114.801C276.671 114.763 276.914 114.701 277.065 114.614C277.221 114.527 277.298 114.375 277.298 114.159V114.114C277.298 113.553 277.145 113.117 276.838 112.807C276.535 112.496 276.075 112.341 275.457 112.341C274.817 112.341 274.315 112.481 273.952 112.761C273.588 113.042 273.332 113.341 273.185 113.659L271.912 113.205C272.139 112.674 272.442 112.261 272.821 111.966C273.204 111.667 273.62 111.458 274.071 111.341C274.526 111.22 274.973 111.159 275.412 111.159C275.692 111.159 276.014 111.193 276.378 111.261C276.745 111.326 277.099 111.46 277.44 111.665C277.785 111.869 278.071 112.178 278.298 112.591C278.526 113.004 278.639 113.557 278.639 114.25V120H277.298V118.818H277.23C277.139 119.008 276.988 119.21 276.776 119.426C276.563 119.642 276.281 119.826 275.929 119.977C275.577 120.129 275.147 120.205 274.639 120.205ZM274.844 119C275.374 119 275.821 118.896 276.185 118.688C276.552 118.479 276.829 118.21 277.014 117.881C277.204 117.551 277.298 117.205 277.298 116.841V115.614C277.241 115.682 277.116 115.744 276.923 115.801C276.734 115.854 276.514 115.902 276.264 115.943C276.018 115.981 275.777 116.015 275.543 116.045C275.312 116.072 275.124 116.095 274.98 116.114C274.632 116.159 274.306 116.233 274.003 116.335C273.704 116.434 273.461 116.583 273.276 116.784C273.094 116.981 273.003 117.25 273.003 117.591C273.003 118.057 273.175 118.409 273.52 118.648C273.868 118.883 274.31 119 274.844 119ZM286.587 116.432V111.273H287.928V120H286.587V118.523H286.496C286.291 118.966 285.973 119.343 285.541 119.653C285.109 119.96 284.564 120.114 283.905 120.114C283.359 120.114 282.875 119.994 282.45 119.756C282.026 119.513 281.693 119.15 281.45 118.665C281.208 118.176 281.087 117.561 281.087 116.818V111.273H282.428V116.727C282.428 117.364 282.606 117.871 282.962 118.25C283.321 118.629 283.78 118.818 284.337 118.818C284.67 118.818 285.009 118.733 285.354 118.562C285.702 118.392 285.994 118.131 286.229 117.778C286.467 117.426 286.587 116.977 286.587 116.432ZM296.565 113.227L295.361 113.568C295.285 113.367 295.173 113.172 295.026 112.983C294.882 112.79 294.685 112.631 294.435 112.506C294.185 112.381 293.865 112.318 293.474 112.318C292.94 112.318 292.495 112.441 292.139 112.688C291.787 112.93 291.611 113.239 291.611 113.614C291.611 113.947 291.732 114.21 291.974 114.403C292.217 114.597 292.596 114.758 293.111 114.886L294.406 115.205C295.187 115.394 295.768 115.684 296.151 116.074C296.533 116.46 296.724 116.958 296.724 117.568C296.724 118.068 296.58 118.515 296.293 118.909C296.009 119.303 295.611 119.614 295.099 119.841C294.588 120.068 293.993 120.182 293.315 120.182C292.425 120.182 291.688 119.989 291.105 119.602C290.522 119.216 290.152 118.652 289.997 117.909L291.27 117.591C291.391 118.061 291.62 118.413 291.957 118.648C292.298 118.883 292.743 119 293.293 119C293.918 119 294.414 118.867 294.781 118.602C295.152 118.333 295.338 118.011 295.338 117.636C295.338 117.333 295.232 117.08 295.02 116.875C294.808 116.667 294.482 116.511 294.043 116.409L292.588 116.068C291.789 115.879 291.202 115.585 290.827 115.188C290.455 114.786 290.27 114.284 290.27 113.682C290.27 113.189 290.408 112.754 290.685 112.375C290.965 111.996 291.346 111.699 291.827 111.483C292.312 111.267 292.861 111.159 293.474 111.159C294.338 111.159 295.016 111.348 295.509 111.727C296.005 112.106 296.357 112.606 296.565 113.227ZM302.402 120.182C301.561 120.182 300.836 119.996 300.226 119.625C299.62 119.25 299.152 118.727 298.822 118.057C298.497 117.383 298.334 116.598 298.334 115.705C298.334 114.811 298.497 114.023 298.822 113.341C299.152 112.655 299.61 112.121 300.197 111.739C300.788 111.352 301.478 111.159 302.266 111.159C302.72 111.159 303.169 111.235 303.612 111.386C304.055 111.538 304.459 111.784 304.822 112.125C305.186 112.462 305.476 112.909 305.692 113.466C305.908 114.023 306.016 114.708 306.016 115.523V116.091H299.288V114.932H304.652C304.652 114.439 304.554 114 304.357 113.614C304.163 113.227 303.887 112.922 303.527 112.699C303.171 112.475 302.75 112.364 302.266 112.364C301.732 112.364 301.269 112.496 300.879 112.761C300.493 113.023 300.196 113.364 299.987 113.784C299.779 114.205 299.675 114.655 299.675 115.136V115.909C299.675 116.568 299.788 117.127 300.016 117.585C300.247 118.04 300.567 118.386 300.976 118.625C301.385 118.86 301.86 118.977 302.402 118.977C302.754 118.977 303.072 118.928 303.357 118.83C303.644 118.727 303.893 118.576 304.101 118.375C304.309 118.17 304.47 117.917 304.584 117.614L305.879 117.977C305.743 118.417 305.514 118.803 305.192 119.136C304.87 119.466 304.472 119.723 303.999 119.909C303.525 120.091 302.993 120.182 302.402 120.182ZM314.146 108.364V120H312.737V108.364H314.146ZM324.835 120.182C324.017 120.182 323.313 119.989 322.722 119.602C322.131 119.216 321.676 118.684 321.358 118.006C321.04 117.328 320.881 116.553 320.881 115.682C320.881 114.795 321.044 114.013 321.369 113.335C321.699 112.653 322.157 112.121 322.744 111.739C323.335 111.352 324.025 111.159 324.812 111.159C325.426 111.159 325.979 111.273 326.472 111.5C326.964 111.727 327.367 112.045 327.682 112.455C327.996 112.864 328.191 113.341 328.267 113.886H326.926C326.824 113.489 326.597 113.136 326.244 112.83C325.896 112.519 325.426 112.364 324.835 112.364C324.313 112.364 323.854 112.5 323.46 112.773C323.07 113.042 322.765 113.422 322.545 113.915C322.33 114.403 322.222 114.977 322.222 115.636C322.222 116.311 322.328 116.898 322.54 117.398C322.756 117.898 323.059 118.286 323.449 118.562C323.843 118.839 324.305 118.977 324.835 118.977C325.184 118.977 325.5 118.917 325.784 118.795C326.068 118.674 326.309 118.5 326.506 118.273C326.703 118.045 326.843 117.773 326.926 117.455H328.267C328.191 117.97 328.004 118.434 327.705 118.847C327.409 119.256 327.017 119.581 326.528 119.824C326.044 120.062 325.479 120.182 324.835 120.182ZM332.795 120.205C332.242 120.205 331.741 120.1 331.29 119.892C330.839 119.68 330.481 119.375 330.216 118.977C329.951 118.576 329.818 118.091 329.818 117.523C329.818 117.023 329.917 116.617 330.114 116.307C330.311 115.992 330.574 115.746 330.903 115.568C331.233 115.39 331.597 115.258 331.994 115.17C332.396 115.08 332.799 115.008 333.205 114.955C333.735 114.886 334.165 114.835 334.494 114.801C334.828 114.763 335.07 114.701 335.222 114.614C335.377 114.527 335.455 114.375 335.455 114.159V114.114C335.455 113.553 335.301 113.117 334.994 112.807C334.691 112.496 334.231 112.341 333.614 112.341C332.973 112.341 332.472 112.481 332.108 112.761C331.744 113.042 331.489 113.341 331.341 113.659L330.068 113.205C330.295 112.674 330.598 112.261 330.977 111.966C331.36 111.667 331.777 111.458 332.227 111.341C332.682 111.22 333.129 111.159 333.568 111.159C333.848 111.159 334.17 111.193 334.534 111.261C334.902 111.326 335.256 111.46 335.597 111.665C335.941 111.869 336.227 112.178 336.455 112.591C336.682 113.004 336.795 113.557 336.795 114.25V120H335.455V118.818H335.386C335.295 119.008 335.144 119.21 334.932 119.426C334.72 119.642 334.438 119.826 334.085 119.977C333.733 120.129 333.303 120.205 332.795 120.205ZM333 119C333.53 119 333.977 118.896 334.341 118.688C334.708 118.479 334.985 118.21 335.17 117.881C335.36 117.551 335.455 117.205 335.455 116.841V115.614C335.398 115.682 335.273 115.744 335.08 115.801C334.89 115.854 334.67 115.902 334.42 115.943C334.174 115.981 333.934 116.015 333.699 116.045C333.468 116.072 333.28 116.095 333.136 116.114C332.788 116.159 332.462 116.233 332.159 116.335C331.86 116.434 331.617 116.583 331.432 116.784C331.25 116.981 331.159 117.25 331.159 117.591C331.159 118.057 331.331 118.409 331.676 118.648C332.025 118.883 332.466 119 333 119ZM340.584 114.75V120H339.243V111.273H340.538V112.636H340.652C340.857 112.193 341.167 111.837 341.584 111.568C342 111.295 342.538 111.159 343.197 111.159C343.788 111.159 344.305 111.28 344.749 111.523C345.192 111.761 345.536 112.125 345.783 112.614C346.029 113.098 346.152 113.712 346.152 114.455V120H344.811V114.545C344.811 113.86 344.633 113.326 344.277 112.943C343.921 112.557 343.432 112.364 342.811 112.364C342.383 112.364 342 112.456 341.663 112.642C341.33 112.828 341.067 113.098 340.874 113.455C340.68 113.811 340.584 114.242 340.584 114.75ZM349.784 108.364V109.386C349.784 109.697 349.727 110.028 349.614 110.381C349.504 110.729 349.341 111.068 349.125 111.398C348.913 111.723 348.655 112.008 348.352 112.25L347.625 111.659C347.864 111.318 348.07 110.964 348.244 110.597C348.422 110.225 348.511 109.83 348.511 109.409V108.364H349.784ZM355.585 111.273V112.409H351.062V111.273H355.585ZM352.381 109.182H353.722V117.5C353.722 117.879 353.777 118.163 353.886 118.352C354 118.538 354.144 118.663 354.318 118.727C354.496 118.788 354.684 118.818 354.881 118.818C355.028 118.818 355.15 118.811 355.244 118.795C355.339 118.777 355.415 118.761 355.472 118.75L355.744 119.955C355.653 119.989 355.527 120.023 355.364 120.057C355.201 120.095 354.994 120.114 354.744 120.114C354.366 120.114 353.994 120.032 353.631 119.869C353.271 119.706 352.972 119.458 352.733 119.125C352.498 118.792 352.381 118.371 352.381 117.864V109.182ZM368.284 113.227L367.08 113.568C367.004 113.367 366.892 113.172 366.744 112.983C366.6 112.79 366.403 112.631 366.153 112.506C365.903 112.381 365.583 112.318 365.193 112.318C364.659 112.318 364.214 112.441 363.858 112.688C363.506 112.93 363.33 113.239 363.33 113.614C363.33 113.947 363.451 114.21 363.693 114.403C363.936 114.597 364.314 114.758 364.83 114.886L366.125 115.205C366.905 115.394 367.487 115.684 367.869 116.074C368.252 116.46 368.443 116.958 368.443 117.568C368.443 118.068 368.299 118.515 368.011 118.909C367.727 119.303 367.33 119.614 366.818 119.841C366.307 120.068 365.712 120.182 365.034 120.182C364.144 120.182 363.407 119.989 362.824 119.602C362.241 119.216 361.871 118.652 361.716 117.909L362.989 117.591C363.11 118.061 363.339 118.413 363.676 118.648C364.017 118.883 364.462 119 365.011 119C365.636 119 366.133 118.867 366.5 118.602C366.871 118.333 367.057 118.011 367.057 117.636C367.057 117.333 366.951 117.08 366.739 116.875C366.527 116.667 366.201 116.511 365.761 116.409L364.307 116.068C363.508 115.879 362.92 115.585 362.545 115.188C362.174 114.786 361.989 114.284 361.989 113.682C361.989 113.189 362.127 112.754 362.403 112.375C362.684 111.996 363.064 111.699 363.545 111.483C364.03 111.267 364.58 111.159 365.193 111.159C366.057 111.159 366.735 111.348 367.227 111.727C367.723 112.106 368.076 112.606 368.284 113.227ZM374.257 111.273V112.409H369.734V111.273H374.257ZM371.053 109.182H372.393V117.5C372.393 117.879 372.448 118.163 372.558 118.352C372.672 118.538 372.816 118.663 372.99 118.727C373.168 118.788 373.356 118.818 373.553 118.818C373.7 118.818 373.821 118.811 373.916 118.795C374.011 118.777 374.087 118.761 374.143 118.75L374.416 119.955C374.325 119.989 374.198 120.023 374.036 120.057C373.873 120.095 373.666 120.114 373.416 120.114C373.037 120.114 372.666 120.032 372.303 119.869C371.943 119.706 371.643 119.458 371.405 119.125C371.17 118.792 371.053 118.371 371.053 117.864V109.182ZM379.726 120.182C378.938 120.182 378.247 119.994 377.652 119.619C377.061 119.244 376.599 118.72 376.266 118.045C375.936 117.371 375.771 116.583 375.771 115.682C375.771 114.773 375.936 113.979 376.266 113.301C376.599 112.623 377.061 112.097 377.652 111.722C378.247 111.347 378.938 111.159 379.726 111.159C380.514 111.159 381.203 111.347 381.794 111.722C382.389 112.097 382.851 112.623 383.18 113.301C383.514 113.979 383.68 114.773 383.68 115.682C383.68 116.583 383.514 117.371 383.18 118.045C382.851 118.72 382.389 119.244 381.794 119.619C381.203 119.994 380.514 120.182 379.726 120.182ZM379.726 118.977C380.324 118.977 380.817 118.824 381.203 118.517C381.589 118.21 381.875 117.807 382.061 117.307C382.247 116.807 382.339 116.265 382.339 115.682C382.339 115.098 382.247 114.555 382.061 114.051C381.875 113.547 381.589 113.14 381.203 112.83C380.817 112.519 380.324 112.364 379.726 112.364C379.127 112.364 378.635 112.519 378.249 112.83C377.862 113.14 377.576 113.547 377.391 114.051C377.205 114.555 377.112 115.098 377.112 115.682C377.112 116.265 377.205 116.807 377.391 117.307C377.576 117.807 377.862 118.21 378.249 118.517C378.635 118.824 379.127 118.977 379.726 118.977ZM385.727 123.273V111.273H387.023V112.659H387.182C387.28 112.508 387.417 112.314 387.591 112.08C387.769 111.841 388.023 111.629 388.352 111.443C388.686 111.254 389.136 111.159 389.705 111.159C390.439 111.159 391.087 111.343 391.648 111.71C392.208 112.078 392.646 112.598 392.96 113.273C393.275 113.947 393.432 114.742 393.432 115.659C393.432 116.583 393.275 117.384 392.96 118.062C392.646 118.737 392.21 119.259 391.653 119.631C391.097 119.998 390.455 120.182 389.727 120.182C389.167 120.182 388.718 120.089 388.381 119.903C388.044 119.714 387.784 119.5 387.602 119.261C387.42 119.019 387.28 118.818 387.182 118.659H387.068V123.273H385.727ZM387.045 115.636C387.045 116.295 387.142 116.877 387.335 117.381C387.528 117.881 387.811 118.273 388.182 118.557C388.553 118.837 389.008 118.977 389.545 118.977C390.106 118.977 390.574 118.83 390.949 118.534C391.328 118.235 391.612 117.833 391.801 117.33C391.994 116.822 392.091 116.258 392.091 115.636C392.091 115.023 391.996 114.47 391.807 113.977C391.621 113.481 391.339 113.089 390.96 112.801C390.585 112.509 390.114 112.364 389.545 112.364C389 112.364 388.542 112.502 388.17 112.778C387.799 113.051 387.519 113.434 387.33 113.926C387.14 114.415 387.045 114.985 387.045 115.636ZM49.0227 135.273V136.409H44.5V135.273H49.0227ZM45.8182 133.182H47.1591V141.5C47.1591 141.879 47.214 142.163 47.3239 142.352C47.4375 142.538 47.5814 142.663 47.7557 142.727C47.9337 142.788 48.1212 142.818 48.3182 142.818C48.4659 142.818 48.5871 142.811 48.6818 142.795C48.7765 142.777 48.8523 142.761 48.9091 142.75L49.1818 143.955C49.0909 143.989 48.964 144.023 48.8011 144.057C48.6383 144.095 48.4318 144.114 48.1818 144.114C47.803 144.114 47.4318 144.032 47.0682 143.869C46.7083 143.706 46.4091 143.458 46.1705 143.125C45.9356 142.792 45.8182 142.371 45.8182 141.864V133.182ZM52.5682 138.75V144H51.2273V132.364H52.5682V136.636H52.6818C52.8864 136.186 53.1932 135.828 53.6023 135.562C54.0152 135.294 54.5644 135.159 55.25 135.159C55.8447 135.159 56.3655 135.278 56.8125 135.517C57.2595 135.752 57.6061 136.114 57.8523 136.602C58.1023 137.087 58.2273 137.705 58.2273 138.455V144H56.8864V138.545C56.8864 137.852 56.7064 137.316 56.3466 136.938C55.9905 136.555 55.4962 136.364 54.8636 136.364C54.4242 136.364 54.0303 136.456 53.6818 136.642C53.3371 136.828 53.0644 137.098 52.8636 137.455C52.6667 137.811 52.5682 138.242 52.5682 138.75ZM60.6804 144V135.273H62.0213V144H60.6804ZM61.3622 133.818C61.1009 133.818 60.8755 133.729 60.6861 133.551C60.5005 133.373 60.4077 133.159 60.4077 132.909C60.4077 132.659 60.5005 132.445 60.6861 132.267C60.8755 132.089 61.1009 132 61.3622 132C61.6236 132 61.8471 132.089 62.0327 132.267C62.2221 132.445 62.3168 132.659 62.3168 132.909C62.3168 133.159 62.2221 133.373 62.0327 133.551C61.8471 133.729 61.6236 133.818 61.3622 133.818ZM65.8182 138.75V144H64.4773V135.273H65.7727V136.636H65.8864C66.0909 136.193 66.4015 135.837 66.8182 135.568C67.2348 135.295 67.7727 135.159 68.4318 135.159C69.0227 135.159 69.5398 135.28 69.983 135.523C70.4261 135.761 70.7708 136.125 71.017 136.614C71.2633 137.098 71.3864 137.712 71.3864 138.455V144H70.0455V138.545C70.0455 137.86 69.8674 137.326 69.5114 136.943C69.1553 136.557 68.6667 136.364 68.0455 136.364C67.6174 136.364 67.2348 136.456 66.8977 136.642C66.5644 136.828 66.3011 137.098 66.108 137.455C65.9148 137.811 65.8182 138.242 65.8182 138.75ZM75.0866 140.818L75.0639 139.159H75.3366L79.1548 135.273H80.8139L76.7457 139.386H76.6321L75.0866 140.818ZM73.8366 144V132.364H75.1776V144H73.8366ZM79.3821 144L75.973 139.682L76.9276 138.75L81.0866 144H79.3821ZM82.5398 144V135.273H83.8807V144H82.5398ZM83.2216 133.818C82.9602 133.818 82.7348 133.729 82.5455 133.551C82.3598 133.373 82.267 133.159 82.267 132.909C82.267 132.659 82.3598 132.445 82.5455 132.267C82.7348 132.089 82.9602 132 83.2216 132C83.483 132 83.7064 132.089 83.892 132.267C84.0814 132.445 84.1761 132.659 84.1761 132.909C84.1761 133.159 84.0814 133.373 83.892 133.551C83.7064 133.729 83.483 133.818 83.2216 133.818ZM87.6776 138.75V144H86.3366V135.273H87.6321V136.636H87.7457C87.9503 136.193 88.2609 135.837 88.6776 135.568C89.0942 135.295 89.6321 135.159 90.2912 135.159C90.8821 135.159 91.3991 135.28 91.8423 135.523C92.2855 135.761 92.6302 136.125 92.8764 136.614C93.1226 137.098 93.2457 137.712 93.2457 138.455V144H91.9048V138.545C91.9048 137.86 91.7268 137.326 91.3707 136.943C91.0147 136.557 90.526 136.364 89.9048 136.364C89.4768 136.364 89.0942 136.456 88.7571 136.642C88.4238 136.828 88.1605 137.098 87.9673 137.455C87.7741 137.811 87.6776 138.242 87.6776 138.75ZM99.2188 147.455C98.571 147.455 98.0142 147.371 97.5483 147.205C97.0824 147.042 96.6941 146.826 96.3835 146.557C96.0767 146.292 95.8324 146.008 95.6506 145.705L96.7188 144.955C96.84 145.114 96.9934 145.295 97.179 145.5C97.3646 145.708 97.6184 145.888 97.9403 146.04C98.2661 146.195 98.6922 146.273 99.2188 146.273C99.9233 146.273 100.505 146.102 100.963 145.761C101.421 145.42 101.651 144.886 101.651 144.159V142.386H101.537C101.438 142.545 101.298 142.742 101.116 142.977C100.938 143.208 100.681 143.415 100.344 143.597C100.01 143.775 99.5597 143.864 98.9915 143.864C98.2869 143.864 97.6544 143.697 97.0938 143.364C96.5369 143.03 96.0956 142.545 95.7699 141.909C95.4479 141.273 95.2869 140.5 95.2869 139.591C95.2869 138.697 95.4441 137.919 95.7585 137.256C96.0729 136.589 96.5104 136.074 97.071 135.71C97.6316 135.343 98.2794 135.159 99.0142 135.159C99.5824 135.159 100.033 135.254 100.366 135.443C100.704 135.629 100.961 135.841 101.139 136.08C101.321 136.314 101.461 136.508 101.56 136.659H101.696V135.273H102.991V144.25C102.991 145 102.821 145.61 102.48 146.08C102.143 146.553 101.688 146.9 101.116 147.119C100.548 147.343 99.9157 147.455 99.2188 147.455ZM99.1733 142.659C99.7112 142.659 100.166 142.536 100.537 142.29C100.908 142.044 101.19 141.689 101.384 141.227C101.577 140.765 101.673 140.212 101.673 139.568C101.673 138.939 101.579 138.384 101.389 137.903C101.2 137.422 100.92 137.045 100.548 136.773C100.177 136.5 99.7188 136.364 99.1733 136.364C98.6051 136.364 98.1316 136.508 97.7528 136.795C97.3778 137.083 97.0956 137.47 96.9062 137.955C96.7206 138.439 96.6278 138.977 96.6278 139.568C96.6278 140.174 96.7225 140.71 96.9119 141.176C97.1051 141.638 97.3892 142.002 97.7642 142.267C98.143 142.528 98.6127 142.659 99.1733 142.659ZM112.514 144.205C111.961 144.205 111.459 144.1 111.009 143.892C110.558 143.68 110.2 143.375 109.935 142.977C109.67 142.576 109.537 142.091 109.537 141.523C109.537 141.023 109.635 140.617 109.832 140.307C110.029 139.992 110.293 139.746 110.622 139.568C110.952 139.39 111.315 139.258 111.713 139.17C112.115 139.08 112.518 139.008 112.923 138.955C113.454 138.886 113.884 138.835 114.213 138.801C114.546 138.763 114.789 138.701 114.94 138.614C115.096 138.527 115.173 138.375 115.173 138.159V138.114C115.173 137.553 115.02 137.117 114.713 136.807C114.41 136.496 113.95 136.341 113.332 136.341C112.692 136.341 112.19 136.481 111.827 136.761C111.463 137.042 111.207 137.341 111.06 137.659L109.787 137.205C110.014 136.674 110.317 136.261 110.696 135.966C111.079 135.667 111.495 135.458 111.946 135.341C112.401 135.22 112.848 135.159 113.287 135.159C113.567 135.159 113.889 135.193 114.253 135.261C114.62 135.326 114.974 135.46 115.315 135.665C115.66 135.869 115.946 136.178 116.173 136.591C116.401 137.004 116.514 137.557 116.514 138.25V144H115.173V142.818H115.105C115.014 143.008 114.863 143.21 114.651 143.426C114.438 143.642 114.156 143.826 113.804 143.977C113.452 144.129 113.022 144.205 112.514 144.205ZM112.719 143C113.249 143 113.696 142.896 114.06 142.688C114.427 142.479 114.704 142.21 114.889 141.881C115.079 141.551 115.173 141.205 115.173 140.841V139.614C115.116 139.682 114.991 139.744 114.798 139.801C114.609 139.854 114.389 139.902 114.139 139.943C113.893 139.981 113.652 140.015 113.418 140.045C113.187 140.072 112.999 140.095 112.855 140.114C112.507 140.159 112.181 140.233 111.878 140.335C111.579 140.434 111.336 140.583 111.151 140.784C110.969 140.981 110.878 141.25 110.878 141.591C110.878 142.057 111.05 142.409 111.395 142.648C111.743 142.883 112.185 143 112.719 143ZM119.143 144V132.364H120.484V136.659H120.598C120.696 136.508 120.833 136.314 121.007 136.08C121.185 135.841 121.439 135.629 121.768 135.443C122.102 135.254 122.553 135.159 123.121 135.159C123.856 135.159 124.503 135.343 125.064 135.71C125.625 136.078 126.062 136.598 126.376 137.273C126.691 137.947 126.848 138.742 126.848 139.659C126.848 140.583 126.691 141.384 126.376 142.062C126.062 142.737 125.626 143.259 125.07 143.631C124.513 143.998 123.871 144.182 123.143 144.182C122.583 144.182 122.134 144.089 121.797 143.903C121.46 143.714 121.2 143.5 121.018 143.261C120.837 143.019 120.696 142.818 120.598 142.659H120.439V144H119.143ZM120.462 139.636C120.462 140.295 120.558 140.877 120.751 141.381C120.945 141.881 121.227 142.273 121.598 142.557C121.969 142.837 122.424 142.977 122.962 142.977C123.522 142.977 123.99 142.83 124.365 142.534C124.744 142.235 125.028 141.833 125.217 141.33C125.411 140.822 125.507 140.258 125.507 139.636C125.507 139.023 125.412 138.47 125.223 137.977C125.037 137.481 124.755 137.089 124.376 136.801C124.001 136.509 123.53 136.364 122.962 136.364C122.416 136.364 121.958 136.502 121.587 136.778C121.215 137.051 120.935 137.434 120.746 137.926C120.556 138.415 120.462 138.985 120.462 139.636ZM132.445 144.182C131.657 144.182 130.965 143.994 130.371 143.619C129.78 143.244 129.318 142.72 128.984 142.045C128.655 141.371 128.49 140.583 128.49 139.682C128.49 138.773 128.655 137.979 128.984 137.301C129.318 136.623 129.78 136.097 130.371 135.722C130.965 135.347 131.657 135.159 132.445 135.159C133.232 135.159 133.922 135.347 134.513 135.722C135.107 136.097 135.57 136.623 135.899 137.301C136.232 137.979 136.399 138.773 136.399 139.682C136.399 140.583 136.232 141.371 135.899 142.045C135.57 142.72 135.107 143.244 134.513 143.619C133.922 143.994 133.232 144.182 132.445 144.182ZM132.445 142.977C133.043 142.977 133.536 142.824 133.922 142.517C134.308 142.21 134.594 141.807 134.78 141.307C134.965 140.807 135.058 140.265 135.058 139.682C135.058 139.098 134.965 138.555 134.78 138.051C134.594 137.547 134.308 137.14 133.922 136.83C133.536 136.519 133.043 136.364 132.445 136.364C131.846 136.364 131.354 136.519 130.967 136.83C130.581 137.14 130.295 137.547 130.109 138.051C129.924 138.555 129.831 139.098 129.831 139.682C129.831 140.265 129.924 140.807 130.109 141.307C130.295 141.807 130.581 142.21 130.967 142.517C131.354 142.824 131.846 142.977 132.445 142.977ZM143.946 140.432V135.273H145.287V144H143.946V142.523H143.855C143.651 142.966 143.332 143.343 142.901 143.653C142.469 143.96 141.923 144.114 141.264 144.114C140.719 144.114 140.234 143.994 139.81 143.756C139.385 143.513 139.052 143.15 138.81 142.665C138.567 142.176 138.446 141.561 138.446 140.818V135.273H139.787V140.727C139.787 141.364 139.965 141.871 140.321 142.25C140.681 142.629 141.139 142.818 141.696 142.818C142.029 142.818 142.368 142.733 142.713 142.562C143.062 142.392 143.353 142.131 143.588 141.778C143.827 141.426 143.946 140.977 143.946 140.432ZM151.538 135.273V136.409H147.016V135.273H151.538ZM148.334 133.182H149.675V141.5C149.675 141.879 149.73 142.163 149.839 142.352C149.953 142.538 150.097 142.663 150.271 142.727C150.449 142.788 150.637 142.818 150.834 142.818C150.982 142.818 151.103 142.811 151.197 142.795C151.292 142.777 151.368 142.761 151.425 142.75L151.697 143.955C151.607 143.989 151.48 144.023 151.317 144.057C151.154 144.095 150.947 144.114 150.697 144.114C150.319 144.114 149.947 144.032 149.584 143.869C149.224 143.706 148.925 143.458 148.686 143.125C148.451 142.792 148.334 142.371 148.334 141.864V133.182ZM158.919 147.273C158.692 147.273 158.489 147.254 158.311 147.216C158.133 147.182 158.01 147.148 157.942 147.114L158.283 145.932C158.608 146.015 158.896 146.045 159.146 146.023C159.396 146 159.618 145.888 159.811 145.688C160.008 145.491 160.188 145.17 160.351 144.727L160.601 144.045L157.374 135.273H158.828L161.237 142.227H161.328L163.737 135.273H165.192L161.487 145.273C161.321 145.723 161.114 146.097 160.868 146.392C160.622 146.691 160.336 146.913 160.01 147.057C159.688 147.201 159.324 147.273 158.919 147.273ZM170.195 144.182C169.407 144.182 168.715 143.994 168.121 143.619C167.53 143.244 167.068 142.72 166.734 142.045C166.405 141.371 166.24 140.583 166.24 139.682C166.24 138.773 166.405 137.979 166.734 137.301C167.068 136.623 167.53 136.097 168.121 135.722C168.715 135.347 169.407 135.159 170.195 135.159C170.982 135.159 171.672 135.347 172.263 135.722C172.857 136.097 173.32 136.623 173.649 137.301C173.982 137.979 174.149 138.773 174.149 139.682C174.149 140.583 173.982 141.371 173.649 142.045C173.32 142.72 172.857 143.244 172.263 143.619C171.672 143.994 170.982 144.182 170.195 144.182ZM170.195 142.977C170.793 142.977 171.286 142.824 171.672 142.517C172.058 142.21 172.344 141.807 172.53 141.307C172.715 140.807 172.808 140.265 172.808 139.682C172.808 139.098 172.715 138.555 172.53 138.051C172.344 137.547 172.058 137.14 171.672 136.83C171.286 136.519 170.793 136.364 170.195 136.364C169.596 136.364 169.104 136.519 168.717 136.83C168.331 137.14 168.045 137.547 167.859 138.051C167.674 138.555 167.581 139.098 167.581 139.682C167.581 140.265 167.674 140.807 167.859 141.307C168.045 141.807 168.331 142.21 168.717 142.517C169.104 142.824 169.596 142.977 170.195 142.977ZM181.696 140.432V135.273H183.037V144H181.696V142.523H181.605C181.401 142.966 181.082 143.343 180.651 143.653C180.219 143.96 179.673 144.114 179.014 144.114C178.469 144.114 177.984 143.994 177.56 143.756C177.135 143.513 176.802 143.15 176.56 142.665C176.317 142.176 176.196 141.561 176.196 140.818V135.273H177.537V140.727C177.537 141.364 177.715 141.871 178.071 142.25C178.431 142.629 178.889 142.818 179.446 142.818C179.779 142.818 180.118 142.733 180.463 142.562C180.812 142.392 181.103 142.131 181.338 141.778C181.577 141.426 181.696 140.977 181.696 140.432ZM186.47 144.091C186.19 144.091 185.949 143.991 185.749 143.79C185.548 143.589 185.447 143.348 185.447 143.068C185.447 142.788 185.548 142.547 185.749 142.347C185.949 142.146 186.19 142.045 186.47 142.045C186.75 142.045 186.991 142.146 187.192 142.347C187.393 142.547 187.493 142.788 187.493 143.068C187.493 143.254 187.446 143.424 187.351 143.58C187.26 143.735 187.137 143.86 186.982 143.955C186.83 144.045 186.66 144.091 186.47 144.091ZM190.175 132.364V133.386C190.175 133.697 190.118 134.028 190.004 134.381C189.894 134.729 189.732 135.068 189.516 135.398C189.304 135.723 189.046 136.008 188.743 136.25L188.016 135.659C188.254 135.318 188.461 134.964 188.635 134.597C188.813 134.225 188.902 133.83 188.902 133.409V132.364H190.175ZM193.084 132.364V133.386C193.084 133.697 193.027 134.028 192.913 134.381C192.804 134.729 192.641 135.068 192.425 135.398C192.213 135.723 191.955 136.008 191.652 136.25L190.925 135.659C191.163 135.318 191.37 134.964 191.544 134.597C191.722 134.225 191.811 133.83 191.811 133.409V132.364H193.084ZM198.359 145.12H214.359V129.12H198.359V145.12Z" fill="#6C6C6C"/>
<rect x="44" y="164" width="372" height="255" rx="8" fill="url(#paint3_linear_21_5644)"/>
</g>
</g>
<defs>
<filter id="filter0_d_21_5644" x="22" y="26" width="416" height="459" filterUnits="userSpaceOnUse" color-interpolation-filters="sRGB">
<feFlood flood-opacity="0" result="BackgroundImageFix"/>
<feColorMatrix in="SourceAlpha" type="matrix" values="0 0 0 0 0 0 0 0 0 0 0 0 0 0 0 0 0 0 127 0" result="hardAlpha"/>
<feOffset dy="4"/>
<feGaussianBlur stdDeviation="4"/>
<feComposite in2="hardAlpha" operator="out"/>
<feColorMatrix type="matrix" values="0 0 0 0 0 0 0 0 0 0 0 0 0 0 0 0 0 0 0.2 0"/>
<feBlend mode="normal" in2="BackgroundImageFix" result="effect1_dropShadow_21_5644"/>
<feBlend mode="normal" in="SourceGraphic" in2="effect1_dropShadow_21_5644" result="shape"/>
</filter>
<linearGradient id="paint0_linear_21_5644" x1="78.0862" y1="1070.51" x2="547.661" y2="1019.68" gradientUnits="userSpaceOnUse">
<stop stop-color="#178C91"/>
<stop offset="0.230769" stop-color="#178C91"/>
<stop offset="0.307692" stop-color="#98E7EA"/>
<stop offset="0.389423" stop-color="#178C91"/>
<stop offset="0.567308" stop-color="#178C91"/>
<stop offset="0.6875" stop-color="#178C91"/>
<stop offset="0.774038" stop-color="#98E7EA"/>
<stop offset="0.836538" stop-color="#178C91"/>
<stop offset="1" stop-color="#178C91"/>
</linearGradient>
<linearGradient id="paint1_linear_21_5644" x1="257.862" y1="66.5" x2="83.1538" y2="66.5" gradientUnits="userSpaceOnUse">
<stop stop-color="white"/>
<stop offset="0.35" stop-color="#CFE4E5"/>
<stop offset="1" stop-color="#0D777C"/>
</linearGradient>
<linearGradient id="paint2_linear_21_5644" x1="179.354" y1="80.5" x2="89.3846" y2="80.5" gradientUnits="userSpaceOnUse">
<stop stop-color="white"/>
<stop offset="0.35" stop-color="#CFE4E5"/>
<stop offset="1" stop-color="#0D777C"/>
</linearGradient>
<linearGradient id="paint3_linear_21_5644" x1="214" y1="108.5" x2="214" y2="551" gradientUnits="userSpaceOnUse">
<stop stop-color="white"/>
<stop offset="1" stop-color="#DADADA"/>
</linearGradient>
<clipPath id="clip0_21_5644">
<rect x="16" y="16" width="428" height="397" rx="16" fill="white"/>
</clipPath>
</defs>
</svg>
