<svg width="460" height="429" viewBox="0 0 460 429" fill="none" xmlns="http://www.w3.org/2000/svg">
<path d="M0 20C0 8.95432 8.95431 0 20 0H440C451.046 0 460 8.95431 460 20V409C460 420.046 451.046 429 440 429H20C8.9543 429 0 420.046 0 409V20Z" fill="#F4F4F4"/>
<rect x="16" y="16" width="428" height="397" rx="16" fill="white"/>
<rect x="34" y="36" width="131" height="44" rx="8" fill="#E5EFEF" fill-opacity="0.5"/>
<path d="M54.7372 64V52.3636H58.669C59.5819 52.3636 60.3281 52.5284 60.9077 52.858C61.491 53.1837 61.9228 53.625 62.2031 54.1818C62.4834 54.7386 62.6236 55.3598 62.6236 56.0455C62.6236 56.7311 62.4834 57.3542 62.2031 57.9148C61.9266 58.4754 61.4986 58.9223 60.919 59.2557C60.3395 59.5852 59.5971 59.75 58.6918 59.75H55.8736V58.5H58.6463C59.2713 58.5 59.7732 58.392 60.152 58.1761C60.5308 57.9602 60.8054 57.6686 60.9759 57.3011C61.1501 56.9299 61.2372 56.5114 61.2372 56.0455C61.2372 55.5795 61.1501 55.1629 60.9759 54.7955C60.8054 54.428 60.5289 54.1402 60.1463 53.9318C59.7637 53.7197 59.2562 53.6136 58.6236 53.6136H56.1463V64H54.7372ZM64.7116 64V55.2727H66.0071V56.5909H66.098C66.2571 56.1591 66.545 55.8087 66.9616 55.5398C67.3783 55.2708 67.848 55.1364 68.3707 55.1364C68.4692 55.1364 68.5923 55.1383 68.7401 55.142C68.8878 55.1458 68.9995 55.1515 69.0753 55.1591V56.5227C69.0298 56.5114 68.9257 56.4943 68.7628 56.4716C68.6037 56.4451 68.4351 56.4318 68.2571 56.4318C67.8329 56.4318 67.4541 56.5208 67.1207 56.6989C66.7912 56.8731 66.5298 57.1155 66.3366 57.4261C66.1473 57.733 66.0526 58.0833 66.0526 58.4773V64H64.7116ZM73.9446 64.1818C73.1567 64.1818 72.4654 63.9943 71.8707 63.6193C71.2798 63.2443 70.8177 62.7197 70.4844 62.0455C70.1548 61.3712 69.9901 60.5833 69.9901 59.6818C69.9901 58.7727 70.1548 57.9792 70.4844 57.3011C70.8177 56.6231 71.2798 56.0966 71.8707 55.7216C72.4654 55.3466 73.1567 55.1591 73.9446 55.1591C74.7325 55.1591 75.4219 55.3466 76.0128 55.7216C76.6075 56.0966 77.0696 56.6231 77.3991 57.3011C77.7325 57.9792 77.8991 58.7727 77.8991 59.6818C77.8991 60.5833 77.7325 61.3712 77.3991 62.0455C77.0696 62.7197 76.6075 63.2443 76.0128 63.6193C75.4219 63.9943 74.7325 64.1818 73.9446 64.1818ZM73.9446 62.9773C74.5431 62.9773 75.0355 62.8239 75.4219 62.517C75.8082 62.2102 76.0942 61.8068 76.2798 61.3068C76.4654 60.8068 76.5582 60.2652 76.5582 59.6818C76.5582 59.0985 76.4654 58.5549 76.2798 58.0511C76.0942 57.5473 75.8082 57.1402 75.4219 56.8295C75.0355 56.5189 74.5431 56.3636 73.9446 56.3636C73.3461 56.3636 72.8537 56.5189 72.4673 56.8295C72.081 57.1402 71.795 57.5473 71.6094 58.0511C71.4238 58.5549 71.331 59.0985 71.331 59.6818C71.331 60.2652 71.4238 60.8068 71.6094 61.3068C71.795 61.8068 72.081 62.2102 72.4673 62.517C72.8537 62.8239 73.3461 62.9773 73.9446 62.9773ZM83.8324 55.2727V56.4091H79.1278V55.2727H83.8324ZM80.5369 64V54.0682C80.5369 53.5682 80.6544 53.1515 80.8892 52.8182C81.1241 52.4848 81.429 52.2348 81.804 52.0682C82.179 51.9015 82.5748 51.8182 82.9915 51.8182C83.321 51.8182 83.59 51.8447 83.7983 51.8977C84.0066 51.9508 84.1619 52 84.2642 52.0455L83.8778 53.2045C83.8097 53.1818 83.715 53.1534 83.5938 53.1193C83.4763 53.0852 83.321 53.0682 83.1278 53.0682C82.6847 53.0682 82.3646 53.1799 82.1676 53.4034C81.9744 53.6269 81.8778 53.9545 81.8778 54.3864V64H80.5369ZM89.0114 64.1818C88.1705 64.1818 87.4451 63.9962 86.8352 63.625C86.2292 63.25 85.7614 62.7273 85.4318 62.0568C85.1061 61.3826 84.9432 60.5985 84.9432 59.7045C84.9432 58.8106 85.1061 58.0227 85.4318 57.3409C85.7614 56.6553 86.2197 56.1212 86.8068 55.7386C87.3977 55.3523 88.0871 55.1591 88.875 55.1591C89.3295 55.1591 89.7784 55.2348 90.2216 55.3864C90.6648 55.5379 91.0682 55.7841 91.4318 56.125C91.7955 56.4621 92.0852 56.9091 92.3011 57.4659C92.517 58.0227 92.625 58.7083 92.625 59.5227V60.0909H85.8977V58.9318H91.2614C91.2614 58.4394 91.1629 58 90.9659 57.6136C90.7727 57.2273 90.4962 56.9223 90.1364 56.6989C89.7803 56.4754 89.3598 56.3636 88.875 56.3636C88.3409 56.3636 87.8788 56.4962 87.4886 56.7614C87.1023 57.0227 86.8049 57.3636 86.5966 57.7841C86.3883 58.2045 86.2841 58.6553 86.2841 59.1364V59.9091C86.2841 60.5682 86.3977 61.1269 86.625 61.5852C86.8561 62.0398 87.1761 62.3864 87.5852 62.625C87.9943 62.8598 88.4697 62.9773 89.0114 62.9773C89.3636 62.9773 89.6818 62.928 89.9659 62.8295C90.2538 62.7273 90.5019 62.5758 90.7102 62.375C90.9186 62.1705 91.0795 61.9167 91.1932 61.6136L92.4886 61.9773C92.3523 62.4167 92.1231 62.803 91.8011 63.1364C91.4792 63.4659 91.0814 63.7235 90.608 63.9091C90.1345 64.0909 89.6023 64.1818 89.0114 64.1818ZM100.847 57.2273L99.642 57.5682C99.5663 57.3674 99.4545 57.1723 99.3068 56.983C99.1629 56.7898 98.9659 56.6307 98.7159 56.5057C98.4659 56.3807 98.1458 56.3182 97.7557 56.3182C97.2216 56.3182 96.7765 56.4413 96.4205 56.6875C96.0682 56.9299 95.892 57.2386 95.892 57.6136C95.892 57.947 96.0133 58.2102 96.2557 58.4034C96.4981 58.5966 96.8769 58.7576 97.392 58.8864L98.6875 59.2045C99.4678 59.3939 100.049 59.6837 100.432 60.0739C100.814 60.4602 101.006 60.9583 101.006 61.5682C101.006 62.0682 100.862 62.5152 100.574 62.9091C100.29 63.303 99.892 63.6136 99.3807 63.8409C98.8693 64.0682 98.2746 64.1818 97.5966 64.1818C96.7064 64.1818 95.9697 63.9886 95.3864 63.6023C94.803 63.2159 94.4337 62.6515 94.2784 61.9091L95.5511 61.5909C95.6723 62.0606 95.9015 62.4129 96.2386 62.6477C96.5795 62.8826 97.0246 63 97.5739 63C98.1989 63 98.6951 62.8674 99.0625 62.6023C99.4337 62.3333 99.6193 62.0114 99.6193 61.6364C99.6193 61.3333 99.5133 61.0795 99.3011 60.875C99.089 60.6667 98.7633 60.5114 98.3239 60.4091L96.8693 60.0682C96.0701 59.8788 95.483 59.5852 95.108 59.1875C94.7367 58.786 94.5511 58.2841 94.5511 57.6818C94.5511 57.1894 94.6894 56.7538 94.9659 56.375C95.2462 55.9962 95.6269 55.6989 96.108 55.483C96.5928 55.267 97.142 55.1591 97.7557 55.1591C98.6193 55.1591 99.2973 55.3485 99.7898 55.7273C100.286 56.1061 100.638 56.6061 100.847 57.2273ZM109.206 57.2273L108.001 57.5682C107.926 57.3674 107.814 57.1723 107.666 56.983C107.522 56.7898 107.325 56.6307 107.075 56.5057C106.825 56.3807 106.505 56.3182 106.115 56.3182C105.581 56.3182 105.136 56.4413 104.78 56.6875C104.428 56.9299 104.251 57.2386 104.251 57.6136C104.251 57.947 104.373 58.2102 104.615 58.4034C104.857 58.5966 105.236 58.7576 105.751 58.8864L107.047 59.2045C107.827 59.3939 108.409 59.6837 108.791 60.0739C109.174 60.4602 109.365 60.9583 109.365 61.5682C109.365 62.0682 109.221 62.5152 108.933 62.9091C108.649 63.303 108.251 63.6136 107.74 63.8409C107.229 64.0682 106.634 64.1818 105.956 64.1818C105.066 64.1818 104.329 63.9886 103.746 63.6023C103.162 63.2159 102.793 62.6515 102.638 61.9091L103.911 61.5909C104.032 62.0606 104.261 62.4129 104.598 62.6477C104.939 62.8826 105.384 63 105.933 63C106.558 63 107.054 62.8674 107.422 62.6023C107.793 62.3333 107.979 62.0114 107.979 61.6364C107.979 61.3333 107.873 61.0795 107.661 60.875C107.448 60.6667 107.123 60.5114 106.683 60.4091L105.229 60.0682C104.429 59.8788 103.842 59.5852 103.467 59.1875C103.096 58.786 102.911 58.2841 102.911 57.6818C102.911 57.1894 103.049 56.7538 103.325 56.375C103.606 55.9962 103.986 55.6989 104.467 55.483C104.952 55.267 105.501 55.1591 106.115 55.1591C106.979 55.1591 107.657 55.3485 108.149 55.7273C108.645 56.1061 108.998 56.6061 109.206 57.2273ZM111.384 64V55.2727H112.724V64H111.384ZM112.065 53.8182C111.804 53.8182 111.579 53.7292 111.389 53.5511C111.204 53.3731 111.111 53.1591 111.111 52.9091C111.111 52.6591 111.204 52.4451 111.389 52.267C111.579 52.089 111.804 52 112.065 52C112.327 52 112.55 52.089 112.736 52.267C112.925 52.4451 113.02 52.6591 113.02 52.9091C113.02 53.1591 112.925 53.3731 112.736 53.5511C112.55 53.7292 112.327 53.8182 112.065 53.8182ZM118.726 64.1818C117.938 64.1818 117.247 63.9943 116.652 63.6193C116.061 63.2443 115.599 62.7197 115.266 62.0455C114.936 61.3712 114.771 60.5833 114.771 59.6818C114.771 58.7727 114.936 57.9792 115.266 57.3011C115.599 56.6231 116.061 56.0966 116.652 55.7216C117.247 55.3466 117.938 55.1591 118.726 55.1591C119.514 55.1591 120.203 55.3466 120.794 55.7216C121.389 56.0966 121.851 56.6231 122.18 57.3011C122.514 57.9792 122.68 58.7727 122.68 59.6818C122.68 60.5833 122.514 61.3712 122.18 62.0455C121.851 62.7197 121.389 63.2443 120.794 63.6193C120.203 63.9943 119.514 64.1818 118.726 64.1818ZM118.726 62.9773C119.324 62.9773 119.817 62.8239 120.203 62.517C120.589 62.2102 120.875 61.8068 121.061 61.3068C121.247 60.8068 121.339 60.2652 121.339 59.6818C121.339 59.0985 121.247 58.5549 121.061 58.0511C120.875 57.5473 120.589 57.1402 120.203 56.8295C119.817 56.5189 119.324 56.3636 118.726 56.3636C118.127 56.3636 117.635 56.5189 117.249 56.8295C116.862 57.1402 116.576 57.5473 116.391 58.0511C116.205 58.5549 116.112 59.0985 116.112 59.6818C116.112 60.2652 116.205 60.8068 116.391 61.3068C116.576 61.8068 116.862 62.2102 117.249 62.517C117.635 62.8239 118.127 62.9773 118.726 62.9773ZM126.068 58.75V64H124.727V55.2727H126.023V56.6364H126.136C126.341 56.1932 126.652 55.8371 127.068 55.5682C127.485 55.2955 128.023 55.1591 128.682 55.1591C129.273 55.1591 129.79 55.2803 130.233 55.5227C130.676 55.7614 131.021 56.125 131.267 56.6136C131.513 57.0985 131.636 57.7121 131.636 58.4545V64H130.295V58.5455C130.295 57.8598 130.117 57.3258 129.761 56.9432C129.405 56.5568 128.917 56.3636 128.295 56.3636C127.867 56.3636 127.485 56.4564 127.148 56.642C126.814 56.8277 126.551 57.0985 126.358 57.4545C126.165 57.8106 126.068 58.2424 126.068 58.75ZM136.655 64.2045C136.102 64.2045 135.6 64.1004 135.149 63.892C134.698 63.6799 134.34 63.375 134.075 62.9773C133.81 62.5758 133.678 62.0909 133.678 61.5227C133.678 61.0227 133.776 60.6174 133.973 60.3068C134.17 59.9924 134.433 59.7462 134.763 59.5682C135.092 59.3902 135.456 59.2576 135.854 59.1705C136.255 59.0795 136.659 59.0076 137.064 58.9545C137.594 58.8864 138.024 58.8352 138.354 58.8011C138.687 58.7633 138.929 58.7008 139.081 58.6136C139.236 58.5265 139.314 58.375 139.314 58.1591V58.1136C139.314 57.553 139.161 57.1174 138.854 56.8068C138.551 56.4962 138.09 56.3409 137.473 56.3409C136.833 56.3409 136.331 56.4811 135.967 56.7614C135.604 57.0417 135.348 57.3409 135.2 57.6591L133.928 57.2045C134.155 56.6742 134.458 56.2614 134.837 55.9659C135.219 55.6667 135.636 55.4583 136.087 55.3409C136.541 55.2197 136.988 55.1591 137.428 55.1591C137.708 55.1591 138.03 55.1932 138.393 55.2614C138.761 55.3258 139.115 55.4602 139.456 55.6648C139.801 55.8693 140.087 56.178 140.314 56.5909C140.541 57.0038 140.655 57.5568 140.655 58.25V64H139.314V62.8182H139.246C139.155 63.0076 139.003 63.2102 138.791 63.4261C138.579 63.642 138.297 63.8258 137.945 63.9773C137.592 64.1288 137.162 64.2045 136.655 64.2045ZM136.859 63C137.39 63 137.837 62.8958 138.2 62.6875C138.568 62.4792 138.844 62.2102 139.03 61.8807C139.219 61.5511 139.314 61.2045 139.314 60.8409V59.6136C139.257 59.6818 139.132 59.7443 138.939 59.8011C138.75 59.8542 138.53 59.9015 138.28 59.9432C138.034 59.9811 137.793 60.0152 137.558 60.0455C137.327 60.072 137.14 60.0947 136.996 60.1136C136.647 60.1591 136.321 60.233 136.018 60.3352C135.719 60.4337 135.477 60.5833 135.291 60.7841C135.109 60.9811 135.018 61.25 135.018 61.5909C135.018 62.0568 135.191 62.4091 135.536 62.6477C135.884 62.8826 136.325 63 136.859 63ZM144.443 52.3636V64H143.102V52.3636H144.443Z" fill="#07191A"/>
<rect x="179" y="36" width="170" height="44" rx="8" fill="#E5EFEF" fill-opacity="0.5"/>
<rect x="179" y="36" width="170" height="44" rx="8" stroke="#178C91" stroke-width="0.8"/>
<path d="M219.64 49.64L218.36 48.36C218.247 48.2464 218.114 48.1561 217.966 48.0945C217.818 48.0329 217.66 48.0012 217.5 48.0012C217.34 48.0012 217.182 48.0329 217.034 48.0945C216.886 48.1561 216.753 48.2464 216.64 48.36L200.36 64.64C200.246 64.7526 200.156 64.8865 200.094 65.0341C200.033 65.1817 200.001 65.3401 200.001 65.5C200.001 65.66 200.033 65.8184 200.094 65.966C200.156 66.1136 200.246 66.2475 200.36 66.36L201.64 67.64C201.752 67.755 201.886 67.8463 202.033 67.9087C202.181 67.971 202.34 68.0031 202.5 68.0031C202.66 68.0031 202.819 67.971 202.967 67.9087C203.114 67.8463 203.248 67.755 203.36 67.64L219.64 51.36C219.755 51.2482 219.846 51.1145 219.909 50.9668C219.971 50.8191 220.003 50.6604 220.003 50.5C220.003 50.3397 219.971 50.181 219.909 50.0333C219.846 49.8856 219.755 49.7519 219.64 49.64Z" stroke="#178C91" stroke-width="1.5" stroke-linecap="round" stroke-linejoin="round"/>
<path d="M212 53L215 56" stroke="#178C91" stroke-width="1.5" stroke-linecap="round" stroke-linejoin="round"/>
<path d="M203 52V56" stroke="#178C91" stroke-width="1.5" stroke-linecap="round" stroke-linejoin="round"/>
<path d="M217 60V64" stroke="#178C91" stroke-width="1.5" stroke-linecap="round" stroke-linejoin="round"/>
<path d="M208 48V50" stroke="#178C91" stroke-width="1.5" stroke-linecap="round" stroke-linejoin="round"/>
<path d="M205 54H201" stroke="#178C91" stroke-width="1.5" stroke-linecap="round" stroke-linejoin="round"/>
<path d="M219 62H215" stroke="#178C91" stroke-width="1.5" stroke-linecap="round" stroke-linejoin="round"/>
<path d="M209 49H207" stroke="#178C91" stroke-width="1.5" stroke-linecap="round" stroke-linejoin="round"/>
<path d="M228.409 64V52.3636H232.341C233.254 52.3636 234 52.5284 234.58 52.858C235.163 53.1837 235.595 53.625 235.875 54.1818C236.155 54.7386 236.295 55.3598 236.295 56.0455C236.295 56.7311 236.155 57.3542 235.875 57.9148C235.598 58.4754 235.17 58.9223 234.591 59.2557C234.011 59.5852 233.269 59.75 232.364 59.75H229.545V58.5H232.318C232.943 58.5 233.445 58.392 233.824 58.1761C234.203 57.9602 234.477 57.6686 234.648 57.3011C234.822 56.9299 234.909 56.5114 234.909 56.0455C234.909 55.5795 234.822 55.1629 234.648 54.7955C234.477 54.428 234.201 54.1402 233.818 53.9318C233.436 53.7197 232.928 53.6136 232.295 53.6136H229.818V64H228.409ZM238.384 64V55.2727H239.724V64H238.384ZM239.065 53.8182C238.804 53.8182 238.579 53.7292 238.389 53.5511C238.204 53.3731 238.111 53.1591 238.111 52.9091C238.111 52.6591 238.204 52.4451 238.389 52.267C238.579 52.089 238.804 52 239.065 52C239.327 52 239.55 52.089 239.736 52.267C239.925 52.4451 240.02 52.6591 240.02 52.9091C240.02 53.1591 239.925 53.3731 239.736 53.5511C239.55 53.7292 239.327 53.8182 239.065 53.8182ZM245.976 55.2727V56.4091H241.453V55.2727H245.976ZM242.771 53.1818H244.112V61.5C244.112 61.8788 244.167 62.1629 244.277 62.3523C244.391 62.5379 244.535 62.6629 244.709 62.7273C244.887 62.7879 245.074 62.8182 245.271 62.8182C245.419 62.8182 245.54 62.8106 245.635 62.7955C245.73 62.7765 245.805 62.7614 245.862 62.75L246.135 63.9545C246.044 63.9886 245.917 64.0227 245.754 64.0568C245.591 64.0947 245.385 64.1136 245.135 64.1136C244.756 64.1136 244.385 64.0322 244.021 63.8693C243.661 63.7064 243.362 63.4583 243.124 63.125C242.889 62.7917 242.771 62.3712 242.771 61.8636V53.1818ZM251.445 64.1818C250.626 64.1818 249.922 63.9886 249.331 63.6023C248.74 63.2159 248.286 62.6837 247.967 62.0057C247.649 61.3277 247.49 60.553 247.49 59.6818C247.49 58.7955 247.653 58.0133 247.979 57.3352C248.308 56.6534 248.767 56.1212 249.354 55.7386C249.945 55.3523 250.634 55.1591 251.422 55.1591C252.036 55.1591 252.589 55.2727 253.081 55.5C253.573 55.7273 253.977 56.0455 254.291 56.4545C254.606 56.8636 254.801 57.3409 254.876 57.8864H253.536C253.433 57.4886 253.206 57.1364 252.854 56.8295C252.505 56.5189 252.036 56.3636 251.445 56.3636C250.922 56.3636 250.464 56.5 250.07 56.7727C249.679 57.0417 249.375 57.4223 249.155 57.9148C248.939 58.4034 248.831 58.9773 248.831 59.6364C248.831 60.3106 248.937 60.8977 249.149 61.3977C249.365 61.8977 249.668 62.286 250.058 62.5625C250.452 62.839 250.914 62.9773 251.445 62.9773C251.793 62.9773 252.109 62.9167 252.393 62.7955C252.678 62.6742 252.918 62.5 253.115 62.2727C253.312 62.0455 253.452 61.7727 253.536 61.4545H254.876C254.801 61.9697 254.613 62.4337 254.314 62.8466C254.018 63.2557 253.626 63.5814 253.138 63.8239C252.653 64.0625 252.089 64.1818 251.445 64.1818ZM258.178 58.75V64H256.837V52.3636H258.178V56.6364H258.291C258.496 56.1856 258.803 55.8277 259.212 55.5625C259.625 55.2936 260.174 55.1591 260.859 55.1591C261.454 55.1591 261.975 55.2784 262.422 55.517C262.869 55.7519 263.215 56.1136 263.462 56.6023C263.712 57.0871 263.837 57.7045 263.837 58.4545V64H262.496V58.5455C262.496 57.8523 262.316 57.3163 261.956 56.9375C261.6 56.5549 261.106 56.3636 260.473 56.3636C260.034 56.3636 259.64 56.4564 259.291 56.642C258.946 56.8277 258.674 57.0985 258.473 57.4545C258.276 57.8106 258.178 58.2424 258.178 58.75ZM270.972 64V52.3636H274.903C275.816 52.3636 276.563 52.5284 277.142 52.858C277.725 53.1837 278.157 53.625 278.438 54.1818C278.718 54.7386 278.858 55.3598 278.858 56.0455C278.858 56.7311 278.718 57.3542 278.438 57.9148C278.161 58.4754 277.733 58.9223 277.153 59.2557C276.574 59.5852 275.831 59.75 274.926 59.75H272.108V58.5H274.881C275.506 58.5 276.008 58.392 276.386 58.1761C276.765 57.9602 277.04 57.6686 277.21 57.3011C277.384 56.9299 277.472 56.5114 277.472 56.0455C277.472 55.5795 277.384 55.1629 277.21 54.7955C277.04 54.428 276.763 54.1402 276.381 53.9318C275.998 53.7197 275.491 53.6136 274.858 53.6136H272.381V64H270.972ZM284.398 64.1818C283.61 64.1818 282.919 63.9943 282.324 63.6193C281.733 63.2443 281.271 62.7197 280.938 62.0455C280.608 61.3712 280.443 60.5833 280.443 59.6818C280.443 58.7727 280.608 57.9792 280.938 57.3011C281.271 56.6231 281.733 56.0966 282.324 55.7216C282.919 55.3466 283.61 55.1591 284.398 55.1591C285.186 55.1591 285.875 55.3466 286.466 55.7216C287.061 56.0966 287.523 56.6231 287.852 57.3011C288.186 57.9792 288.352 58.7727 288.352 59.6818C288.352 60.5833 288.186 61.3712 287.852 62.0455C287.523 62.7197 287.061 63.2443 286.466 63.6193C285.875 63.9943 285.186 64.1818 284.398 64.1818ZM284.398 62.9773C284.996 62.9773 285.489 62.8239 285.875 62.517C286.261 62.2102 286.547 61.8068 286.733 61.3068C286.919 60.8068 287.011 60.2652 287.011 59.6818C287.011 59.0985 286.919 58.5549 286.733 58.0511C286.547 57.5473 286.261 57.1402 285.875 56.8295C285.489 56.5189 284.996 56.3636 284.398 56.3636C283.799 56.3636 283.307 56.5189 282.92 56.8295C282.534 57.1402 282.248 57.5473 282.062 58.0511C281.877 58.5549 281.784 59.0985 281.784 59.6818C281.784 60.2652 281.877 60.8068 282.062 61.3068C282.248 61.8068 282.534 62.2102 282.92 62.517C283.307 62.8239 283.799 62.9773 284.398 62.9773ZM291.74 52.3636V64H290.399V52.3636H291.74ZM294.196 64V55.2727H295.537V64H294.196ZM294.878 53.8182C294.616 53.8182 294.391 53.7292 294.202 53.5511C294.016 53.3731 293.923 53.1591 293.923 52.9091C293.923 52.6591 294.016 52.4451 294.202 52.267C294.391 52.089 294.616 52 294.878 52C295.139 52 295.363 52.089 295.548 52.267C295.738 52.4451 295.832 52.6591 295.832 52.9091C295.832 53.1591 295.738 53.3731 295.548 53.5511C295.363 53.7292 295.139 53.8182 294.878 53.8182ZM304.175 57.2273L302.97 57.5682C302.894 57.3674 302.783 57.1723 302.635 56.983C302.491 56.7898 302.294 56.6307 302.044 56.5057C301.794 56.3807 301.474 56.3182 301.084 56.3182C300.55 56.3182 300.105 56.4413 299.749 56.6875C299.396 56.9299 299.22 57.2386 299.22 57.6136C299.22 57.947 299.341 58.2102 299.584 58.4034C299.826 58.5966 300.205 58.7576 300.72 58.8864L302.016 59.2045C302.796 59.3939 303.377 59.6837 303.76 60.0739C304.143 60.4602 304.334 60.9583 304.334 61.5682C304.334 62.0682 304.19 62.5152 303.902 62.9091C303.618 63.303 303.22 63.6136 302.709 63.8409C302.197 64.0682 301.603 64.1818 300.925 64.1818C300.035 64.1818 299.298 63.9886 298.714 63.6023C298.131 63.2159 297.762 62.6515 297.607 61.9091L298.879 61.5909C299 62.0606 299.23 62.4129 299.567 62.6477C299.908 62.8826 300.353 63 300.902 63C301.527 63 302.023 62.8674 302.391 62.6023C302.762 62.3333 302.947 62.0114 302.947 61.6364C302.947 61.3333 302.841 61.0795 302.629 60.875C302.417 60.6667 302.091 60.5114 301.652 60.4091L300.197 60.0682C299.398 59.8788 298.811 59.5852 298.436 59.1875C298.065 58.786 297.879 58.2841 297.879 57.6818C297.879 57.1894 298.018 56.7538 298.294 56.375C298.574 55.9962 298.955 55.6989 299.436 55.483C299.921 55.267 300.47 55.1591 301.084 55.1591C301.947 55.1591 302.625 55.3485 303.118 55.7273C303.614 56.1061 303.966 56.6061 304.175 57.2273ZM307.693 58.75V64H306.352V52.3636H307.693V56.6364H307.807C308.011 56.1856 308.318 55.8277 308.727 55.5625C309.14 55.2936 309.689 55.1591 310.375 55.1591C310.97 55.1591 311.491 55.2784 311.938 55.517C312.384 55.7519 312.731 56.1136 312.977 56.6023C313.227 57.0871 313.352 57.7045 313.352 58.4545V64H312.011V58.5455C312.011 57.8523 311.831 57.3163 311.472 56.9375C311.116 56.5549 310.621 56.3636 309.989 56.3636C309.549 56.3636 309.155 56.4564 308.807 56.642C308.462 56.8277 308.189 57.0985 307.989 57.4545C307.792 57.8106 307.693 58.2424 307.693 58.75ZM319.464 64.1818C318.624 64.1818 317.898 63.9962 317.288 63.625C316.682 63.25 316.214 62.7273 315.885 62.0568C315.559 61.3826 315.396 60.5985 315.396 59.7045C315.396 58.8106 315.559 58.0227 315.885 57.3409C316.214 56.6553 316.673 56.1212 317.26 55.7386C317.851 55.3523 318.54 55.1591 319.328 55.1591C319.783 55.1591 320.232 55.2348 320.675 55.3864C321.118 55.5379 321.521 55.7841 321.885 56.125C322.249 56.4621 322.538 56.9091 322.754 57.4659C322.97 58.0227 323.078 58.7083 323.078 59.5227V60.0909H316.351V58.9318H321.714C321.714 58.4394 321.616 58 321.419 57.6136C321.226 57.2273 320.949 56.9223 320.589 56.6989C320.233 56.4754 319.813 56.3636 319.328 56.3636C318.794 56.3636 318.332 56.4962 317.942 56.7614C317.555 57.0227 317.258 57.3636 317.05 57.7841C316.841 58.2045 316.737 58.6553 316.737 59.1364V59.9091C316.737 60.5682 316.851 61.1269 317.078 61.5852C317.309 62.0398 317.629 62.3864 318.038 62.625C318.447 62.8598 318.923 62.9773 319.464 62.9773C319.817 62.9773 320.135 62.928 320.419 62.8295C320.707 62.7273 320.955 62.5758 321.163 62.375C321.372 62.1705 321.533 61.9167 321.646 61.6136L322.942 61.9773C322.805 62.4167 322.576 62.803 322.254 63.1364C321.932 63.4659 321.535 63.7235 321.061 63.9091C320.588 64.0909 320.055 64.1818 319.464 64.1818ZM325.118 64V55.2727H326.413V56.5909H326.504C326.663 56.1591 326.951 55.8087 327.368 55.5398C327.785 55.2708 328.254 55.1364 328.777 55.1364C328.875 55.1364 328.999 55.1383 329.146 55.142C329.294 55.1458 329.406 55.1515 329.482 55.1591V56.5227C329.436 56.5114 329.332 56.4943 329.169 56.4716C329.01 56.4451 328.841 56.4318 328.663 56.4318C328.239 56.4318 327.86 56.5208 327.527 56.6989C327.197 56.8731 326.936 57.1155 326.743 57.4261C326.554 57.733 326.459 58.0833 326.459 58.4773V64H325.118Z" fill="#178C91"/>
<g filter="url(#filter0_d_21_5610)">
<rect x="32" y="108" width="396" height="289" rx="21" fill="white" fill-opacity="0.81" shape-rendering="crispEdges"/>
<rect x="32" y="108" width="396" height="289" rx="21" stroke="url(#paint0_linear_21_5610)" stroke-width="4" shape-rendering="crispEdges"/>
<path d="M53.5888 146V134.364H57.5206C58.4335 134.364 59.1797 134.528 59.7592 134.858C60.3426 135.184 60.7744 135.625 61.0547 136.182C61.335 136.739 61.4751 137.36 61.4751 138.045C61.4751 138.731 61.335 139.354 61.0547 139.915C60.7782 140.475 60.3501 140.922 59.7706 141.256C59.1911 141.585 58.4486 141.75 57.5433 141.75H54.7251V140.5H57.4979C58.1229 140.5 58.6248 140.392 59.0036 140.176C59.3823 139.96 59.657 139.669 59.8274 139.301C60.0017 138.93 60.0888 138.511 60.0888 138.045C60.0888 137.58 60.0017 137.163 59.8274 136.795C59.657 136.428 59.3804 136.14 58.9979 135.932C58.6153 135.72 58.1077 135.614 57.4751 135.614H54.9979V146H53.5888ZM66.1314 146.205C65.5784 146.205 65.0765 146.1 64.6257 145.892C64.175 145.68 63.817 145.375 63.5518 144.977C63.2867 144.576 63.1541 144.091 63.1541 143.523C63.1541 143.023 63.2526 142.617 63.4496 142.307C63.6465 141.992 63.9098 141.746 64.2393 141.568C64.5689 141.39 64.9325 141.258 65.3303 141.17C65.7318 141.08 66.1352 141.008 66.5405 140.955C67.0708 140.886 67.5007 140.835 67.8303 140.801C68.1636 140.763 68.406 140.701 68.5575 140.614C68.7128 140.527 68.7905 140.375 68.7905 140.159V140.114C68.7905 139.553 68.6371 139.117 68.3303 138.807C68.0272 138.496 67.567 138.341 66.9496 138.341C66.3094 138.341 65.8075 138.481 65.4439 138.761C65.0803 139.042 64.8246 139.341 64.6768 139.659L63.4041 139.205C63.6314 138.674 63.9344 138.261 64.3132 137.966C64.6958 137.667 65.1125 137.458 65.5632 137.341C66.0178 137.22 66.4647 137.159 66.9041 137.159C67.1844 137.159 67.5064 137.193 67.87 137.261C68.2375 137.326 68.5916 137.46 68.9325 137.665C69.2772 137.869 69.5632 138.178 69.7905 138.591C70.0178 139.004 70.1314 139.557 70.1314 140.25V146H68.7905V144.818H68.7223C68.6314 145.008 68.4799 145.21 68.2678 145.426C68.0556 145.642 67.7734 145.826 67.4212 145.977C67.0689 146.129 66.639 146.205 66.1314 146.205ZM66.3359 145C66.8662 145 67.3132 144.896 67.6768 144.688C68.0443 144.479 68.3208 144.21 68.5064 143.881C68.6958 143.551 68.7905 143.205 68.7905 142.841V141.614C68.7337 141.682 68.6087 141.744 68.4155 141.801C68.2261 141.854 68.0064 141.902 67.7564 141.943C67.5102 141.981 67.2696 142.015 67.0348 142.045C66.8037 142.072 66.6162 142.095 66.4723 142.114C66.1238 142.159 65.7981 142.233 65.495 142.335C65.1958 142.434 64.9534 142.583 64.7678 142.784C64.5859 142.981 64.495 143.25 64.495 143.591C64.495 144.057 64.6674 144.409 65.0121 144.648C65.3606 144.883 65.8018 145 66.3359 145ZM78.7607 139.227L77.5561 139.568C77.4804 139.367 77.3686 139.172 77.2209 138.983C77.0769 138.79 76.88 138.631 76.63 138.506C76.38 138.381 76.0599 138.318 75.6697 138.318C75.1357 138.318 74.6906 138.441 74.3345 138.688C73.9822 138.93 73.8061 139.239 73.8061 139.614C73.8061 139.947 73.9273 140.21 74.1697 140.403C74.4122 140.597 74.791 140.758 75.3061 140.886L76.6016 141.205C77.3819 141.394 77.9633 141.684 78.3459 142.074C78.7285 142.46 78.9197 142.958 78.9197 143.568C78.9197 144.068 78.7758 144.515 78.4879 144.909C78.2038 145.303 77.8061 145.614 77.2947 145.841C76.7834 146.068 76.1887 146.182 75.5107 146.182C74.6205 146.182 73.8838 145.989 73.3004 145.602C72.7171 145.216 72.3478 144.652 72.1925 143.909L73.4652 143.591C73.5864 144.061 73.8156 144.413 74.1527 144.648C74.4936 144.883 74.9387 145 75.4879 145C76.1129 145 76.6091 144.867 76.9766 144.602C77.3478 144.333 77.5334 144.011 77.5334 143.636C77.5334 143.333 77.4273 143.08 77.2152 142.875C77.0031 142.667 76.6773 142.511 76.2379 142.409L74.7834 142.068C73.9841 141.879 73.397 141.585 73.022 141.188C72.6508 140.786 72.4652 140.284 72.4652 139.682C72.4652 139.189 72.6035 138.754 72.88 138.375C73.1603 137.996 73.541 137.699 74.022 137.483C74.5069 137.267 75.0561 137.159 75.6697 137.159C76.5334 137.159 77.2114 137.348 77.7038 137.727C78.2 138.106 78.5523 138.606 78.7607 139.227ZM84.7337 137.273V138.409H80.2109V137.273H84.7337ZM81.5291 135.182H82.87V143.5C82.87 143.879 82.925 144.163 83.0348 144.352C83.1484 144.538 83.2924 144.663 83.4666 144.727C83.6446 144.788 83.8321 144.818 84.0291 144.818C84.1768 144.818 84.2981 144.811 84.3928 144.795C84.4875 144.777 84.5632 144.761 84.62 144.75L84.8928 145.955C84.8018 145.989 84.675 146.023 84.5121 146.057C84.3492 146.095 84.1428 146.114 83.8928 146.114C83.514 146.114 83.1428 146.032 82.7791 145.869C82.4193 145.706 82.12 145.458 81.8814 145.125C81.6465 144.792 81.5291 144.371 81.5291 143.864V135.182ZM90.3161 146.182C89.4751 146.182 88.7498 145.996 88.1399 145.625C87.5339 145.25 87.0661 144.727 86.7365 144.057C86.4107 143.383 86.2479 142.598 86.2479 141.705C86.2479 140.811 86.4107 140.023 86.7365 139.341C87.0661 138.655 87.5244 138.121 88.1115 137.739C88.7024 137.352 89.3918 137.159 90.1797 137.159C90.6342 137.159 91.0831 137.235 91.5263 137.386C91.9695 137.538 92.3729 137.784 92.7365 138.125C93.1001 138.462 93.3899 138.909 93.6058 139.466C93.8217 140.023 93.9297 140.708 93.9297 141.523V142.091H87.2024V140.932H92.5661C92.5661 140.439 92.4676 140 92.2706 139.614C92.0774 139.227 91.8009 138.922 91.4411 138.699C91.085 138.475 90.6645 138.364 90.1797 138.364C89.6456 138.364 89.1835 138.496 88.7933 138.761C88.407 139.023 88.1096 139.364 87.9013 139.784C87.6929 140.205 87.5888 140.655 87.5888 141.136V141.909C87.5888 142.568 87.7024 143.127 87.9297 143.585C88.1607 144.04 88.4808 144.386 88.8899 144.625C89.299 144.86 89.7744 144.977 90.3161 144.977C90.6683 144.977 90.9865 144.928 91.2706 144.83C91.5585 144.727 91.8066 144.576 92.0149 144.375C92.2232 144.17 92.3842 143.917 92.4979 143.614L93.7933 143.977C93.657 144.417 93.4278 144.803 93.1058 145.136C92.7839 145.466 92.3861 145.723 91.9126 145.909C91.4392 146.091 90.907 146.182 90.3161 146.182ZM101.333 149.273C101.106 149.273 100.903 149.254 100.725 149.216C100.547 149.182 100.424 149.148 100.356 149.114L100.697 147.932C101.022 148.015 101.31 148.045 101.56 148.023C101.81 148 102.032 147.888 102.225 147.688C102.422 147.491 102.602 147.17 102.765 146.727L103.015 146.045L99.7876 137.273H101.242L103.651 144.227H103.742L106.151 137.273H107.606L103.901 147.273C103.735 147.723 103.528 148.097 103.282 148.392C103.036 148.691 102.75 148.913 102.424 149.057C102.102 149.201 101.738 149.273 101.333 149.273ZM112.609 146.182C111.821 146.182 111.129 145.994 110.535 145.619C109.944 145.244 109.482 144.72 109.148 144.045C108.819 143.371 108.654 142.583 108.654 141.682C108.654 140.773 108.819 139.979 109.148 139.301C109.482 138.623 109.944 138.097 110.535 137.722C111.129 137.347 111.821 137.159 112.609 137.159C113.397 137.159 114.086 137.347 114.677 137.722C115.272 138.097 115.734 138.623 116.063 139.301C116.397 139.979 116.563 140.773 116.563 141.682C116.563 142.583 116.397 143.371 116.063 144.045C115.734 144.72 115.272 145.244 114.677 145.619C114.086 145.994 113.397 146.182 112.609 146.182ZM112.609 144.977C113.207 144.977 113.7 144.824 114.086 144.517C114.472 144.21 114.758 143.807 114.944 143.307C115.129 142.807 115.222 142.265 115.222 141.682C115.222 141.098 115.129 140.555 114.944 140.051C114.758 139.547 114.472 139.14 114.086 138.83C113.7 138.519 113.207 138.364 112.609 138.364C112.01 138.364 111.518 138.519 111.131 138.83C110.745 139.14 110.459 139.547 110.273 140.051C110.088 140.555 109.995 141.098 109.995 141.682C109.995 142.265 110.088 142.807 110.273 143.307C110.459 143.807 110.745 144.21 111.131 144.517C111.518 144.824 112.01 144.977 112.609 144.977ZM124.11 142.432V137.273H125.451V146H124.11V144.523H124.019C123.815 144.966 123.496 145.343 123.065 145.653C122.633 145.96 122.087 146.114 121.428 146.114C120.883 146.114 120.398 145.994 119.974 145.756C119.549 145.513 119.216 145.15 118.974 144.665C118.731 144.176 118.61 143.561 118.61 142.818V137.273H119.951V142.727C119.951 143.364 120.129 143.871 120.485 144.25C120.845 144.629 121.303 144.818 121.86 144.818C122.193 144.818 122.532 144.733 122.877 144.562C123.226 144.392 123.517 144.131 123.752 143.778C123.991 143.426 124.11 142.977 124.11 142.432ZM127.907 146V137.273H129.202V138.591H129.293C129.452 138.159 129.74 137.809 130.157 137.54C130.574 137.271 131.043 137.136 131.566 137.136C131.665 137.136 131.788 137.138 131.935 137.142C132.083 137.146 132.195 137.152 132.271 137.159V138.523C132.225 138.511 132.121 138.494 131.958 138.472C131.799 138.445 131.63 138.432 131.452 138.432C131.028 138.432 130.649 138.521 130.316 138.699C129.987 138.873 129.725 139.116 129.532 139.426C129.343 139.733 129.248 140.083 129.248 140.477V146H127.907ZM142.156 137.273V138.409H137.633V137.273H142.156ZM138.951 135.182H140.292V143.5C140.292 143.879 140.347 144.163 140.457 144.352C140.57 144.538 140.714 144.663 140.888 144.727C141.067 144.788 141.254 144.818 141.451 144.818C141.599 144.818 141.72 144.811 141.815 144.795C141.909 144.777 141.985 144.761 142.042 144.75L142.315 145.955C142.224 145.989 142.097 146.023 141.934 146.057C141.771 146.095 141.565 146.114 141.315 146.114C140.936 146.114 140.565 146.032 140.201 145.869C139.841 145.706 139.542 145.458 139.303 145.125C139.068 144.792 138.951 144.371 138.951 143.864V135.182ZM146.15 146L143.491 137.273H144.9L146.786 143.955H146.877L148.741 137.273H150.173L152.013 143.932H152.104L153.991 137.273H155.4L152.741 146H151.423L149.513 139.295H149.377L147.468 146H146.15ZM160.535 146.182C159.694 146.182 158.969 145.996 158.359 145.625C157.753 145.25 157.285 144.727 156.955 144.057C156.629 143.383 156.467 142.598 156.467 141.705C156.467 140.811 156.629 140.023 156.955 139.341C157.285 138.655 157.743 138.121 158.33 137.739C158.921 137.352 159.611 137.159 160.398 137.159C160.853 137.159 161.302 137.235 161.745 137.386C162.188 137.538 162.592 137.784 162.955 138.125C163.319 138.462 163.609 138.909 163.825 139.466C164.04 140.023 164.148 140.708 164.148 141.523V142.091H157.421V140.932H162.785C162.785 140.439 162.686 140 162.489 139.614C162.296 139.227 162.02 138.922 161.66 138.699C161.304 138.475 160.883 138.364 160.398 138.364C159.864 138.364 159.402 138.496 159.012 138.761C158.626 139.023 158.328 139.364 158.12 139.784C157.912 140.205 157.808 140.655 157.808 141.136V141.909C157.808 142.568 157.921 143.127 158.148 143.585C158.379 144.04 158.7 144.386 159.109 144.625C159.518 144.86 159.993 144.977 160.535 144.977C160.887 144.977 161.205 144.928 161.489 144.83C161.777 144.727 162.025 144.576 162.234 144.375C162.442 144.17 162.603 143.917 162.717 143.614L164.012 143.977C163.876 144.417 163.647 144.803 163.325 145.136C163.003 145.466 162.605 145.723 162.131 145.909C161.658 146.091 161.126 146.182 160.535 146.182ZM169.847 146.182C169.006 146.182 168.281 145.996 167.671 145.625C167.065 145.25 166.597 144.727 166.268 144.057C165.942 143.383 165.779 142.598 165.779 141.705C165.779 140.811 165.942 140.023 166.268 139.341C166.597 138.655 167.056 138.121 167.643 137.739C168.234 137.352 168.923 137.159 169.711 137.159C170.165 137.159 170.614 137.235 171.058 137.386C171.501 137.538 171.904 137.784 172.268 138.125C172.631 138.462 172.921 138.909 173.137 139.466C173.353 140.023 173.461 140.708 173.461 141.523V142.091H166.734V140.932H172.097C172.097 140.439 171.999 140 171.802 139.614C171.609 139.227 171.332 138.922 170.972 138.699C170.616 138.475 170.196 138.364 169.711 138.364C169.177 138.364 168.715 138.496 168.325 138.761C167.938 139.023 167.641 139.364 167.433 139.784C167.224 140.205 167.12 140.655 167.12 141.136V141.909C167.12 142.568 167.234 143.127 167.461 143.585C167.692 144.04 168.012 144.386 168.421 144.625C168.83 144.86 169.306 144.977 169.847 144.977C170.2 144.977 170.518 144.928 170.802 144.83C171.09 144.727 171.338 144.576 171.546 144.375C171.754 144.17 171.915 143.917 172.029 143.614L173.325 143.977C173.188 144.417 172.959 144.803 172.637 145.136C172.315 145.466 171.917 145.723 171.444 145.909C170.97 146.091 170.438 146.182 169.847 146.182ZM179.296 137.273V138.409H174.773V137.273H179.296ZM176.092 135.182H177.433V143.5C177.433 143.879 177.487 144.163 177.597 144.352C177.711 144.538 177.855 144.663 178.029 144.727C178.207 144.788 178.395 144.818 178.592 144.818C178.739 144.818 178.861 144.811 178.955 144.795C179.05 144.777 179.126 144.761 179.183 144.75L179.455 145.955C179.364 145.989 179.237 146.023 179.075 146.057C178.912 146.095 178.705 146.114 178.455 146.114C178.076 146.114 177.705 146.032 177.342 145.869C176.982 145.706 176.683 145.458 176.444 145.125C176.209 144.792 176.092 144.371 176.092 143.864V135.182ZM183.313 144.409L183.222 145.023C183.158 145.455 183.059 145.917 182.927 146.409C182.798 146.902 182.664 147.366 182.523 147.801C182.383 148.237 182.268 148.583 182.177 148.841H181.154C181.203 148.598 181.268 148.278 181.347 147.881C181.427 147.483 181.506 147.038 181.586 146.545C181.669 146.057 181.737 145.557 181.79 145.045L181.859 144.409H183.313ZM193.843 146.182C193.025 146.182 192.32 145.989 191.729 145.602C191.138 145.216 190.684 144.684 190.366 144.006C190.048 143.328 189.888 142.553 189.888 141.682C189.888 140.795 190.051 140.013 190.377 139.335C190.707 138.653 191.165 138.121 191.752 137.739C192.343 137.352 193.032 137.159 193.82 137.159C194.434 137.159 194.987 137.273 195.479 137.5C195.972 137.727 196.375 138.045 196.69 138.455C197.004 138.864 197.199 139.341 197.275 139.886H195.934C195.832 139.489 195.604 139.136 195.252 138.83C194.904 138.519 194.434 138.364 193.843 138.364C193.32 138.364 192.862 138.5 192.468 138.773C192.078 139.042 191.773 139.422 191.553 139.915C191.337 140.403 191.229 140.977 191.229 141.636C191.229 142.311 191.335 142.898 191.548 143.398C191.763 143.898 192.067 144.286 192.457 144.562C192.851 144.839 193.313 144.977 193.843 144.977C194.192 144.977 194.508 144.917 194.792 144.795C195.076 144.674 195.317 144.5 195.513 144.273C195.71 144.045 195.851 143.773 195.934 143.455H197.275C197.199 143.97 197.012 144.434 196.712 144.847C196.417 145.256 196.025 145.581 195.536 145.824C195.051 146.062 194.487 146.182 193.843 146.182ZM201.803 146.205C201.25 146.205 200.748 146.1 200.298 145.892C199.847 145.68 199.489 145.375 199.224 144.977C198.959 144.576 198.826 144.091 198.826 143.523C198.826 143.023 198.924 142.617 199.121 142.307C199.318 141.992 199.582 141.746 199.911 141.568C200.241 141.39 200.604 141.258 201.002 141.17C201.404 141.08 201.807 141.008 202.212 140.955C202.743 140.886 203.173 140.835 203.502 140.801C203.835 140.763 204.078 140.701 204.229 140.614C204.385 140.527 204.462 140.375 204.462 140.159V140.114C204.462 139.553 204.309 139.117 204.002 138.807C203.699 138.496 203.239 138.341 202.621 138.341C201.981 138.341 201.479 138.481 201.116 138.761C200.752 139.042 200.496 139.341 200.349 139.659L199.076 139.205C199.303 138.674 199.606 138.261 199.985 137.966C200.368 137.667 200.784 137.458 201.235 137.341C201.69 137.22 202.137 137.159 202.576 137.159C202.856 137.159 203.178 137.193 203.542 137.261C203.909 137.326 204.263 137.46 204.604 137.665C204.949 137.869 205.235 138.178 205.462 138.591C205.69 139.004 205.803 139.557 205.803 140.25V146H204.462V144.818H204.394C204.303 145.008 204.152 145.21 203.94 145.426C203.728 145.642 203.445 145.826 203.093 145.977C202.741 146.129 202.311 146.205 201.803 146.205ZM202.008 145C202.538 145 202.985 144.896 203.349 144.688C203.716 144.479 203.993 144.21 204.178 143.881C204.368 143.551 204.462 143.205 204.462 142.841V141.614C204.406 141.682 204.281 141.744 204.087 141.801C203.898 141.854 203.678 141.902 203.428 141.943C203.182 141.981 202.942 142.015 202.707 142.045C202.476 142.072 202.288 142.095 202.144 142.114C201.796 142.159 201.47 142.233 201.167 142.335C200.868 142.434 200.625 142.583 200.44 142.784C200.258 142.981 200.167 143.25 200.167 143.591C200.167 144.057 200.339 144.409 200.684 144.648C201.032 144.883 201.474 145 202.008 145ZM208.251 149.273V137.273H209.546V138.659H209.705C209.804 138.508 209.94 138.314 210.114 138.08C210.292 137.841 210.546 137.629 210.876 137.443C211.209 137.254 211.66 137.159 212.228 137.159C212.963 137.159 213.611 137.343 214.171 137.71C214.732 138.078 215.169 138.598 215.484 139.273C215.798 139.947 215.955 140.742 215.955 141.659C215.955 142.583 215.798 143.384 215.484 144.062C215.169 144.737 214.734 145.259 214.177 145.631C213.62 145.998 212.978 146.182 212.251 146.182C211.69 146.182 211.241 146.089 210.904 145.903C210.567 145.714 210.308 145.5 210.126 145.261C209.944 145.019 209.804 144.818 209.705 144.659H209.592V149.273H208.251ZM209.569 141.636C209.569 142.295 209.665 142.877 209.859 143.381C210.052 143.881 210.334 144.273 210.705 144.557C211.076 144.837 211.531 144.977 212.069 144.977C212.629 144.977 213.097 144.83 213.472 144.534C213.851 144.235 214.135 143.833 214.325 143.33C214.518 142.822 214.614 142.258 214.614 141.636C214.614 141.023 214.52 140.47 214.33 139.977C214.145 139.481 213.862 139.089 213.484 138.801C213.109 138.509 212.637 138.364 212.069 138.364C211.523 138.364 211.065 138.502 210.694 138.778C210.323 139.051 210.042 139.434 209.853 139.926C209.664 140.415 209.569 140.985 209.569 141.636ZM221.796 137.273V138.409H217.273V137.273H221.796ZM218.592 135.182H219.933V143.5C219.933 143.879 219.987 144.163 220.097 144.352C220.211 144.538 220.355 144.663 220.529 144.727C220.707 144.788 220.895 144.818 221.092 144.818C221.239 144.818 221.361 144.811 221.455 144.795C221.55 144.777 221.626 144.761 221.683 144.75L221.955 145.955C221.864 145.989 221.737 146.023 221.575 146.057C221.412 146.095 221.205 146.114 220.955 146.114C220.576 146.114 220.205 146.032 219.842 145.869C219.482 145.706 219.183 145.458 218.944 145.125C218.709 144.792 218.592 144.371 218.592 143.864V135.182ZM223.813 146V137.273H225.154V146H223.813ZM224.495 135.818C224.234 135.818 224.008 135.729 223.819 135.551C223.633 135.373 223.54 135.159 223.54 134.909C223.54 134.659 223.633 134.445 223.819 134.267C224.008 134.089 224.234 134 224.495 134C224.756 134 224.98 134.089 225.165 134.267C225.355 134.445 225.45 134.659 225.45 134.909C225.45 135.159 225.355 135.373 225.165 135.551C224.98 135.729 224.756 135.818 224.495 135.818ZM231.156 146.182C230.368 146.182 229.676 145.994 229.082 145.619C228.491 145.244 228.029 144.72 227.695 144.045C227.366 143.371 227.201 142.583 227.201 141.682C227.201 140.773 227.366 139.979 227.695 139.301C228.029 138.623 228.491 138.097 229.082 137.722C229.676 137.347 230.368 137.159 231.156 137.159C231.943 137.159 232.633 137.347 233.224 137.722C233.818 138.097 234.281 138.623 234.61 139.301C234.943 139.979 235.11 140.773 235.11 141.682C235.11 142.583 234.943 143.371 234.61 144.045C234.281 144.72 233.818 145.244 233.224 145.619C232.633 145.994 231.943 146.182 231.156 146.182ZM231.156 144.977C231.754 144.977 232.246 144.824 232.633 144.517C233.019 144.21 233.305 143.807 233.491 143.307C233.676 142.807 233.769 142.265 233.769 141.682C233.769 141.098 233.676 140.555 233.491 140.051C233.305 139.547 233.019 139.14 232.633 138.83C232.246 138.519 231.754 138.364 231.156 138.364C230.557 138.364 230.065 138.519 229.678 138.83C229.292 139.14 229.006 139.547 228.82 140.051C228.635 140.555 228.542 141.098 228.542 141.682C228.542 142.265 228.635 142.807 228.82 143.307C229.006 143.807 229.292 144.21 229.678 144.517C230.065 144.824 230.557 144.977 231.156 144.977ZM238.498 140.75V146H237.157V137.273H238.452V138.636H238.566C238.771 138.193 239.081 137.837 239.498 137.568C239.915 137.295 240.452 137.159 241.112 137.159C241.702 137.159 242.219 137.28 242.663 137.523C243.106 137.761 243.451 138.125 243.697 138.614C243.943 139.098 244.066 139.712 244.066 140.455V146H242.725V140.545C242.725 139.86 242.547 139.326 242.191 138.943C241.835 138.557 241.346 138.364 240.725 138.364C240.297 138.364 239.915 138.456 239.577 138.642C239.244 138.828 238.981 139.098 238.788 139.455C238.594 139.811 238.498 140.242 238.498 140.75ZM248.516 144.409L248.425 145.023C248.361 145.455 248.263 145.917 248.13 146.409C248.001 146.902 247.867 147.366 247.727 147.801C247.586 148.237 247.471 148.583 247.38 148.841H246.357C246.406 148.598 246.471 148.278 246.55 147.881C246.63 147.483 246.71 147.038 246.789 146.545C246.872 146.057 246.941 145.557 246.994 145.045L247.062 144.409H248.516ZM259.046 146.182C258.258 146.182 257.567 145.994 256.972 145.619C256.381 145.244 255.919 144.72 255.586 144.045C255.256 143.371 255.092 142.583 255.092 141.682C255.092 140.773 255.256 139.979 255.586 139.301C255.919 138.623 256.381 138.097 256.972 137.722C257.567 137.347 258.258 137.159 259.046 137.159C259.834 137.159 260.523 137.347 261.114 137.722C261.709 138.097 262.171 138.623 262.501 139.301C262.834 139.979 263.001 140.773 263.001 141.682C263.001 142.583 262.834 143.371 262.501 144.045C262.171 144.72 261.709 145.244 261.114 145.619C260.523 145.994 259.834 146.182 259.046 146.182ZM259.046 144.977C259.645 144.977 260.137 144.824 260.523 144.517C260.91 144.21 261.196 143.807 261.381 143.307C261.567 142.807 261.66 142.265 261.66 141.682C261.66 141.098 261.567 140.555 261.381 140.051C261.196 139.547 260.91 139.14 260.523 138.83C260.137 138.519 259.645 138.364 259.046 138.364C258.448 138.364 257.955 138.519 257.569 138.83C257.183 139.14 256.897 139.547 256.711 140.051C256.525 140.555 256.433 141.098 256.433 141.682C256.433 142.265 256.525 142.807 256.711 143.307C256.897 143.807 257.183 144.21 257.569 144.517C257.955 144.824 258.448 144.977 259.046 144.977ZM265.048 146V137.273H266.343V138.591H266.434C266.593 138.159 266.881 137.809 267.298 137.54C267.714 137.271 268.184 137.136 268.707 137.136C268.805 137.136 268.928 137.138 269.076 137.142C269.224 137.146 269.335 137.152 269.411 137.159V138.523C269.366 138.511 269.262 138.494 269.099 138.472C268.94 138.445 268.771 138.432 268.593 138.432C268.169 138.432 267.79 138.521 267.457 138.699C267.127 138.873 266.866 139.116 266.673 139.426C266.483 139.733 266.388 140.083 266.388 140.477V146H265.048ZM275.501 146V137.273H276.842V146H275.501ZM276.183 135.818C275.921 135.818 275.696 135.729 275.506 135.551C275.321 135.373 275.228 135.159 275.228 134.909C275.228 134.659 275.321 134.445 275.506 134.267C275.696 134.089 275.921 134 276.183 134C276.444 134 276.667 134.089 276.853 134.267C277.042 134.445 277.137 134.659 277.137 134.909C277.137 135.159 277.042 135.373 276.853 135.551C276.667 135.729 276.444 135.818 276.183 135.818ZM282.593 146.182C281.866 146.182 281.224 145.998 280.667 145.631C280.11 145.259 279.674 144.737 279.36 144.062C279.046 143.384 278.888 142.583 278.888 141.659C278.888 140.742 279.046 139.947 279.36 139.273C279.674 138.598 280.112 138.078 280.673 137.71C281.233 137.343 281.881 137.159 282.616 137.159C283.184 137.159 283.633 137.254 283.962 137.443C284.296 137.629 284.549 137.841 284.724 138.08C284.902 138.314 285.04 138.508 285.138 138.659H285.252V134.364H286.593V146H285.298V144.659H285.138C285.04 144.818 284.9 145.019 284.718 145.261C284.536 145.5 284.277 145.714 283.94 145.903C283.603 146.089 283.154 146.182 282.593 146.182ZM282.775 144.977C283.313 144.977 283.767 144.837 284.138 144.557C284.51 144.273 284.792 143.881 284.985 143.381C285.178 142.877 285.275 142.295 285.275 141.636C285.275 140.985 285.18 140.415 284.991 139.926C284.801 139.434 284.521 139.051 284.15 138.778C283.779 138.502 283.32 138.364 282.775 138.364C282.207 138.364 281.733 138.509 281.354 138.801C280.979 139.089 280.697 139.481 280.508 139.977C280.322 140.47 280.229 141.023 280.229 141.636C280.229 142.258 280.324 142.822 280.513 143.33C280.707 143.833 280.991 144.235 281.366 144.534C281.745 144.83 282.214 144.977 282.775 144.977ZM292.894 146.182C292.053 146.182 291.328 145.996 290.718 145.625C290.112 145.25 289.644 144.727 289.315 144.057C288.989 143.383 288.826 142.598 288.826 141.705C288.826 140.811 288.989 140.023 289.315 139.341C289.644 138.655 290.103 138.121 290.69 137.739C291.281 137.352 291.97 137.159 292.758 137.159C293.212 137.159 293.661 137.235 294.104 137.386C294.548 137.538 294.951 137.784 295.315 138.125C295.678 138.462 295.968 138.909 296.184 139.466C296.4 140.023 296.508 140.708 296.508 141.523V142.091H289.781V140.932H295.144C295.144 140.439 295.046 140 294.849 139.614C294.656 139.227 294.379 138.922 294.019 138.699C293.663 138.475 293.243 138.364 292.758 138.364C292.224 138.364 291.762 138.496 291.371 138.761C290.985 139.023 290.688 139.364 290.479 139.784C290.271 140.205 290.167 140.655 290.167 141.136V141.909C290.167 142.568 290.281 143.127 290.508 143.585C290.739 144.04 291.059 144.386 291.468 144.625C291.877 144.86 292.353 144.977 292.894 144.977C293.246 144.977 293.565 144.928 293.849 144.83C294.137 144.727 294.385 144.576 294.593 144.375C294.801 144.17 294.962 143.917 295.076 143.614L296.371 143.977C296.235 144.417 296.006 144.803 295.684 145.136C295.362 145.466 294.964 145.723 294.491 145.909C294.017 146.091 293.485 146.182 292.894 146.182ZM301.116 146.205C300.563 146.205 300.061 146.1 299.61 145.892C299.159 145.68 298.801 145.375 298.536 144.977C298.271 144.576 298.138 144.091 298.138 143.523C298.138 143.023 298.237 142.617 298.434 142.307C298.631 141.992 298.894 141.746 299.224 141.568C299.553 141.39 299.917 141.258 300.315 141.17C300.716 141.08 301.12 141.008 301.525 140.955C302.055 140.886 302.485 140.835 302.815 140.801C303.148 140.763 303.39 140.701 303.542 140.614C303.697 140.527 303.775 140.375 303.775 140.159V140.114C303.775 139.553 303.621 139.117 303.315 138.807C303.012 138.496 302.551 138.341 301.934 138.341C301.294 138.341 300.792 138.481 300.428 138.761C300.065 139.042 299.809 139.341 299.661 139.659L298.388 139.205C298.616 138.674 298.919 138.261 299.298 137.966C299.68 137.667 300.097 137.458 300.548 137.341C301.002 137.22 301.449 137.159 301.888 137.159C302.169 137.159 302.491 137.193 302.854 137.261C303.222 137.326 303.576 137.46 303.917 137.665C304.262 137.869 304.548 138.178 304.775 138.591C305.002 139.004 305.116 139.557 305.116 140.25V146H303.775V144.818H303.707C303.616 145.008 303.464 145.21 303.252 145.426C303.04 145.642 302.758 145.826 302.406 145.977C302.053 146.129 301.623 146.205 301.116 146.205ZM301.32 145C301.851 145 302.298 144.896 302.661 144.688C303.029 144.479 303.305 144.21 303.491 143.881C303.68 143.551 303.775 143.205 303.775 142.841V141.614C303.718 141.682 303.593 141.744 303.4 141.801C303.21 141.854 302.991 141.902 302.741 141.943C302.495 141.981 302.254 142.015 302.019 142.045C301.788 142.072 301.601 142.095 301.457 142.114C301.108 142.159 300.782 142.233 300.479 142.335C300.18 142.434 299.938 142.583 299.752 142.784C299.57 142.981 299.479 143.25 299.479 143.591C299.479 144.057 299.652 144.409 299.996 144.648C300.345 144.883 300.786 145 301.32 145ZM313.404 140.75V146H312.063V134.364H313.404V138.636H313.518C313.722 138.186 314.029 137.828 314.438 137.562C314.851 137.294 315.4 137.159 316.086 137.159C316.681 137.159 317.201 137.278 317.648 137.517C318.095 137.752 318.442 138.114 318.688 138.602C318.938 139.087 319.063 139.705 319.063 140.455V146H317.722V140.545C317.722 139.852 317.542 139.316 317.183 138.938C316.826 138.555 316.332 138.364 315.7 138.364C315.26 138.364 314.866 138.456 314.518 138.642C314.173 138.828 313.9 139.098 313.7 139.455C313.503 139.811 313.404 140.242 313.404 140.75ZM325.175 146.182C324.335 146.182 323.609 145.996 322.999 145.625C322.393 145.25 321.925 144.727 321.596 144.057C321.27 143.383 321.107 142.598 321.107 141.705C321.107 140.811 321.27 140.023 321.596 139.341C321.925 138.655 322.384 138.121 322.971 137.739C323.562 137.352 324.251 137.159 325.039 137.159C325.494 137.159 325.942 137.235 326.386 137.386C326.829 137.538 327.232 137.784 327.596 138.125C327.96 138.462 328.249 138.909 328.465 139.466C328.681 140.023 328.789 140.708 328.789 141.523V142.091H322.062V140.932H327.425C327.425 140.439 327.327 140 327.13 139.614C326.937 139.227 326.66 138.922 326.3 138.699C325.944 138.475 325.524 138.364 325.039 138.364C324.505 138.364 324.043 138.496 323.653 138.761C323.266 139.023 322.969 139.364 322.761 139.784C322.552 140.205 322.448 140.655 322.448 141.136V141.909C322.448 142.568 322.562 143.127 322.789 143.585C323.02 144.04 323.34 144.386 323.749 144.625C324.158 144.86 324.634 144.977 325.175 144.977C325.528 144.977 325.846 144.928 326.13 144.83C326.418 144.727 326.666 144.576 326.874 144.375C327.083 144.17 327.244 143.917 327.357 143.614L328.653 143.977C328.516 144.417 328.287 144.803 327.965 145.136C327.643 145.466 327.246 145.723 326.772 145.909C326.299 146.091 325.766 146.182 325.175 146.182ZM330.829 146V137.273H332.124V138.591H332.215C332.374 138.159 332.662 137.809 333.079 137.54C333.496 137.271 333.965 137.136 334.488 137.136C334.586 137.136 334.71 137.138 334.857 137.142C335.005 137.146 335.117 137.152 335.192 137.159V138.523C335.147 138.511 335.043 138.494 334.88 138.472C334.721 138.445 334.552 138.432 334.374 138.432C333.95 138.432 333.571 138.521 333.238 138.699C332.908 138.873 332.647 139.116 332.454 139.426C332.264 139.733 332.17 140.083 332.17 140.477V146H330.829ZM340.175 146.182C339.335 146.182 338.609 145.996 337.999 145.625C337.393 145.25 336.925 144.727 336.596 144.057C336.27 143.383 336.107 142.598 336.107 141.705C336.107 140.811 336.27 140.023 336.596 139.341C336.925 138.655 337.384 138.121 337.971 137.739C338.562 137.352 339.251 137.159 340.039 137.159C340.494 137.159 340.942 137.235 341.386 137.386C341.829 137.538 342.232 137.784 342.596 138.125C342.96 138.462 343.249 138.909 343.465 139.466C343.681 140.023 343.789 140.708 343.789 141.523V142.091H337.062V140.932H342.425C342.425 140.439 342.327 140 342.13 139.614C341.937 139.227 341.66 138.922 341.3 138.699C340.944 138.475 340.524 138.364 340.039 138.364C339.505 138.364 339.043 138.496 338.653 138.761C338.266 139.023 337.969 139.364 337.761 139.784C337.552 140.205 337.448 140.655 337.448 141.136V141.909C337.448 142.568 337.562 143.127 337.789 143.585C338.02 144.04 338.34 144.386 338.749 144.625C339.158 144.86 339.634 144.977 340.175 144.977C340.528 144.977 340.846 144.928 341.13 144.83C341.418 144.727 341.666 144.576 341.874 144.375C342.083 144.17 342.244 143.917 342.357 143.614L343.653 143.977C343.516 144.417 343.287 144.803 342.965 145.136C342.643 145.466 342.246 145.723 341.772 145.909C341.299 146.091 340.766 146.182 340.175 146.182ZM346.806 146.091C346.526 146.091 346.285 145.991 346.085 145.79C345.884 145.589 345.783 145.348 345.783 145.068C345.783 144.788 345.884 144.547 346.085 144.347C346.285 144.146 346.526 144.045 346.806 144.045C347.086 144.045 347.327 144.146 347.528 144.347C347.728 144.547 347.829 144.788 347.829 145.068C347.829 145.254 347.781 145.424 347.687 145.58C347.596 145.735 347.473 145.86 347.317 145.955C347.166 146.045 346.996 146.091 346.806 146.091ZM351.212 146.091C350.932 146.091 350.692 145.991 350.491 145.79C350.29 145.589 350.19 145.348 350.19 145.068C350.19 144.788 350.29 144.547 350.491 144.347C350.692 144.146 350.932 144.045 351.212 144.045C351.493 144.045 351.733 144.146 351.934 144.347C352.135 144.547 352.235 144.788 352.235 145.068C352.235 145.254 352.188 145.424 352.093 145.58C352.002 145.735 351.879 145.86 351.724 145.955C351.572 146.045 351.402 146.091 351.212 146.091ZM355.619 146.091C355.338 146.091 355.098 145.991 354.897 145.79C354.696 145.589 354.596 145.348 354.596 145.068C354.596 144.788 354.696 144.547 354.897 144.347C355.098 144.146 355.338 144.045 355.619 144.045C355.899 144.045 356.139 144.146 356.34 144.347C356.541 144.547 356.641 144.788 356.641 145.068C356.641 145.254 356.594 145.424 356.499 145.58C356.408 145.735 356.285 145.86 356.13 145.955C355.978 146.045 355.808 146.091 355.619 146.091Z" fill="#979797"/>
<path d="M68 359L59.586 367.586C59.2108 367.961 59.0001 368.47 59.0001 369C59.0001 369.531 59.2108 370.04 59.586 370.415C59.9611 370.79 60.47 371.001 61.0005 371.001C61.531 371.001 62.0398 370.79 62.415 370.415L70.829 361.829C71.5792 361.079 72.0006 360.061 72.0006 359C72.0006 357.94 71.5792 356.922 70.829 356.172C70.0788 355.422 69.0614 355 68.0005 355C66.9396 355 65.9222 355.422 65.172 356.172L56.793 364.723C56.2284 365.278 55.7794 365.94 55.4718 366.67C55.1642 367.4 55.0042 368.184 55.001 368.976C54.9978 369.768 55.1514 370.552 55.453 371.285C55.7546 372.017 56.1982 372.683 56.7583 373.243C57.3184 373.803 57.9838 374.246 58.7161 374.548C59.4485 374.85 60.2333 375.003 61.0254 375C61.8174 374.997 62.601 374.837 63.3309 374.529C64.0607 374.222 64.7225 373.773 65.278 373.208L73.657 364.657" stroke="#178C91" stroke-width="1.5" stroke-linecap="round" stroke-linejoin="round"/>
<path d="M107 356H93C91.8954 356 91 356.895 91 358V372C91 373.105 91.8954 374 93 374H107C108.105 374 109 373.105 109 372V358C109 356.895 108.105 356 107 356Z" stroke="#178C91" stroke-width="1.5" stroke-linecap="round" stroke-linejoin="round"/>
<path d="M97 364C98.1046 364 99 363.105 99 362C99 360.895 98.1046 360 97 360C95.8954 360 95 360.895 95 362C95 363.105 95.8954 364 97 364Z" stroke="#178C91" stroke-width="1.5" stroke-linecap="round" stroke-linejoin="round"/>
<path d="M109 368L105.914 364.914C105.539 364.539 105.03 364.328 104.5 364.328C103.97 364.328 103.461 364.539 103.086 364.914L94 374" stroke="#178C91" stroke-width="1.5" stroke-linecap="round" stroke-linejoin="round"/>
<rect x="255.5" y="335.5" width="152" height="41" rx="11.5" fill="url(#paint1_linear_21_5610)"/>
<rect x="255.5" y="335.5" width="152" height="41" rx="11.5" stroke="url(#paint2_linear_21_5610)"/>
<path d="M286.154 349.954L282.518 362.5H280.682L277.766 352.402L274.742 362.5L272.924 362.518L269.414 349.954H271.16L273.896 360.592L276.92 349.954H278.756L281.636 360.556L284.39 349.954H286.154ZM289.585 354.238C289.873 353.674 290.281 353.236 290.809 352.924C291.349 352.612 292.003 352.456 292.771 352.456V354.148H292.339C290.503 354.148 289.585 355.144 289.585 357.136V362.5H287.947V352.636H289.585V354.238ZM295.507 351.034C295.195 351.034 294.931 350.926 294.715 350.71C294.499 350.494 294.391 350.23 294.391 349.918C294.391 349.606 294.499 349.342 294.715 349.126C294.931 348.91 295.195 348.802 295.507 348.802C295.807 348.802 296.059 348.91 296.263 349.126C296.479 349.342 296.587 349.606 296.587 349.918C296.587 350.23 296.479 350.494 296.263 350.71C296.059 350.926 295.807 351.034 295.507 351.034ZM296.299 352.636V362.5H294.661V352.636H296.299ZM301.089 353.986V359.8C301.089 360.28 301.191 360.622 301.395 360.826C301.599 361.018 301.953 361.114 302.457 361.114H303.663V362.5H302.187C301.275 362.5 300.591 362.29 300.135 361.87C299.679 361.45 299.451 360.76 299.451 359.8V353.986H298.173V352.636H299.451V350.152H301.089V352.636H303.663V353.986H301.089ZM314.648 357.19C314.648 357.502 314.63 357.832 314.594 358.18H306.71C306.77 359.152 307.1 359.914 307.7 360.466C308.312 361.006 309.05 361.276 309.914 361.276C310.622 361.276 311.21 361.114 311.678 360.79C312.158 360.454 312.494 360.01 312.686 359.458H314.45C314.186 360.406 313.658 361.18 312.866 361.78C312.074 362.368 311.09 362.662 309.914 362.662C308.978 362.662 308.138 362.452 307.394 362.032C306.662 361.612 306.086 361.018 305.666 360.25C305.246 359.47 305.036 358.57 305.036 357.55C305.036 356.53 305.24 355.636 305.648 354.868C306.056 354.1 306.626 353.512 307.358 353.104C308.102 352.684 308.954 352.474 309.914 352.474C310.85 352.474 311.678 352.678 312.398 353.086C313.118 353.494 313.67 354.058 314.054 354.778C314.45 355.486 314.648 356.29 314.648 357.19ZM312.956 356.848C312.956 356.224 312.818 355.69 312.542 355.246C312.266 354.79 311.888 354.448 311.408 354.22C310.94 353.98 310.418 353.86 309.842 353.86C309.014 353.86 308.306 354.124 307.718 354.652C307.142 355.18 306.812 355.912 306.728 356.848H312.956ZM331.473 362.5H329.835L323.247 352.51V362.5H321.609V349.936H323.247L329.835 359.908V349.936H331.473V362.5ZM338.567 362.662C337.643 362.662 336.803 362.452 336.047 362.032C335.303 361.612 334.715 361.018 334.283 360.25C333.863 359.47 333.653 358.57 333.653 357.55C333.653 356.542 333.869 355.654 334.301 354.886C334.745 354.106 335.345 353.512 336.101 353.104C336.857 352.684 337.703 352.474 338.639 352.474C339.575 352.474 340.421 352.684 341.177 353.104C341.933 353.512 342.527 354.1 342.959 354.868C343.403 355.636 343.625 356.53 343.625 357.55C343.625 358.57 343.397 359.47 342.941 360.25C342.497 361.018 341.891 361.612 341.123 362.032C340.355 362.452 339.503 362.662 338.567 362.662ZM338.567 361.222C339.155 361.222 339.707 361.084 340.223 360.808C340.739 360.532 341.153 360.118 341.465 359.566C341.789 359.014 341.951 358.342 341.951 357.55C341.951 356.758 341.795 356.086 341.483 355.534C341.171 354.982 340.763 354.574 340.259 354.31C339.755 354.034 339.209 353.896 338.621 353.896C338.021 353.896 337.469 354.034 336.965 354.31C336.473 354.574 336.077 354.982 335.777 355.534C335.477 356.086 335.327 356.758 335.327 357.55C335.327 358.354 335.471 359.032 335.759 359.584C336.059 360.136 336.455 360.55 336.947 360.826C337.439 361.09 337.979 361.222 338.567 361.222ZM358.919 352.636L355.841 362.5H354.149L351.773 354.67L349.397 362.5H347.705L344.609 352.636H346.283L348.551 360.916L350.999 352.636H352.673L355.067 360.934L357.299 352.636H358.919Z" fill="white"/>
<path d="M391.64 347.64L390.36 346.36C390.247 346.246 390.114 346.156 389.966 346.095C389.818 346.033 389.66 346.001 389.5 346.001C389.34 346.001 389.182 346.033 389.034 346.095C388.886 346.156 388.753 346.246 388.64 346.36L372.36 362.64C372.246 362.753 372.156 362.887 372.094 363.034C372.033 363.182 372.001 363.34 372.001 363.5C372.001 363.66 372.033 363.818 372.094 363.966C372.156 364.114 372.246 364.248 372.36 364.36L373.64 365.64C373.752 365.755 373.886 365.846 374.033 365.909C374.181 365.971 374.34 366.003 374.5 366.003C374.66 366.003 374.819 365.971 374.967 365.909C375.114 365.846 375.248 365.755 375.36 365.64L391.64 349.36C391.755 349.248 391.846 349.115 391.909 348.967C391.971 348.819 392.003 348.66 392.003 348.5C392.003 348.34 391.971 348.181 391.909 348.033C391.846 347.886 391.755 347.752 391.64 347.64Z" stroke="white" stroke-width="1.5" stroke-linecap="round" stroke-linejoin="round"/>
<path d="M384 351L387 354" stroke="white" stroke-width="1.5" stroke-linecap="round" stroke-linejoin="round"/>
<path d="M375 350V354" stroke="white" stroke-width="1.5" stroke-linecap="round" stroke-linejoin="round"/>
<path d="M389 358V362" stroke="white" stroke-width="1.5" stroke-linecap="round" stroke-linejoin="round"/>
<path d="M380 346V348" stroke="white" stroke-width="1.5" stroke-linecap="round" stroke-linejoin="round"/>
<path d="M377 352H373" stroke="white" stroke-width="1.5" stroke-linecap="round" stroke-linejoin="round"/>
<path d="M391 360H387" stroke="white" stroke-width="1.5" stroke-linecap="round" stroke-linejoin="round"/>
<path d="M381 347H379" stroke="white" stroke-width="1.5" stroke-linecap="round" stroke-linejoin="round"/>
</g>
<defs>
<filter id="filter0_d_21_5610" x="20" y="102" width="420" height="313" filterUnits="userSpaceOnUse" color-interpolation-filters="sRGB">
<feFlood flood-opacity="0" result="BackgroundImageFix"/>
<feColorMatrix in="SourceAlpha" type="matrix" values="0 0 0 0 0 0 0 0 0 0 0 0 0 0 0 0 0 0 127 0" result="hardAlpha"/>
<feOffset dy="6"/>
<feGaussianBlur stdDeviation="5"/>
<feComposite in2="hardAlpha" operator="out"/>
<feColorMatrix type="matrix" values="0 0 0 0 0.082378 0 0 0 0 0.252278 0 0 0 0 0.259615 0 0 0 0.1 0"/>
<feBlend mode="normal" in2="BackgroundImageFix" result="effect1_dropShadow_21_5610"/>
<feBlend mode="normal" in="SourceGraphic" in2="effect1_dropShadow_21_5610" result="shape"/>
</filter>
<linearGradient id="paint0_linear_21_5610" x1="78.0862" y1="791.666" x2="540.657" y2="715.606" gradientUnits="userSpaceOnUse">
<stop stop-color="#178C91"/>
<stop offset="0.230769" stop-color="#178C91"/>
<stop offset="0.307692" stop-color="#98E7EA"/>
<stop offset="0.389423" stop-color="#178C91"/>
<stop offset="0.567308" stop-color="#178C91"/>
<stop offset="0.6875" stop-color="#178C91"/>
<stop offset="0.774038" stop-color="#98E7EA"/>
<stop offset="0.836538" stop-color="#178C91"/>
<stop offset="1" stop-color="#178C91"/>
</linearGradient>
<linearGradient id="paint1_linear_21_5610" x1="407.647" y1="377" x2="255.353" y2="377" gradientUnits="userSpaceOnUse">
<stop stop-color="#0D777C"/>
<stop offset="1" stop-color="#3AADB2"/>
</linearGradient>
<linearGradient id="paint2_linear_21_5610" x1="407.647" y1="377" x2="255.353" y2="377" gradientUnits="userSpaceOnUse">
<stop stop-color="#3AADB2"/>
<stop offset="1" stop-color="#0D777C"/>
</linearGradient>
</defs>
</svg>
