<svg width="460" height="429" viewBox="0 0 460 429" fill="none" xmlns="http://www.w3.org/2000/svg">
<path d="M0 20C0 8.95432 8.95431 0 20 0H440C451.046 0 460 8.95431 460 20V409C460 420.046 451.046 429 440 429H20C8.9543 429 0 420.046 0 409V20Z" fill="#F4F4F4"/>
<rect x="16" y="16" width="428" height="397" rx="16" fill="white"/>
<path fill-rule="evenodd" clip-rule="evenodd" d="M57 32C67.0817 32 75.7695 36.1807 79.7239 42.2024H34.2761C38.2305 36.1807 46.9183 32 57 32Z" fill="url(#paint0_linear_21_5612)"/>
<path d="M43.2962 64.165C47.9619 60.4207 53.7748 58.7348 61.0816 59.5466C64.1429 59.8866 67.3741 61.0769 67.3741 61.0769C67.3741 61.0769 62.9524 60.9069 58.1905 61.7571C54.5539 62.4064 51.3122 64.0352 48.5239 65.9961C44.8478 68.5813 41.9597 71.7438 39.9932 74C41.6632 71.8084 44.6113 67.6858 38.8057 61.5258C40.1476 62.523 41.6547 63.4099 43.2962 64.165Z" fill="url(#paint1_linear_21_5612)"/>
<path fill-rule="evenodd" clip-rule="evenodd" d="M61.0816 59.5466C53.7748 58.7348 47.9619 60.4207 43.2962 64.165C41.6547 63.4099 40.1476 62.523 38.8057 61.5258C34.5862 58.3901 32 54.1637 32 49.5142C32 46.9042 32.8149 44.4276 34.2761 42.2024H79.7239C81.1851 44.4276 82 46.9042 82 49.5142C82 53.5563 80.0454 57.2786 76.7623 60.2425C72.3123 64.2597 65.4216 66.8838 57.649 67.0225C57.4333 67.0264 57.217 67.0283 57 67.0283C54.0246 67.0283 51.1706 66.6642 48.5239 65.9961C51.3122 64.0352 54.5539 62.4064 58.1905 61.7571C62.9524 60.9069 67.3741 61.0769 67.3741 61.0769C67.3741 61.0769 64.1429 59.8866 61.0816 59.5466Z" fill="url(#paint2_linear_21_5612)"/>
<path fill-rule="evenodd" clip-rule="evenodd" d="M57.5102 67.0068C65.2828 66.868 72.1735 64.244 76.6235 60.2267C79.9761 62.6605 81.3678 65.5026 77.4394 68.2029C71.4815 72.2983 62.1716 69.057 57.5102 67.0068Z" fill="url(#paint3_linear_21_5612)"/>
<path d="M47.6366 48.7084C47.5902 48.2408 47.3912 47.8775 47.0394 47.6186C46.6877 47.3597 46.2104 47.2302 45.6074 47.2302C45.1977 47.2302 44.8517 47.2882 44.5696 47.4041C44.2874 47.5162 44.071 47.6727 43.9202 47.8737C43.7734 48.0746 43.6999 48.3026 43.6999 48.5577C43.6922 48.7702 43.7366 48.9557 43.8333 49.1142C43.9338 49.2726 44.071 49.4098 44.2449 49.5258C44.4188 49.6378 44.6198 49.7364 44.8479 49.8214C45.0759 49.9026 45.3194 49.9721 45.5784 50.0301L46.6452 50.2851C47.1631 50.4011 47.6385 50.5557 48.0714 50.7489C48.5043 50.9421 48.8793 51.1798 49.1962 51.4619C49.5132 51.744 49.7586 52.0764 49.9325 52.459C50.1103 52.8415 50.2012 53.2802 50.205 53.7748C50.2012 54.5014 50.0156 55.1313 49.6484 55.6646C49.2851 56.1941 48.7594 56.6056 48.0714 56.8993C47.3873 57.1892 46.5621 57.3341 45.5958 57.3341C44.6372 57.3341 43.8023 57.1872 43.0912 56.8935C42.3838 56.5998 41.8311 56.1651 41.433 55.5892C41.0387 55.0096 40.832 54.2927 40.8126 53.4386H43.2419C43.2689 53.8367 43.383 54.169 43.584 54.4357C43.7888 54.6985 44.0613 54.8975 44.4014 55.0328C44.7455 55.1641 45.1339 55.2298 45.5668 55.2298C45.992 55.2298 46.3611 55.168 46.6742 55.0443C46.9911 54.9207 47.2366 54.7487 47.4105 54.5284C47.5844 54.3081 47.6714 54.055 47.6714 53.769C47.6714 53.5024 47.5922 53.2782 47.4337 53.0966C47.2791 52.915 47.051 52.7604 46.7495 52.6329C46.4519 52.5053 46.0867 52.3894 45.6538 52.2851L44.3609 51.9604C43.3598 51.717 42.5694 51.3363 41.9896 50.8185C41.4098 50.3006 41.1218 49.6031 41.1257 48.7258C41.1218 48.007 41.3132 47.379 41.6997 46.8418C42.0901 46.3047 42.6254 45.8853 43.3057 45.5839C43.9859 45.2825 44.759 45.1318 45.6248 45.1318C46.506 45.1318 47.2752 45.2825 47.9323 45.5839C48.5932 45.8853 49.1073 46.3047 49.4745 46.8418C49.8417 47.379 50.0311 48.0012 50.0427 48.7084H47.6366Z" fill="white"/>
<path d="M51.8472 57.166V48.2621H54.3171V57.166H51.8472ZM53.088 47.1143C52.7208 47.1143 52.4058 46.9925 52.1429 46.7491C51.884 46.5017 51.7545 46.2061 51.7545 45.8622C51.7545 45.5221 51.884 45.2303 52.1429 44.9868C52.4058 44.7395 52.7208 44.6158 53.088 44.6158C53.4552 44.6158 53.7682 44.7395 54.0272 44.9868C54.29 45.2303 54.4215 45.5221 54.4215 45.8622C54.4215 46.2061 54.29 46.5017 54.0272 46.7491C53.7682 46.9925 53.4552 47.1143 53.088 47.1143Z" fill="white"/>
<path d="M56.342 57.166V45.2941H61.0266C61.9272 45.2941 62.6944 45.466 63.3283 45.81C63.9622 46.1501 64.4453 46.6235 64.7777 47.2302C65.114 47.8331 65.2821 48.5287 65.2821 49.3171C65.2821 50.1054 65.1121 50.8011 64.7719 51.4039C64.4318 52.0068 63.939 52.4763 63.2935 52.8126C62.6519 53.1488 61.875 53.3169 60.9628 53.3169H57.9769V51.3054H60.5569C61.0401 51.3054 61.4382 51.2223 61.7513 51.0561C62.0682 50.8861 62.304 50.6523 62.4586 50.3547C62.6171 50.0533 62.6963 49.7074 62.6963 49.3171C62.6963 48.9229 62.6171 48.5789 62.4586 48.2852C62.304 47.9877 62.0682 47.7577 61.7513 47.5954C61.4343 47.4292 61.0324 47.3462 60.5454 47.3462H58.8524V57.166H56.342Z" fill="white"/>
<path d="M66.4605 47.3635V45.2941H76.2124V47.3635H72.5772V57.166H70.0957V47.3635H66.4605Z" fill="white"/>
<path fill-rule="evenodd" clip-rule="evenodd" d="M76.5276 63.5201C76.7777 63.5201 77.0031 63.6372 77.1304 63.8331C77.2516 64.0195 77.2715 64.2546 77.1852 64.4775C76.9038 65.2045 76.1819 66.4107 74.505 66.46C74.2975 66.8219 74.0377 67.1581 73.7128 67.438C73.0788 67.9843 72.2083 68.0486 71.385 68.0486C70.5937 68.0486 69.7629 67.9891 69.1303 67.4944C67.5326 66.2449 67.3832 63.7686 67.3742 63.0567C67.3727 62.9485 67.4594 62.8611 67.5634 62.8611H75.1372C75.2413 62.8611 75.3278 62.9487 75.3267 63.0567C75.3252 63.1704 75.3204 63.3288 75.3076 63.5201H76.5276ZM74.8029 65.8477C75.8777 65.6916 76.406 64.9195 76.6616 64.2586C76.6774 64.2173 76.6778 64.1848 76.6628 64.1617C76.6459 64.1352 76.6014 64.1072 76.5276 64.1072H75.2476C75.1774 64.6265 75.0461 65.2472 74.8029 65.8477Z" fill="white"/>
<path d="M71.2784 62.6061C71.3182 62.6537 71.374 62.6779 71.4295 62.6779C71.4761 62.6779 71.5228 62.6611 71.5601 62.6272C71.6435 62.5521 71.6527 62.4208 71.5802 62.3341C71.5755 62.3279 71.0461 61.6771 71.3864 61.2319C71.84 60.6378 71.5637 60.1528 71.354 59.9795C71.2681 59.908 71.1421 59.9228 71.0734 60.0126C71.0056 60.1018 71.0191 60.2316 71.1039 60.3031C71.1524 60.3462 71.3764 60.5766 71.0734 60.9736C70.5272 61.6885 71.248 62.569 71.2784 62.6061Z" fill="white"/>
<path d="M72.3469 58.8952C72.4318 58.8233 72.4453 58.6938 72.377 58.6046C72.3083 58.5149 72.1827 58.5001 72.0964 58.5715C71.8871 58.7449 71.6107 59.2299 72.0644 59.8239C72.4047 60.2692 71.8752 60.9202 71.8701 60.9262C71.7981 61.0128 71.8069 61.1442 71.8903 61.2193C71.928 61.2533 71.9747 61.27 72.021 61.27C72.0768 61.27 72.1326 61.2457 72.1719 61.1982C72.2028 61.161 72.9232 60.2806 72.3774 59.5652C72.074 59.1687 72.2982 58.938 72.3469 58.8952Z" fill="white"/>
<rect x="32" y="84" width="396" height="20" rx="8" fill="url(#paint4_linear_21_5612)"/>
<path d="M32 136C32 131.582 35.5817 128 40 128H420C424.418 128 428 131.582 428 136V164.333C428 168.752 424.418 172.333 420 172.333H40C35.5817 172.333 32 168.752 32 164.333V136Z" fill="url(#paint5_linear_21_5612)"/>
<path d="M32 204.333C32 199.915 35.5817 196.333 40 196.333H420C424.418 196.333 428 199.915 428 204.333V208.333C428 212.752 424.418 216.333 420 216.333H40C35.5817 216.333 32 212.752 32 208.333V204.333Z" fill="url(#paint6_linear_21_5612)"/>
<path d="M32 248.333C32 243.915 35.5817 240.333 40 240.333H215C219.418 240.333 223 243.915 223 248.333V276.667C223 281.085 219.418 284.667 215 284.667H40C35.5817 284.667 32 281.085 32 276.667V248.333Z" fill="url(#paint7_linear_21_5612)"/>
<path d="M266.619 268.5L263.392 256.864H265.239L267.506 265.875H267.614L269.972 256.864H271.801L274.159 265.881H274.267L276.528 256.864H278.381L275.148 268.5H273.381L270.932 259.784H270.841L268.392 268.5H266.619ZM279.298 268.5V259.773H280.94V261.159H281.031C281.19 260.689 281.471 260.32 281.872 260.051C282.277 259.778 282.736 259.642 283.247 259.642C283.353 259.642 283.478 259.646 283.622 259.653C283.77 259.661 283.885 259.67 283.969 259.682V261.307C283.901 261.288 283.779 261.267 283.605 261.244C283.431 261.218 283.257 261.205 283.082 261.205C282.681 261.205 282.323 261.29 282.009 261.46C281.698 261.627 281.452 261.86 281.27 262.159C281.088 262.455 280.997 262.792 280.997 263.17V268.5H279.298ZM285.439 268.5V259.773H287.138V268.5H285.439ZM286.297 258.426C286.001 258.426 285.748 258.328 285.536 258.131C285.327 257.93 285.223 257.691 285.223 257.415C285.223 257.134 285.327 256.896 285.536 256.699C285.748 256.498 286.001 256.398 286.297 256.398C286.592 256.398 286.844 256.498 287.053 256.699C287.265 256.896 287.371 257.134 287.371 257.415C287.371 257.691 287.265 257.93 287.053 258.131C286.844 258.328 286.592 258.426 286.297 258.426ZM293.497 259.773V261.136H288.73V259.773H293.497ZM290.009 257.682H291.707V265.938C291.707 266.267 291.757 266.515 291.855 266.682C291.954 266.845 292.08 266.956 292.236 267.017C292.395 267.074 292.567 267.102 292.753 267.102C292.889 267.102 293.009 267.093 293.111 267.074C293.213 267.055 293.293 267.04 293.349 267.028L293.656 268.432C293.558 268.47 293.418 268.508 293.236 268.545C293.054 268.587 292.827 268.61 292.554 268.614C292.107 268.621 291.69 268.542 291.304 268.375C290.918 268.208 290.605 267.951 290.366 267.602C290.128 267.254 290.009 266.816 290.009 266.29V257.682ZM295.376 268.5V259.773H297.075V268.5H295.376ZM296.234 258.426C295.939 258.426 295.685 258.328 295.473 258.131C295.265 257.93 295.161 257.691 295.161 257.415C295.161 257.134 295.265 256.896 295.473 256.699C295.685 256.498 295.939 256.398 296.234 256.398C296.53 256.398 296.782 256.498 296.99 256.699C297.202 256.896 297.308 257.134 297.308 257.415C297.308 257.691 297.202 257.93 296.99 258.131C296.782 258.328 296.53 258.426 296.234 258.426ZM301.06 263.318V268.5H299.361V259.773H300.991V261.193H301.099C301.3 260.731 301.615 260.36 302.043 260.08C302.474 259.799 303.018 259.659 303.673 259.659C304.268 259.659 304.789 259.784 305.236 260.034C305.683 260.28 306.029 260.648 306.276 261.136C306.522 261.625 306.645 262.229 306.645 262.949V268.5H304.946V263.153C304.946 262.521 304.781 262.027 304.452 261.67C304.122 261.311 303.67 261.131 303.094 261.131C302.7 261.131 302.349 261.216 302.043 261.386C301.74 261.557 301.499 261.807 301.321 262.136C301.147 262.462 301.06 262.856 301.06 263.318ZM312.582 271.955C311.889 271.955 311.293 271.864 310.793 271.682C310.296 271.5 309.891 271.259 309.577 270.96C309.262 270.661 309.027 270.333 308.872 269.977L310.332 269.375C310.435 269.542 310.571 269.718 310.741 269.903C310.916 270.093 311.151 270.254 311.446 270.386C311.745 270.519 312.13 270.585 312.599 270.585C313.243 270.585 313.776 270.428 314.196 270.114C314.616 269.803 314.827 269.307 314.827 268.625V266.909H314.719C314.616 267.095 314.469 267.301 314.276 267.528C314.086 267.756 313.825 267.953 313.491 268.119C313.158 268.286 312.724 268.369 312.19 268.369C311.501 268.369 310.88 268.208 310.327 267.886C309.777 267.561 309.342 267.081 309.02 266.449C308.702 265.812 308.543 265.03 308.543 264.102C308.543 263.174 308.7 262.379 309.014 261.716C309.332 261.053 309.768 260.545 310.321 260.193C310.874 259.837 311.501 259.659 312.202 259.659C312.743 259.659 313.181 259.75 313.514 259.932C313.848 260.11 314.107 260.318 314.293 260.557C314.482 260.795 314.628 261.006 314.73 261.188H314.855V259.773H316.52V268.693C316.52 269.443 316.346 270.059 315.997 270.54C315.649 271.021 315.177 271.377 314.582 271.608C313.991 271.839 313.325 271.955 312.582 271.955ZM312.565 266.96C313.054 266.96 313.467 266.847 313.804 266.619C314.145 266.388 314.402 266.059 314.577 265.631C314.755 265.199 314.844 264.682 314.844 264.08C314.844 263.492 314.757 262.975 314.582 262.528C314.408 262.081 314.152 261.733 313.815 261.483C313.478 261.229 313.062 261.102 312.565 261.102C312.054 261.102 311.628 261.235 311.287 261.5C310.946 261.761 310.688 262.117 310.514 262.568C310.344 263.019 310.259 263.523 310.259 264.08C310.259 264.652 310.346 265.153 310.52 265.585C310.694 266.017 310.952 266.354 311.293 266.597C311.637 266.839 312.062 266.96 312.565 266.96ZM319.918 268.608C319.607 268.608 319.34 268.498 319.116 268.278C318.893 268.055 318.781 267.786 318.781 267.472C318.781 267.161 318.893 266.896 319.116 266.676C319.34 266.453 319.607 266.341 319.918 266.341C320.228 266.341 320.495 266.453 320.719 266.676C320.942 266.896 321.054 267.161 321.054 267.472C321.054 267.68 321.001 267.871 320.895 268.045C320.793 268.216 320.656 268.352 320.486 268.455C320.315 268.557 320.126 268.608 319.918 268.608ZM324.449 268.608C324.138 268.608 323.871 268.498 323.648 268.278C323.424 268.055 323.312 267.786 323.312 267.472C323.312 267.161 323.424 266.896 323.648 266.676C323.871 266.453 324.138 266.341 324.449 266.341C324.759 266.341 325.027 266.453 325.25 266.676C325.473 266.896 325.585 267.161 325.585 267.472C325.585 267.68 325.532 267.871 325.426 268.045C325.324 268.216 325.188 268.352 325.017 268.455C324.847 268.557 324.657 268.608 324.449 268.608ZM328.98 268.608C328.67 268.608 328.402 268.498 328.179 268.278C327.955 268.055 327.844 267.786 327.844 267.472C327.844 267.161 327.955 266.896 328.179 266.676C328.402 266.453 328.67 266.341 328.98 266.341C329.291 266.341 329.558 266.453 329.781 266.676C330.005 266.896 330.116 267.161 330.116 267.472C330.116 267.68 330.063 267.871 329.957 268.045C329.855 268.216 329.719 268.352 329.548 268.455C329.378 268.557 329.188 268.608 328.98 268.608ZM336.172 266.227V264.807L341.2 256.864H342.32V258.955H341.609L338.013 264.648V264.739H344.905V266.227H336.172ZM341.689 268.5V265.795L341.7 265.148V256.864H343.365V268.5H341.689ZM350.726 268.659C350.014 268.659 349.374 268.523 348.805 268.25C348.241 267.973 347.79 267.595 347.453 267.114C347.116 266.633 346.936 266.083 346.913 265.466H348.618C348.66 265.966 348.881 266.377 349.283 266.699C349.684 267.021 350.165 267.182 350.726 267.182C351.173 267.182 351.569 267.08 351.913 266.875C352.262 266.667 352.535 266.381 352.732 266.017C352.932 265.653 353.033 265.239 353.033 264.773C353.033 264.299 352.93 263.877 352.726 263.506C352.521 263.134 352.239 262.843 351.879 262.631C351.523 262.419 351.114 262.311 350.652 262.307C350.3 262.307 349.946 262.367 349.589 262.489C349.233 262.61 348.946 262.769 348.726 262.966L347.118 262.727L347.771 256.864H354.169V258.369H349.232L348.862 261.625H348.93C349.158 261.405 349.459 261.222 349.834 261.074C350.213 260.926 350.618 260.852 351.05 260.852C351.758 260.852 352.389 261.021 352.942 261.358C353.499 261.695 353.936 262.155 354.254 262.739C354.576 263.318 354.735 263.985 354.732 264.739C354.735 265.492 354.565 266.165 354.22 266.756C353.879 267.347 353.406 267.812 352.8 268.153C352.197 268.491 351.506 268.659 350.726 268.659ZM362.881 266.318V265.705C362.881 265.265 362.972 264.864 363.153 264.5C363.339 264.133 363.608 263.839 363.96 263.619C364.316 263.396 364.746 263.284 365.25 263.284C365.765 263.284 366.197 263.394 366.545 263.614C366.894 263.833 367.157 264.127 367.335 264.494C367.517 264.862 367.608 265.265 367.608 265.705V266.318C367.608 266.758 367.517 267.161 367.335 267.528C367.153 267.892 366.886 268.186 366.534 268.409C366.186 268.629 365.758 268.739 365.25 268.739C364.739 268.739 364.307 268.629 363.955 268.409C363.602 268.186 363.335 267.892 363.153 267.528C362.972 267.161 362.881 266.758 362.881 266.318ZM364.205 265.705V266.318C364.205 266.644 364.282 266.939 364.438 267.205C364.593 267.47 364.864 267.602 365.25 267.602C365.633 267.602 365.9 267.47 366.051 267.205C366.203 266.939 366.278 266.644 366.278 266.318V265.705C366.278 265.379 366.205 265.083 366.057 264.818C365.913 264.553 365.644 264.42 365.25 264.42C364.871 264.42 364.602 264.553 364.443 264.818C364.284 265.083 364.205 265.379 364.205 265.705ZM357.028 259.659V259.045C357.028 258.606 357.119 258.203 357.301 257.835C357.487 257.468 357.756 257.174 358.108 256.955C358.464 256.735 358.894 256.625 359.398 256.625C359.913 256.625 360.345 256.735 360.693 256.955C361.042 257.174 361.305 257.468 361.483 257.835C361.661 258.203 361.75 258.606 361.75 259.045V259.659C361.75 260.098 361.659 260.502 361.477 260.869C361.299 261.233 361.034 261.527 360.682 261.75C360.333 261.97 359.905 262.08 359.398 262.08C358.883 262.08 358.449 261.97 358.097 261.75C357.748 261.527 357.483 261.233 357.301 260.869C357.119 260.502 357.028 260.098 357.028 259.659ZM358.358 259.045V259.659C358.358 259.985 358.434 260.28 358.585 260.545C358.741 260.811 359.011 260.943 359.398 260.943C359.777 260.943 360.042 260.811 360.193 260.545C360.348 260.28 360.426 259.985 360.426 259.659V259.045C360.426 258.72 360.352 258.424 360.205 258.159C360.057 257.894 359.788 257.761 359.398 257.761C359.019 257.761 358.75 257.894 358.591 258.159C358.436 258.424 358.358 258.72 358.358 259.045ZM357.568 268.5L365.568 256.864H366.926L358.926 268.5H357.568Z" fill="#178C91"/>
<path d="M32 316.667C32 312.248 35.5817 308.667 40 308.667H420C424.418 308.667 428 312.248 428 316.667V320.667C428 325.085 424.418 328.667 420 328.667H40C35.5817 328.667 32 325.085 32 320.667V316.667Z" fill="url(#paint8_linear_21_5612)"/>
<path d="M32 360.667C32 356.248 35.5817 352.667 40 352.667H420C424.418 352.667 428 356.248 428 360.667V389C428 393.418 424.418 397 420 397H40C35.5817 397 32 393.418 32 389V360.667Z" fill="url(#paint9_linear_21_5612)"/>
<defs>
<linearGradient id="paint0_linear_21_5612" x1="81.8847" y1="74" x2="32.1153" y2="74" gradientUnits="userSpaceOnUse">
<stop stop-color="#0D777C"/>
<stop offset="1" stop-color="#3AADB2"/>
</linearGradient>
<linearGradient id="paint1_linear_21_5612" x1="72.1775" y1="35.4969" x2="24.4466" y2="52.6064" gradientUnits="userSpaceOnUse">
<stop stop-color="#3AADB2"/>
<stop offset="1" stop-color="#0D777C"/>
</linearGradient>
<linearGradient id="paint2_linear_21_5612" x1="81.8847" y1="74" x2="32.1153" y2="74" gradientUnits="userSpaceOnUse">
<stop stop-color="#293842"/>
<stop offset="1" stop-color="#425D71"/>
</linearGradient>
<linearGradient id="paint3_linear_21_5612" x1="81.8847" y1="74" x2="32.1153" y2="74" gradientUnits="userSpaceOnUse">
<stop stop-color="#0D777C"/>
<stop offset="1" stop-color="#3AADB2"/>
</linearGradient>
<linearGradient id="paint4_linear_21_5612" x1="32" y1="94" x2="428" y2="94" gradientUnits="userSpaceOnUse">
<stop stop-color="#DADADA"/>
<stop offset="1" stop-color="white"/>
</linearGradient>
<linearGradient id="paint5_linear_21_5612" x1="32" y1="150.167" x2="428" y2="150.167" gradientUnits="userSpaceOnUse">
<stop stop-color="#DADADA"/>
<stop offset="1" stop-color="white"/>
</linearGradient>
<linearGradient id="paint6_linear_21_5612" x1="32" y1="206.333" x2="428" y2="206.333" gradientUnits="userSpaceOnUse">
<stop stop-color="#DADADA"/>
<stop offset="1" stop-color="white"/>
</linearGradient>
<linearGradient id="paint7_linear_21_5612" x1="220" y1="284.667" x2="1.00001" y2="284.667" gradientUnits="userSpaceOnUse">
<stop stop-color="white"/>
<stop offset="0.35" stop-color="#CFE4E5"/>
<stop offset="1" stop-color="#0D777C"/>
</linearGradient>
<linearGradient id="paint8_linear_21_5612" x1="32" y1="318.667" x2="428" y2="318.667" gradientUnits="userSpaceOnUse">
<stop stop-color="#DADADA"/>
<stop offset="1" stop-color="white"/>
</linearGradient>
<linearGradient id="paint9_linear_21_5612" x1="32" y1="374.833" x2="428" y2="374.833" gradientUnits="userSpaceOnUse">
<stop stop-color="#DADADA"/>
<stop offset="1" stop-color="white"/>
</linearGradient>
</defs>
</svg>
