<svg width="179" height="6" viewBox="0 0 179 6" fill="none" xmlns="http://www.w3.org/2000/svg">
<path d="M2.44923 2.97515C2.05143 2.97969 1.67258 3.14224 1.39606 3.42828C1.11953 3.71425 0.967982 4.10028 0.974723 4.50021C0.981463 4.90014 1.14594 5.28085 1.43194 5.55734C1.71795 5.8339 2.10206 5.98359 2.49979 5.97472C5.4162 5.90994 8.33261 5.84516 11.249 5.78038C63.7444 4.61434 116.24 3.44829 168.735 2.28225C171.652 2.21747 174.568 2.15269 177.484 2.08791C177.633 2.0846 177.774 2.02224 177.877 1.91502C177.98 1.80776 178.037 1.66442 178.034 1.51606C178.032 1.3677 177.971 1.22635 177.864 1.12263C177.757 1.01894 177.614 0.961375 177.465 0.96307C174.548 0.996605 171.632 1.03014 168.715 1.06367C116.21 1.6673 63.7049 2.27092 11.2 2.87454C8.28311 2.90808 5.36617 2.94161 2.44923 2.97515Z" fill="url(#paint0_linear_21_5426)"/>
<defs>
<linearGradient id="paint0_linear_21_5426" x1="180.149" y1="1.78179" x2="1.4002" y2="5.77545" gradientUnits="userSpaceOnUse">
<stop stop-color="#3AADB2"/>
<stop offset="1" stop-color="#0D777C"/>
</linearGradient>
</defs>
</svg>
