<svg width="324" height="51" viewBox="0 0 324 51" fill="none" xmlns="http://www.w3.org/2000/svg">
<path d="M5.5044 24.7657C4.17927 24.8177 2.93425 25.3947 2.04363 26.3777C1.15297 27.3602 0.689661 28.6681 0.755233 30.006C0.820806 31.3439 1.40978 32.5999 2.39222 33.4901C3.37468 34.3807 4.67011 34.8325 5.99393 34.7537C11.2083 34.4444 16.4226 34.1351 21.6369 33.8258C115.495 28.2584 209.352 22.6909 303.21 17.1234C308.424 16.8141 313.639 16.5048 318.853 16.1955C319.345 16.1663 319.806 15.9413 320.137 15.5731C320.467 15.2046 320.64 14.723 320.615 14.2313C320.591 13.7396 320.373 13.2772 320.008 12.9431C319.643 12.6091 319.161 12.4307 318.67 12.45C313.45 12.6552 308.231 12.8605 303.011 13.0658C209.062 16.7605 115.112 20.4552 21.1627 24.1499C15.9432 24.3552 10.7238 24.5605 5.5044 24.7657Z" fill="url(#paint0_linear_193_8)"/>
<path d="M28.3759 43.5431C27.4577 43.6796 26.6342 44.1754 26.0872 44.9255C25.5401 45.6753 25.3144 46.618 25.459 47.5421C25.6036 48.4662 26.1064 49.2948 26.8564 49.8417C27.6063 50.3889 28.5419 50.6095 29.4579 50.459C34.237 49.6743 39.0161 48.8897 43.7952 48.105C129.819 33.9813 215.843 19.8575 301.867 5.73379C306.646 4.94914 311.425 4.16448 316.204 3.37983C316.545 3.32382 316.85 3.1337 317.054 2.8528C317.257 2.5718 317.341 2.22304 317.288 1.88174C317.235 1.54043 317.048 1.2341 316.768 1.02864C316.489 0.823266 316.14 0.735582 315.798 0.786383C311.008 1.49899 306.217 2.21161 301.427 2.92422C215.2 15.7512 128.974 28.5783 42.747 41.4053C37.9566 42.1179 33.1662 42.8305 28.3759 43.5431Z" fill="url(#paint1_linear_193_8)"/>
<defs>
<linearGradient id="paint0_linear_193_8" x1="323.304" y1="20.106" x2="1.78912" y2="35.8643" gradientUnits="userSpaceOnUse">
<stop stop-color="#0D777C"/>
<stop offset="1" stop-color="#3AADB2"/>
</linearGradient>
<linearGradient id="paint1_linear_193_8" x1="321.745" y1="3.51368" x2="26.9213" y2="52.4165" gradientUnits="userSpaceOnUse">
<stop stop-color="#3AADB2"/>
<stop offset="1" stop-color="#0D777C"/>
</linearGradient>
</defs>
</svg>
