<svg width="246" height="77" viewBox="0 0 246 77" fill="none" xmlns="http://www.w3.org/2000/svg">
<path fill-rule="evenodd" clip-rule="evenodd" d="M40.5 4C56.8323 4 70.9066 10.8683 77.3127 20.7611H3.68734C10.0934 10.8683 24.1677 4 40.5 4Z" fill="url(#paint0_linear_17_690)"/>
<path d="M18.2999 56.8425C25.8583 50.6912 35.2752 47.9215 47.1122 49.2551C52.0714 49.8138 57.3061 51.7692 57.3061 51.7692C57.3061 51.7692 50.1429 51.4899 42.4286 52.8866C36.5373 53.9533 31.2858 56.6292 26.7688 59.8507C20.8135 64.0978 16.1347 69.2933 12.949 73C15.6544 69.3996 20.4303 62.6266 11.0253 52.5067C13.1991 54.1449 15.6405 55.602 18.2999 56.8425Z" fill="url(#paint1_linear_17_690)"/>
<path fill-rule="evenodd" clip-rule="evenodd" d="M47.1122 49.2551C35.2752 47.9215 25.8583 50.6912 18.2999 56.8425C15.6405 55.602 13.1991 54.1449 11.0253 52.5067C4.18959 47.3552 0 40.4118 0 32.7733C0 28.4855 1.32011 24.4168 3.68734 20.7611H77.3127C79.6799 24.4168 81 28.4855 81 32.7733C81 39.4139 77.8336 45.5291 72.5149 50.3983C65.306 56.9982 54.143 61.3091 41.5514 61.537C41.202 61.5434 40.8515 61.5465 40.5 61.5465C35.6799 61.5465 31.0564 60.9483 26.7688 59.8507C31.2858 56.6292 36.5373 53.9533 42.4286 52.8866C50.1429 51.4899 57.3061 51.7692 57.3061 51.7692C57.3061 51.7692 52.0714 49.8138 47.1122 49.2551Z" fill="url(#paint2_linear_17_690)"/>
<path fill-rule="evenodd" clip-rule="evenodd" d="M41.3265 61.5112C53.9182 61.2832 65.0811 56.9723 72.2901 50.3725C77.7213 54.3708 79.9758 59.0399 73.6119 63.4762C63.96 70.2044 48.878 64.8793 41.3265 61.5112Z" fill="url(#paint3_linear_17_690)"/>
<path d="M25.3313 31.4495C25.2562 30.6813 24.9337 30.0845 24.3639 29.6591C23.7941 29.2338 23.0208 29.0211 22.044 29.0211C21.3802 29.0211 20.8198 29.1163 20.3627 29.3068C19.9056 29.4909 19.555 29.748 19.3108 30.0782C19.0728 30.4083 18.9539 30.7829 18.9539 31.2019C18.9413 31.5511 19.0134 31.8559 19.1699 32.1162C19.3327 32.3765 19.555 32.6019 19.8368 32.7923C20.1185 32.9764 20.4441 33.1383 20.8136 33.278C21.183 33.4113 21.5775 33.5256 21.997 33.6209L23.7252 34.0399C24.5643 34.2303 25.3344 34.4843 26.0357 34.8018C26.737 35.1192 27.3444 35.5097 27.8579 35.9731C28.3713 36.4366 28.7689 36.9826 29.0507 37.6111C29.3387 38.2397 29.4859 38.9603 29.4921 39.773C29.4859 40.9665 29.1853 42.0014 28.5905 42.8776C28.0019 43.7474 27.1503 44.4235 26.0357 44.906C24.9274 45.3822 23.5906 45.6203 22.0252 45.6203C20.4723 45.6203 19.1198 45.379 17.9677 44.8965C16.8218 44.414 15.9264 43.6998 15.2814 42.7538C14.6428 41.8014 14.3078 40.6237 14.2765 39.2206H18.2119C18.2557 39.8745 18.4404 40.4205 18.766 40.8586C19.0979 41.2903 19.5393 41.6173 20.0903 41.8395C20.6476 42.0554 21.2769 42.1633 21.9782 42.1633C22.667 42.1633 23.265 42.0617 23.7722 41.8586C24.2856 41.6554 24.6832 41.3729 24.965 41.011C25.2468 40.6491 25.3877 40.2332 25.3877 39.7634C25.3877 39.3254 25.2593 38.9571 25.0026 38.6587C24.7521 38.3603 24.3827 38.1064 23.8943 37.8968C23.4121 37.6873 22.8204 37.4969 22.1191 37.3254L20.0246 36.7921C18.4028 36.3922 17.1223 35.7668 16.1831 34.916C15.2439 34.0653 14.7774 32.9193 14.7836 31.4781C14.7774 30.2972 15.0873 29.2655 15.7135 28.383C16.3459 27.5005 17.2131 26.8116 18.3152 26.3164C19.4172 25.8212 20.6695 25.5736 22.0721 25.5736C23.4998 25.5736 24.7458 25.8212 25.8103 26.3164C26.881 26.8116 27.7138 27.5005 28.3087 28.383C28.9035 29.2655 29.2104 30.2877 29.2291 31.4495H25.3313Z" fill="white"/>
<path d="M32.1525 45.3441V30.7162H36.1537V45.3441H32.1525ZM34.1625 28.8306C33.5676 28.8306 33.0573 28.6306 32.6315 28.2306C32.212 27.8243 32.0023 27.3386 32.0023 26.7735C32.0023 26.2148 32.212 25.7355 32.6315 25.3355C33.0573 24.9292 33.5676 24.726 34.1625 24.726C34.7574 24.726 35.2645 24.9292 35.6841 25.3355C36.1099 25.7355 36.3228 26.2148 36.3228 26.7735C36.3228 27.3386 36.1099 27.8243 35.6841 28.2306C35.2645 28.6306 34.7574 28.8306 34.1625 28.8306Z" fill="white"/>
<path d="M39.434 45.3441V25.8403H47.023C48.482 25.8403 49.7249 26.1228 50.7518 26.6878C51.7787 27.2465 52.5614 28.0243 53.0999 29.0211C53.6447 30.0115 53.9171 31.1543 53.9171 32.4495C53.9171 33.7447 53.6415 34.8875 53.0905 35.8779C52.5395 36.8683 51.7411 37.6397 50.6955 38.1921C49.656 38.7444 48.3975 39.0206 46.9197 39.0206H42.0826V35.716H46.2622C47.0449 35.716 47.6899 35.5795 48.1971 35.3065C48.7105 35.0271 49.0925 34.643 49.343 34.1542C49.5997 33.6589 49.728 33.0907 49.728 32.4495C49.728 31.8019 49.5997 31.2368 49.343 30.7543C49.0925 30.2655 48.7105 29.8877 48.1971 29.621C47.6836 29.348 47.0324 29.2115 46.2435 29.2115H43.5009V45.3441H39.434Z" fill="white"/>
<path d="M55.8261 29.2401V25.8403H71.6241V29.2401H65.735V45.3441H61.7151V29.2401H55.8261Z" fill="white"/>
<path fill-rule="evenodd" clip-rule="evenodd" d="M72.1347 55.783C72.5399 55.783 72.905 55.9754 73.1112 56.2972C73.3076 56.6035 73.3398 56.9897 73.1999 57.3559C72.7441 58.5502 71.5747 60.5319 68.858 60.6129C68.5219 61.2074 68.1011 61.7597 67.5747 62.2196C66.5476 63.117 65.1374 63.2227 63.8038 63.2227C62.5218 63.2227 61.1758 63.125 60.1511 62.3123C57.5629 60.2594 57.3208 56.1913 57.3062 55.0217C57.3038 54.8439 57.4442 54.7003 57.6126 54.7003H69.8822C70.0508 54.7003 70.191 54.8443 70.1893 55.0217C70.1868 55.2085 70.1791 55.4688 70.1583 55.783H72.1347ZM69.3407 59.6069C71.0819 59.3505 71.9377 58.0821 72.3519 56.9962C72.3774 56.9284 72.3781 56.875 72.3537 56.837C72.3263 56.7935 72.2543 56.7476 72.1347 56.7476H70.0611C69.9474 57.6008 69.7346 58.6203 69.3407 59.6069Z" fill="white"/>
<path d="M63.631 54.2814C63.6954 54.3596 63.7858 54.3995 63.8757 54.3995C63.9513 54.3995 64.0269 54.3718 64.0874 54.3161C64.2225 54.1928 64.2374 53.9771 64.12 53.8346C64.1124 53.8244 63.2547 52.7553 63.8059 52.0238C64.5409 51.0479 64.0932 50.2511 63.7536 49.9664C63.6143 49.8489 63.4102 49.8731 63.2989 50.0206C63.189 50.1673 63.2109 50.3804 63.3483 50.4979C63.4269 50.5687 63.7898 50.9473 63.2989 51.5995C62.4141 52.774 63.5817 54.2204 63.631 54.2814Z" fill="white"/>
<path d="M65.362 48.1849C65.4995 48.0669 65.5213 47.8541 65.4108 47.7076C65.2995 47.5601 65.0959 47.5359 64.9561 47.6532C64.6171 47.938 64.1694 48.7349 64.9044 49.7107C65.4556 50.4423 64.5979 51.5118 64.5895 51.5216C64.4728 51.664 64.4872 51.8797 64.6222 52.0031C64.6834 52.059 64.759 52.0865 64.834 52.0865C64.9244 52.0865 65.0148 52.0466 65.0785 51.9684C65.1285 51.9074 66.2956 50.461 65.4113 49.2857C64.9198 48.6343 65.2831 48.2552 65.362 48.1849Z" fill="white"/>
<defs>
<linearGradient id="paint0_linear_17_690" x1="80.8132" y1="73" x2="0.186817" y2="73" gradientUnits="userSpaceOnUse">
<stop stop-color="#0D777C"/>
<stop offset="1" stop-color="#3AADB2"/>
</linearGradient>
<linearGradient id="paint1_linear_17_690" x1="65.0876" y1="9.74489" x2="-12.4805" y2="37.1629" gradientUnits="userSpaceOnUse">
<stop stop-color="#3AADB2"/>
<stop offset="1" stop-color="#0D777C"/>
</linearGradient>
<linearGradient id="paint2_linear_17_690" x1="80.8132" y1="73" x2="0.186817" y2="73" gradientUnits="userSpaceOnUse">
<stop stop-color="#293842"/>
<stop offset="1" stop-color="#425D71"/>
</linearGradient>
<linearGradient id="paint3_linear_17_690" x1="80.8132" y1="73" x2="0.186817" y2="73" gradientUnits="userSpaceOnUse">
<stop stop-color="#0D777C"/>
<stop offset="1" stop-color="#3AADB2"/>
</linearGradient>
</defs>
</svg>
