<svg width="1451" height="291" viewBox="0 0 1451 291" fill="none" xmlns="http://www.w3.org/2000/svg">
<path d="M535.832 166.585H477.766V526H535.832V166.585ZM1014.4 170.26V160.705C1014.4 129.345 1007.3 102.64 993.088 80.5898C978.878 58.54 959.523 41.635 935.023 29.875C911.388 17.8164 884.429 11.6933 854.147 11.5049L852.703 11.5V10.5C883.699 10.5 911.291 16.6493 935.456 28.9736L936.608 29.5322C960.724 41.3438 979.838 58.1841 993.928 80.0479C1008.26 102.289 1015.4 129.191 1015.4 160.705V170.26C1015.4 201.292 1008.01 228.192 993.192 250.916L993.193 250.917C978.879 273.128 959.381 290.154 934.72 301.991C910.072 313.822 882.728 319.73 852.703 319.73H718.463V527H654.723V10.5H852.703V11.5H655.723V526H717.463V318.73H852.703L854.102 318.726C883.442 318.545 910.171 312.666 934.288 301.09C958.788 289.33 978.143 272.425 992.353 250.375C1006.82 228.187 1014.17 201.964 1014.4 171.704L1014.4 170.26ZM1449.25 67.3604V11.5H1056.76V67.3604H1222.14V526H1283.88V67.3604H1449.25ZM62.2849 356.215V340.78H1.28V356.215C1.28 396.395 9.61023 429.96 26.2702 456.91C43.4202 483.37 66.6955 503.215 96.0954 516.445C125.036 529.468 157.775 536.082 194.312 536.285L196.055 536.29C232.713 536.29 264.623 530.354 291.785 518.484L293.075 517.915C320.569 505.374 341.89 488.085 357.039 466.048L357.755 464.995C372.707 442.807 380.301 416.821 380.535 387.036L380.54 385.615C380.54 355.235 373.435 330.735 359.225 312.115C345.015 293.005 325.905 278.06 301.895 267.28C278.375 256.01 251.67 247.19 221.78 240.82L183.56 231.265C161.02 225.875 141.665 219.75 125.495 212.89C109.83 205.769 97.6142 196.81 88.8474 186.011L88.0105 184.96C79.4661 174.042 75.0597 159.905 74.7927 142.55L74.78 140.86C74.78 113.849 84.7511 93.01 104.693 78.3438L105.65 77.6504C126.23 62.4604 153.425 54.8652 187.235 54.8652L189.432 54.876C212.054 55.0985 232.146 58.7695 249.71 65.8896C268.33 73.2397 282.785 84.5102 293.075 99.7002C303.855 114.89 309.245 134.98 309.245 159.97V190.84H370.25V159.97C370.25 124.69 362.165 95.5348 345.995 72.5049C330.315 48.985 308.51 31.3449 280.58 19.585C253.569 7.52639 222.996 1.40325 188.863 1.21484L187.235 1.20996C152.935 1.20996 122.555 6.84531 96.0954 18.1152C70.1254 29.3852 49.7896 45.555 35.0896 66.625L34.4294 67.6152C20.6599 88.4766 13.7752 113.136 13.7751 141.595L13.78 142.946C13.9759 171.246 20.3445 194.561 32.8855 212.89C46.1155 231.02 64.2451 245.72 87.2751 256.99C110.305 268.26 136.765 277.815 166.655 285.655L204.875 295.21C227.905 300.6 247.995 306.97 265.145 314.32C282.295 321.18 295.525 330.245 304.835 341.515C314.635 352.785 319.535 367.975 319.535 387.085C319.535 414.525 309 437.31 287.93 455.44L286.935 456.283C265.901 473.851 235.607 482.635 196.055 482.635V481.635C236.1 481.635 266.456 472.599 287.278 454.682C308.13 436.739 318.535 414.229 318.535 387.085C318.535 368.147 313.682 353.213 304.081 342.171L304.072 342.161L304.064 342.152C294.885 331.041 281.808 322.062 264.773 315.248L264.762 315.244L264.751 315.239C247.666 307.917 227.635 301.564 204.647 296.184L204.639 296.182L204.633 296.18L166.401 286.622C136.46 278.769 109.936 269.193 86.8357 257.889C63.6806 246.557 45.4156 231.758 32.0769 213.479L32.0681 213.467L32.0593 213.455C19.1773 194.628 12.7751 170.65 12.7751 141.595C12.7752 112.514 19.9243 87.3226 34.2605 66.0654L34.2654 66.0596L34.2702 66.0527C49.0868 44.8157 69.575 28.5332 95.697 17.1973L95.7029 17.1953C122.308 5.8634 152.826 0.209961 187.235 0.209961C222.135 0.209968 253.386 6.35321 280.968 18.6631L282.281 19.2227C309.75 31.0506 331.277 48.6255 346.827 71.9502C363.133 95.1838 371.25 124.547 371.25 159.97V191.84H308.245V159.97C308.245 135.117 302.885 115.25 292.259 100.278L292.254 100.27L292.247 100.261C282.08 85.2527 267.793 74.1034 249.342 66.8203L249.335 66.8164C231.346 59.5235 210.652 55.8652 187.235 55.8652C153.571 55.8652 126.604 63.4265 106.244 78.4541L106.238 78.459L106.231 78.4639C85.9391 92.9582 75.78 113.711 75.78 140.86C75.7801 158.827 80.1485 173.292 88.7976 184.344C97.4974 195.46 109.852 204.68 125.91 211.979C141.507 218.595 160.098 224.532 181.692 229.786L183.793 230.292L183.802 230.295L222.009 239.846C251.955 246.229 278.73 255.071 302.327 266.378C326.462 277.218 345.703 292.258 360.02 311.509L360.688 312.396C374.619 331.122 381.54 355.558 381.54 385.615C381.54 416.17 373.899 442.83 358.585 465.554C343.279 488.266 321.566 506.019 293.49 518.825L293.483 518.828C265.888 531.147 233.403 537.29 196.055 537.29C158.696 537.29 125.232 530.653 95.6843 517.356C66.1133 504.049 42.6873 484.079 25.4304 457.454L25.4255 457.445L25.4196 457.436C8.90113 430.714 0.542945 397.585 0.285858 358.1L0.279999 356.215V339.78H63.2849V356.215C63.2849 398.646 75.7145 430.174 100.415 451C125.189 471.398 157.041 481.635 196.055 481.635V482.635L194.222 482.628C155.854 482.311 124.37 472.023 99.7702 451.765C74.7803 430.695 62.2849 398.845 62.2849 356.215ZM951.663 168.79V161.44C951.663 131.782 942.194 109.056 923.352 93.1133L923.342 93.1045L923.331 93.0947C904.948 76.6472 879.245 68.3604 846.088 68.3604H718.463V261.87H846.088V262.87H717.463V67.3604H846.088C879.407 67.3604 905.378 75.6898 923.998 92.3496C943.108 108.52 952.663 131.55 952.663 161.44V168.79L952.656 170.187C952.362 199.406 942.809 222.216 923.998 238.615L923.097 239.367C904.075 255.036 878.405 262.87 846.088 262.87V261.87C878.749 261.87 904.461 253.83 923.34 237.861C942.192 221.426 951.663 198.448 951.663 168.79ZM551.266 66.625C551.266 53.8086 547.358 43.2912 539.541 35.0732L538.772 34.2852C530.702 26.2154 520.563 22.0538 508.354 21.8018L507.167 21.79C494.427 21.79 483.647 25.9551 474.827 34.2852L474.058 35.0732C466.241 43.2913 462.332 53.8084 462.332 66.625L462.343 67.8125C462.596 80.021 466.757 90.1607 474.827 98.2305C483.647 106.56 494.427 110.725 507.167 110.725C519.508 110.725 529.781 106.816 537.984 98.999L538.772 98.2305C546.842 90.1607 551.003 80.021 551.255 67.8125L551.266 66.625ZM536.832 527H476.766V165.585H536.832V527ZM552.266 66.625C552.266 79.6064 548.013 90.4037 539.479 98.9375C530.945 107.471 520.148 111.725 507.167 111.725C494.186 111.725 483.156 107.472 474.14 98.957L474.13 98.9473L474.12 98.9375C465.586 90.4037 461.332 79.6063 461.332 66.625C461.332 53.1654 465.579 42.1195 474.12 33.5781L474.13 33.5674L474.14 33.5576C483.156 25.043 494.186 20.79 507.167 20.79C520.148 20.79 530.945 25.0444 539.479 33.5781C548.02 42.1194 552.266 53.1656 552.266 66.625ZM1450.25 68.3604H1284.88V527H1221.14V68.3604H1055.76V10.5H1450.25V68.3604Z" fill="url(#paint0_linear_62_8)"/>
<defs>
<linearGradient id="paint0_linear_62_8" x1="652.5" y1="218.5" x2="652.5" y2="-110.5" gradientUnits="userSpaceOnUse">
<stop stop-color="#07191A"/>
<stop offset="1" stop-color="#178C91"/>
</linearGradient>
</defs>
</svg>
