<svg width="22" height="22" viewBox="0 0 22 22" fill="none" xmlns="http://www.w3.org/2000/svg">
<path d="M9.10879 1.4971C9.72777 -0.302036 12.2722 -0.302034 12.8912 1.49711L14.522 6.2374C14.7224 6.8199 15.1801 7.27756 15.7626 7.47796L20.5029 9.10879C22.302 9.72777 22.302 12.2722 20.5029 12.8912L15.7626 14.522C15.1801 14.7224 14.7224 15.1801 14.522 15.7626L12.8912 20.5029C12.2722 22.302 9.72776 22.302 9.10879 20.5029L7.47796 15.7626C7.27756 15.1801 6.8199 14.7224 6.2374 14.522L1.4971 12.8912C-0.302036 12.2722 -0.302034 9.72776 1.49711 9.10879L6.2374 7.47796C6.8199 7.27756 7.27756 6.8199 7.47796 6.2374L9.10879 1.4971Z" fill="#178C91"/>
</svg>
