<svg width="18" height="18" viewBox="0 0 18 18" fill="none" xmlns="http://www.w3.org/2000/svg">
<path d="M7.53502 17.2483C8.53347 18.2545 9.46062 18.2466 10.4591 17.2483L11.6794 16.036C11.8062 15.9171 11.9171 15.8696 12.0836 15.8696H13.7952C15.2136 15.8696 15.8714 15.2199 15.8714 13.7937V12.0822C15.8714 11.9158 15.9189 11.8049 16.0377 11.6781L17.2422 10.4579C18.2566 9.45956 18.2486 8.53251 17.2422 7.53417L16.0377 6.31396C15.9189 6.1951 15.8714 6.07627 15.8714 5.91781V4.19841C15.8714 2.78804 15.2216 2.12249 13.7952 2.12249H12.0836C11.9171 2.12249 11.8062 2.08287 11.6794 1.96401L10.4591 0.751738C9.46062 -0.254548 8.53347 -0.246603 7.53502 0.751738L6.31466 1.96401C6.19582 2.08287 6.07694 2.12249 5.91844 2.12249H4.19888C2.78043 2.12249 2.12272 2.77222 2.12272 4.19841V5.91781C2.12272 6.07627 2.08309 6.1951 1.96425 6.31396L0.75181 7.53417C-0.254555 8.53251 -0.246644 9.45956 0.75181 10.4579L1.96425 11.6781C2.08309 11.8049 2.12272 11.9158 2.12272 12.0822V13.7937C2.12272 15.2119 2.78043 15.8696 4.19888 15.8696H5.91844C6.07694 15.8696 6.19582 15.9171 6.31466 16.036L7.53502 17.2483ZM7.6618 12.9855C7.41617 12.9855 7.25767 12.9062 7.13883 12.7715L4.49208 9.83193C4.38115 9.70519 4.31776 9.54671 4.31776 9.38031C4.31776 9.0079 4.60305 8.73059 5.00718 8.73059C5.22113 8.73059 5.3796 8.80192 5.52225 8.95246L7.62218 11.274L11.7032 5.52955C11.8617 5.29976 12.0202 5.20467 12.2975 5.20467C12.6858 5.20467 12.9632 5.48993 12.9632 5.86234C12.9632 5.99702 12.9077 6.15551 12.8205 6.28225L8.20064 12.7398C8.0818 12.8904 7.89956 12.9855 7.6618 12.9855Z" fill="#178C91"/>
</svg>
