<svg width="628" height="511" viewBox="0 0 628 511" fill="none" xmlns="http://www.w3.org/2000/svg">
<g clip-path="url(#clip0_45_151)">
<rect x="10" y="10" width="608" height="491" rx="16" fill="white"/>
<path d="M216.604 65.6807C155.868 87.2012 80.3895 140.401 94.7879 291.829C109.176 443.256 264.609 489.422 359.221 475.709C480.144 458.172 555.902 355.993 535.768 253.309C519.11 168.322 471.879 182.991 417.568 113.812C388.513 76.7953 303.5 34.8927 216.593 65.6807H216.604Z" fill="url(#paint0_linear_45_151)"/>
<path d="M450.284 407.469C450.284 407.469 436.297 469.739 403.393 471.819C370.49 473.9 395.56 396.388 395.56 396.388L450.284 407.469Z" fill="#FFCFBE"/>
<path d="M337.821 138.897C337.821 138.897 395.783 128.405 425.715 177.747C450.885 219.235 457.839 355.746 459.408 398.168C459.742 407.235 454.167 415.479 445.61 418.505C435.729 421.999 419.918 425.203 395.838 424.413C346.489 422.8 335.684 134.002 337.821 138.886V138.897Z" fill="url(#paint1_linear_45_151)"/>
<path d="M238.399 358.572L237.086 149.366C237.086 149.366 320.996 113.052 411.728 164.197L378.925 359.295C378.925 359.295 334.06 374.281 238.399 358.572Z" fill="url(#paint2_linear_45_151)"/>
<path fill-rule="evenodd" clip-rule="evenodd" d="M322.455 189.5C336.752 189.5 349.073 195.472 354.681 204.075H290.228C295.836 195.472 308.157 189.5 322.455 189.5Z" fill="url(#paint3_linear_45_151)"/>
<path d="M303.02 235.45C309.637 230.101 317.881 227.693 328.243 228.852C332.584 229.338 337.167 231.038 337.167 231.038C337.167 231.038 330.896 230.796 324.143 232.01C318.986 232.938 314.388 235.265 310.434 238.066C305.221 241.759 301.125 246.277 298.336 249.5C300.704 246.369 304.885 240.48 296.652 231.68C298.555 233.104 300.692 234.371 303.02 235.45Z" fill="url(#paint4_linear_45_151)"/>
<path fill-rule="evenodd" clip-rule="evenodd" d="M328.243 228.852C317.881 227.693 309.637 230.101 303.02 235.45C300.692 234.371 298.555 233.104 296.652 231.68C290.668 227.2 287 221.162 287 214.52C287 210.792 288.156 207.254 290.228 204.075H354.681C356.753 207.254 357.909 210.792 357.909 214.52C357.909 220.295 355.137 225.612 350.481 229.846C344.17 235.585 334.398 239.334 323.375 239.532C323.069 239.538 322.762 239.54 322.455 239.54C318.235 239.54 314.187 239.02 310.434 238.066C314.388 235.265 318.986 232.938 324.143 232.01C330.896 230.796 337.167 231.038 337.167 231.038C337.167 231.038 332.584 229.338 328.243 228.852Z" fill="url(#paint5_linear_45_151)"/>
<path fill-rule="evenodd" clip-rule="evenodd" d="M323.178 239.51C334.201 239.311 343.973 235.563 350.284 229.824C355.039 233.301 357.013 237.361 351.441 241.218C342.992 247.069 329.789 242.439 323.178 239.51Z" fill="url(#paint6_linear_45_151)"/>
<path d="M309.176 213.369C309.11 212.701 308.827 212.182 308.329 211.812C307.83 211.442 307.153 211.257 306.298 211.257C305.717 211.257 305.226 211.34 304.826 211.506C304.426 211.666 304.119 211.89 303.905 212.177C303.697 212.464 303.593 212.789 303.593 213.154C303.582 213.457 303.645 213.722 303.782 213.949C303.924 214.175 304.119 214.371 304.366 214.537C304.612 214.697 304.897 214.838 305.221 214.959C305.544 215.075 305.889 215.174 306.257 215.257L307.77 215.622C308.504 215.787 309.178 216.008 309.792 216.284C310.406 216.56 310.938 216.9 311.387 217.303C311.837 217.706 312.185 218.181 312.432 218.727C312.684 219.274 312.813 219.9 312.818 220.607C312.813 221.645 312.549 222.545 312.029 223.307C311.513 224.063 310.768 224.651 309.792 225.07C308.822 225.485 307.652 225.692 306.281 225.692C304.922 225.692 303.738 225.482 302.729 225.062C301.726 224.643 300.942 224.022 300.378 223.199C299.819 222.371 299.525 221.347 299.498 220.127H302.943C302.981 220.695 303.143 221.17 303.428 221.551C303.719 221.926 304.105 222.211 304.588 222.404C305.075 222.592 305.626 222.685 306.24 222.685C306.843 222.685 307.367 222.597 307.811 222.42C308.26 222.244 308.608 221.998 308.855 221.683C309.102 221.369 309.225 221.007 309.225 220.599C309.225 220.218 309.113 219.897 308.888 219.638C308.669 219.379 308.345 219.158 307.918 218.976C307.495 218.793 306.977 218.628 306.364 218.479L304.53 218.015C303.11 217.667 301.989 217.123 301.167 216.384C300.345 215.644 299.936 214.647 299.942 213.394C299.936 212.367 300.208 211.47 300.756 210.703C301.31 209.935 302.069 209.336 303.033 208.906C303.998 208.475 305.095 208.26 306.322 208.26C307.572 208.26 308.663 208.475 309.595 208.906C310.532 209.336 311.261 209.935 311.782 210.703C312.303 211.47 312.571 212.359 312.588 213.369H309.176Z" fill="white"/>
<path d="M315.147 225.451V212.731H318.65V225.451H315.147ZM316.907 211.092C316.386 211.092 315.939 210.918 315.566 210.57C315.199 210.217 315.015 209.794 315.015 209.303C315.015 208.817 315.199 208.4 315.566 208.053C315.939 207.699 316.386 207.523 316.907 207.523C317.427 207.523 317.871 207.699 318.239 208.053C318.611 208.4 318.798 208.817 318.798 209.303C318.798 209.794 318.611 210.217 318.239 210.57C317.871 210.918 317.427 211.092 316.907 211.092Z" fill="white"/>
<path d="M321.521 225.451V208.492H328.165C329.442 208.492 330.53 208.737 331.429 209.229C332.328 209.714 333.013 210.391 333.485 211.257C333.962 212.119 334.2 213.112 334.2 214.239C334.2 215.365 333.959 216.359 333.477 217.22C332.994 218.081 332.295 218.752 331.38 219.232C330.47 219.713 329.368 219.953 328.075 219.953H323.84V217.079H327.499C328.184 217.079 328.749 216.96 329.193 216.723C329.642 216.48 329.977 216.146 330.196 215.721C330.421 215.29 330.533 214.796 330.533 214.239C330.533 213.676 330.421 213.184 330.196 212.765C329.977 212.34 329.642 212.011 329.193 211.779C328.743 211.542 328.173 211.423 327.482 211.423H325.082V225.451H321.521Z" fill="white"/>
<path d="M335.871 211.448V208.492H349.701V211.448H344.546V225.451H341.027V211.448H335.871Z" fill="white"/>
<path fill-rule="evenodd" clip-rule="evenodd" d="M350.148 234.529C350.503 234.529 350.823 234.696 351.003 234.976C351.175 235.242 351.203 235.578 351.081 235.896C350.682 236.935 349.658 238.658 347.28 238.729C346.986 239.246 346.617 239.726 346.156 240.126C345.257 240.906 344.023 240.998 342.855 240.998C341.733 240.998 340.555 240.913 339.658 240.206C337.392 238.421 337.18 234.884 337.167 233.867C337.165 233.712 337.288 233.587 337.435 233.587H348.176C348.324 233.587 348.447 233.712 348.445 233.867C348.443 234.029 348.436 234.255 348.418 234.529H350.148ZM347.702 237.854C349.227 237.631 349.976 236.528 350.338 235.584C350.361 235.525 350.361 235.478 350.34 235.445C350.316 235.407 350.253 235.367 350.148 235.367H348.333C348.233 236.109 348.047 236.996 347.702 237.854Z" fill="white"/>
<path d="M342.704 233.223C342.76 233.291 342.839 233.326 342.918 233.326C342.984 233.326 343.05 233.302 343.103 233.253C343.222 233.146 343.235 232.958 343.132 232.834C343.125 232.826 342.374 231.896 342.857 231.26C343.5 230.411 343.109 229.718 342.811 229.471C342.689 229.369 342.511 229.39 342.413 229.518C342.317 229.645 342.336 229.831 342.456 229.933C342.525 229.995 342.843 230.324 342.413 230.891C341.639 231.912 342.661 233.17 342.704 233.223Z" fill="white"/>
<path d="M344.219 227.922C344.34 227.819 344.359 227.634 344.262 227.507C344.165 227.378 343.986 227.357 343.864 227.459C343.567 227.707 343.175 228.4 343.819 229.248C344.301 229.885 343.55 230.815 343.543 230.823C343.441 230.947 343.453 231.135 343.572 231.242C343.625 231.29 343.691 231.314 343.757 231.314C343.836 231.314 343.915 231.28 343.971 231.212C344.015 231.159 345.037 229.901 344.262 228.879C343.832 228.312 344.15 227.983 344.219 227.922Z" fill="white"/>
<path d="M334.761 105.12C334.761 119.784 325.581 131.666 314.231 131.666C302.881 131.666 293.69 119.784 293.69 105.12C293.69 104.03 293.757 102.962 293.857 101.905C293.857 101.871 293.857 96.7425 293.857 96.7091C294.48 90.1672 299.176 84.8492 305.274 83.2916C311.661 81.6673 319.516 81.5449 328.24 85.3721C331.1 86.6293 333.181 89.2995 333.904 92.4591V92.5148C334.471 94.8845 334.75 102.494 334.75 105.12H334.761Z" fill="#FFCFBE"/>
<path d="M296.895 107.134C298.886 112.374 297.061 118.059 292.822 119.828C288.582 121.597 283.531 118.782 281.539 113.531C279.547 108.291 281.372 102.605 285.611 100.836C289.851 99.0675 294.903 101.882 296.895 107.134Z" fill="#FFCFBE"/>
<path d="M286.446 106.666C286.446 106.666 291.754 103.707 294.013 110.137" stroke="#07191A" stroke-miterlimit="10" stroke-linecap="round"/>
<path d="M332.079 106.611C330.254 111.428 331.934 116.635 335.818 118.259C339.712 119.884 344.341 117.291 346.166 112.485C347.991 107.668 346.311 102.461 342.427 100.836C338.533 99.2122 333.904 101.804 332.079 106.611Z" fill="#FFCFBE"/>
<path d="M342.917 106.121C342.917 106.121 337.976 105.042 335.206 108.936" stroke="#07191A" stroke-miterlimit="10" stroke-linecap="round"/>
<path d="M327.495 99.8126C327.25 100.781 325.603 101.159 323.823 100.658C322.042 100.157 320.796 98.9782 321.041 98.0102C321.286 97.0423 322.932 96.664 324.713 97.1647C326.493 97.6653 327.739 98.8447 327.495 99.8126Z" fill="#07191A"/>
<path d="M306.776 98.4666C306.931 99.4457 305.585 100.503 303.76 100.825C301.946 101.137 300.344 100.603 300.188 99.6126C300.033 98.6335 301.379 97.5766 303.204 97.254C305.018 96.9424 306.62 97.4765 306.776 98.4666Z" fill="#07191A"/>
<path d="M301.857 117.514C301.857 117.514 304.706 136.105 292.622 137.384C292.622 137.384 313.129 156.531 337.821 138.897C337.821 138.897 326.259 131.365 328.184 119.617L301.857 117.503V117.514Z" fill="#FFCFBE"/>
<path d="M304.35 128.272C304.35 128.272 314.554 135.137 325.169 127.583C325.169 127.583 321.197 137.629 314.086 136.717C306.976 135.793 304.35 128.283 304.35 128.283V128.272Z" fill="#07282A"/>
<path d="M309.502 118.749C309.502 118.749 313.797 124.223 319.205 117.97" stroke="#07191A" stroke-miterlimit="10" stroke-linecap="round"/>
<path d="M235.572 322.28C235.572 322.28 313.363 340.582 385.913 323.559L393.012 344.042C399.299 362.176 404.095 380.801 407.355 399.714L428.007 519.67L322.32 534L311.572 407.736C311.572 407.736 304.038 497.719 282.908 524.154C268.609 542.033 192.454 509.824 192.454 509.824L214.898 397.066C219.927 371.789 225.825 345.989 236.229 322.414L235.561 322.28H235.572Z" fill="#07191A"/>
<path d="M311.571 407.736L314.554 390.78L330.154 379.911" stroke="white" stroke-miterlimit="10" stroke-linecap="round"/>
<path d="M235.594 334.007C235.594 334.007 313.318 355.357 387.215 334.007" stroke="white" stroke-miterlimit="10" stroke-linecap="round"/>
<path d="M360.787 340.649C360.787 340.649 367.608 355.98 393.724 352.008" stroke="white" stroke-miterlimit="10" stroke-linecap="round"/>
<path d="M225.035 353.22L218.381 324.461C218.381 324.461 142.882 332.549 150.538 269.901C161.932 176.713 237.075 149.355 237.075 149.355L243.128 183.956C247.456 208.732 242.827 234.232 230.064 255.905L221.441 270.546C221.441 270.546 238.299 284.13 244.597 290.95C245.787 292.241 247.556 294.088 249.47 296.057C255.468 302.232 262.133 307.717 269.31 312.467C277.6 317.952 287.837 325.429 285.634 327.643C282.018 331.258 265.238 328.633 265.238 328.633L270.835 344.42C270.835 344.42 246.455 366.182 225.024 353.209L225.035 353.22Z" fill="#FFCFBE"/>
<path d="M202.446 325.651C202.446 325.651 215.387 292.23 246.644 286.845L227.238 270.68C227.238 270.68 250.961 253.969 252.575 211.936C254.188 169.893 258.572 142.735 258.572 142.735C258.572 142.735 198.129 151.569 159.317 221.638C120.505 291.707 130.742 339.135 202.446 325.662V325.651Z" fill="url(#paint7_linear_45_151)"/>
<path d="M227.238 270.679C228.106 271.581 210.781 257.473 189.016 253.045" stroke="white" stroke-miterlimit="10" stroke-linecap="round"/>
<path d="M237.775 259.443C237.775 259.443 240.424 233.798 237.486 218.178" stroke="white" stroke-miterlimit="10" stroke-linecap="round"/>
<path d="M393.713 211.413L394.726 240.685C395.082 251.054 394.214 261.434 392.122 271.592L390.497 279.524C388.973 286.945 387.949 294.455 387.426 302.009L385.924 323.548" stroke="white" stroke-miterlimit="10" stroke-linecap="round"/>
<path d="M425.225 423.5C425.225 423.5 428.908 447.454 416.379 447.454" stroke="#07282A" stroke-miterlimit="10" stroke-linecap="round"/>
<path d="M265.249 328.655L260.219 318.164" stroke="#07282A" stroke-miterlimit="10" stroke-linecap="round"/>
<path d="M252.731 333.283C252.875 333.706 259.374 352.074 259.374 352.074" stroke="#07282A" stroke-miterlimit="10" stroke-linecap="round"/>
<path d="M240.446 338.512L245.531 356.458" stroke="#07282A" stroke-miterlimit="10" stroke-linecap="round"/>
<path d="M230.832 344.164L234.081 355.746" stroke="#07282A" stroke-miterlimit="10" stroke-linecap="round"/>
<path d="M309.302 106.789C309.302 106.789 308.066 103.362 304.784 104.007C301.501 104.664 301.524 108.457 301.524 108.457" stroke="#07191A" stroke-miterlimit="10" stroke-linecap="round"/>
<path d="M323.043 108.591C323.885 108.591 324.568 107.416 324.568 105.965C324.568 104.515 323.885 103.34 323.043 103.34C322.202 103.34 321.519 104.515 321.519 105.965C321.519 107.416 322.202 108.591 323.043 108.591Z" fill="#07191A"/>
<path d="M290.263 100.592C290.263 100.592 283.887 85.8392 293.089 76.9943C302.291 68.1495 331.645 69.1953 337.131 79.4531C342.616 89.7109 338.666 100.514 338.666 100.514L335.84 102.75C334.972 103.44 333.715 102.761 333.793 101.66C334.104 97.3208 331.367 89.2881 326.593 87.6526C319.872 85.3496 320.673 92.1919 303.871 88.487C296.193 86.796 294.725 96.5976 294.402 101.192C294.335 102.127 293.289 102.639 292.51 102.116L290.263 100.581V100.592Z" fill="#07191A"/>
<path d="M283.097 139.02C283.097 139.02 299.543 155.463 319.55 152.804C339.556 150.134 344.452 139.465 344.452 139.465" stroke="white" stroke-miterlimit="10" stroke-linecap="round"/>
<path d="M313.919 107C313.919 107 313.975 110.06 315.41 111.372C315.677 111.617 315.611 112.062 315.277 112.207C314.843 112.407 314.064 112.563 312.684 112.485" stroke="#07191A" stroke-miterlimit="10" stroke-linecap="round"/>
<path d="M551.822 354.883C551.822 354.883 542.542 357.49 532.103 354.154C525.584 352.074 521.471 349.304 517.176 347.464C510.188 344.473 510.37 333.891 505.644 339.048C504.57 340.218 499.403 355.065 509.383 362.857C509.383 362.857 479.923 368.867 493.642 382.267C493.642 382.267 489.404 390.136 499.719 393.712C499.719 393.712 498.061 400.862 507.417 401.485C507.417 401.485 507.83 405.3 515.384 407.399C520.8 408.904 529.025 406.479 537.442 401.811C545.859 397.134 561.159 395.236 561.159 395.236L551.832 354.873L551.822 354.883Z" fill="#FFCFBE"/>
<path d="M547.892 354.336C547.805 352.611 548.821 351.01 550.432 350.359C561.667 345.796 624.152 308.041 655.346 331.773C687.375 356.138 653.554 409.92 563.278 398.332C561.533 398.111 560.009 397.057 559.194 395.504C556.136 389.696 548.937 374.091 547.901 354.336H547.892Z" fill="url(#paint8_linear_45_151)"/>
<path d="M493.632 382.277C493.632 382.277 495.597 379.698 503.602 376.976" stroke="#3F251A" stroke-miterlimit="10" stroke-linecap="round"/>
<path d="M499.719 393.721C499.719 393.721 501.186 390.242 506.334 389.149" stroke="#3F251A" stroke-miterlimit="10" stroke-linecap="round"/>
<path d="M507.408 401.495C507.408 401.495 509.967 399.904 513.974 398.782" stroke="#3F251A" stroke-miterlimit="10" stroke-linecap="round"/>
<path d="M508.903 362.675C508.903 362.675 510.801 363.71 513.323 363.71" stroke="#3F251A" stroke-miterlimit="10" stroke-linecap="round"/>
<path d="M549.79 359.953C549.79 359.953 579.862 344.061 612.313 335.463" stroke="white" stroke-miterlimit="10" stroke-linecap="round"/>
<path d="M551.726 370.046C551.726 370.046 606.513 354.576 621.123 346.85" stroke="white" stroke-miterlimit="10" stroke-linecap="round"/>
<path d="M556.241 381.433C556.241 381.433 603.292 374.34 624.564 358.659" stroke="white" stroke-miterlimit="10" stroke-linecap="round"/>
<path d="M560.536 390.884C560.536 390.884 598.134 390.453 626.28 375.414" stroke="white" stroke-miterlimit="10" stroke-linecap="round"/>
<circle cx="446" cy="43" r="16" fill="#178C91"/>
<rect x="430" y="67" width="165" height="15" rx="2" fill="url(#paint9_linear_45_151)"/>
<rect x="430" y="87" width="86" height="8" rx="2" fill="url(#paint10_linear_45_151)"/>
<rect x="430" y="105" width="165" height="40" rx="3" fill="url(#paint11_linear_45_151)"/>
<path d="M47.6088 39.4971C48.2278 37.698 50.7722 37.698 51.3912 39.4971L54.4299 48.3295C54.6303 48.9121 55.0879 49.3697 55.6705 49.5701L64.5029 52.6088C66.302 53.2278 66.302 55.7722 64.5029 56.3912L55.6705 59.4299C55.0879 59.6303 54.6303 60.0879 54.4299 60.6705L51.3912 69.5029C50.7722 71.302 48.2278 71.302 47.6088 69.5029L44.5701 60.6705C44.3697 60.0879 43.9121 59.6303 43.3295 59.4299L34.4971 56.3912C32.698 55.7722 32.698 53.2278 34.4971 52.6088L43.3295 49.5701C43.9121 49.3697 44.3697 48.9121 44.5701 48.3295L47.6088 39.4971Z" fill="#178C91"/>
<rect x="78" y="40.5" width="116" height="15" rx="2" fill="url(#paint12_linear_45_151)"/>
<rect x="78" y="60.5" width="86" height="8" rx="2" fill="url(#paint13_linear_45_151)"/>
<path d="M47.6088 96.4971C48.2278 94.698 50.7722 94.698 51.3912 96.4971L54.4299 105.33C54.6303 105.912 55.0879 106.37 55.6705 106.57L64.5029 109.609C66.302 110.228 66.302 112.772 64.5029 113.391L55.6705 116.43C55.0879 116.63 54.6303 117.088 54.4299 117.67L51.3912 126.503C50.7722 128.302 48.2278 128.302 47.6088 126.503L44.5701 117.67C44.3697 117.088 43.9121 116.63 43.3295 116.43L34.4971 113.391C32.698 112.772 32.698 110.228 34.4971 109.609L43.3295 106.57C43.9121 106.37 44.3697 105.912 44.5701 105.33L47.6088 96.4971Z" fill="#178C91"/>
<rect x="78" y="97.5" width="116" height="15" rx="2" fill="url(#paint14_linear_45_151)"/>
<rect x="78" y="117.5" width="86" height="8" rx="2" fill="url(#paint15_linear_45_151)"/>
<path d="M85.8182 367.087C85.8182 367.087 94.6045 369.303 104.326 365.9C110.398 363.772 114.187 361.073 118.182 359.225C124.675 356.232 124.232 346.294 128.806 351.018C129.842 352.094 135.081 365.917 125.907 373.494C125.907 373.494 153.749 378.377 141.206 391.329C141.206 391.329 145.395 398.614 135.784 402.241C135.784 402.241 137.523 408.92 128.752 409.754C128.752 409.754 126.673 413.566 119.337 414.429C112.951 415.171 108.569 415.019 100.54 410.844C92.5112 406.669 78.0749 405.272 78.0749 405.272L85.8012 367.091L85.8182 367.087Z" fill="#FFCFBE"/>
<path d="M89.4985 366.471C89.5399 364.847 88.5404 363.372 87.011 362.795C76.3318 358.796 -6.29781 318.509 -34.9991 341.615C-64.4685 365.344 -8.36932 421.435 76.1757 408.211C77.8061 407.958 79.2123 406.929 79.9434 405.455C82.6706 399.911 89.0273 385.067 89.4985 366.471Z" fill="#57B6BD"/>
<path d="M89.4985 366.471C89.5399 364.847 88.5404 363.372 87.011 362.795C76.3318 358.796 -6.29781 318.509 -34.9991 341.615C-64.4685 365.344 -8.36932 421.435 76.1757 408.211C77.8061 407.958 79.2123 406.929 79.9434 405.455C82.6706 399.911 89.0273 385.067 89.4985 366.471Z" fill="url(#paint16_linear_45_151)"/>
<path d="M136.468 381.468C136.468 381.468 124.734 375.501 120.586 379.672C116.438 383.843 121.204 394.354 141.215 391.327" stroke="#3F251A" stroke-miterlimit="10" stroke-linecap="round"/>
<path d="M119.47 386.528C119.47 386.528 115.426 386.781 115.093 390.262C114.751 393.744 118.313 402.977 135.801 402.237" stroke="#3F251A" stroke-miterlimit="10" stroke-linecap="round"/>
<path d="M118.034 397.165C118.034 397.165 111.994 397.662 114.403 402.996C116.187 406.942 120.224 410.036 128.761 409.752" stroke="#3F251A" stroke-miterlimit="10" stroke-linecap="round"/>
<path d="M114.655 403.455C114.655 403.455 111.078 403.09 111.094 406.423C111.11 409.756 116.936 413.237 116.936 413.237" stroke="#3F251A" stroke-miterlimit="10" stroke-linecap="round"/>
<path d="M120.631 375.447C120.631 375.447 117.208 393.7 102.565 395.109" stroke="#3F251A" stroke-miterlimit="10" stroke-linecap="round"/>
<path d="M78.9883 360.42C78.9883 360.42 80.6418 388.131 66.6814 407.695" stroke="white" stroke-miterlimit="10" stroke-linecap="round"/>
</g>
<rect x="5" y="5" width="618" height="501" rx="21" stroke="url(#paint17_linear_45_151)" stroke-width="10"/>
<defs>
<linearGradient id="paint0_linear_45_151" x1="278" y1="436" x2="278" y2="153" gradientUnits="userSpaceOnUse">
<stop stop-color="#E6F0F3"/>
<stop offset="1" stop-color="white"/>
</linearGradient>
<linearGradient id="paint1_linear_45_151" x1="449.581" y1="407" x2="319.581" y2="228" gradientUnits="userSpaceOnUse">
<stop stop-color="#3AADB2"/>
<stop offset="1" stop-color="#0D777C"/>
</linearGradient>
<linearGradient id="paint2_linear_45_151" x1="344.581" y1="371" x2="329.581" y2="152" gradientUnits="userSpaceOnUse">
<stop stop-color="#3AADB2"/>
<stop offset="1" stop-color="#0D777C"/>
</linearGradient>
<linearGradient id="paint3_linear_45_151" x1="357.746" y1="249.5" x2="287.164" y2="249.5" gradientUnits="userSpaceOnUse">
<stop stop-color="#0D777C"/>
<stop offset="1" stop-color="#3AADB2"/>
</linearGradient>
<linearGradient id="paint4_linear_45_151" x1="343.979" y1="194.496" x2="276.176" y2="218.623" gradientUnits="userSpaceOnUse">
<stop stop-color="#3AADB2"/>
<stop offset="1" stop-color="#0D777C"/>
</linearGradient>
<linearGradient id="paint5_linear_45_151" x1="357.746" y1="249.5" x2="287.164" y2="249.5" gradientUnits="userSpaceOnUse">
<stop stop-color="#293842"/>
<stop offset="1" stop-color="#425D71"/>
</linearGradient>
<linearGradient id="paint6_linear_45_151" x1="357.746" y1="249.5" x2="287.164" y2="249.5" gradientUnits="userSpaceOnUse">
<stop stop-color="#0D777C"/>
<stop offset="1" stop-color="#3AADB2"/>
</linearGradient>
<linearGradient id="paint7_linear_45_151" x1="222.081" y1="330.5" x2="258.081" y2="221" gradientUnits="userSpaceOnUse">
<stop stop-color="#3AADB2"/>
<stop offset="1" stop-color="#0D777C"/>
</linearGradient>
<linearGradient id="paint8_linear_45_151" x1="666.894" y1="399.946" x2="548.162" y2="399.946" gradientUnits="userSpaceOnUse">
<stop stop-color="#3AADB2"/>
<stop offset="1" stop-color="#0D777C"/>
</linearGradient>
<linearGradient id="paint9_linear_45_151" x1="589.923" y1="82" x2="417.308" y2="82" gradientUnits="userSpaceOnUse">
<stop stop-color="white"/>
<stop offset="0.35" stop-color="#CFE4E5"/>
<stop offset="1" stop-color="#0D777C"/>
</linearGradient>
<linearGradient id="paint10_linear_45_151" x1="514.649" y1="95" x2="416.042" y2="95" gradientUnits="userSpaceOnUse">
<stop stop-color="white"/>
<stop offset="0.35" stop-color="#CFE4E5"/>
<stop offset="1" stop-color="#0D777C"/>
</linearGradient>
<linearGradient id="paint11_linear_45_151" x1="592.408" y1="145" x2="403.22" y2="145" gradientUnits="userSpaceOnUse">
<stop stop-color="white"/>
<stop offset="0.35" stop-color="#CFE4E5"/>
<stop offset="1" stop-color="#0D777C"/>
</linearGradient>
<linearGradient id="paint12_linear_45_151" x1="190.431" y1="55.5" x2="69.0769" y2="55.5" gradientUnits="userSpaceOnUse">
<stop stop-color="white"/>
<stop offset="0.35" stop-color="#CFE4E5"/>
<stop offset="1" stop-color="#0D777C"/>
</linearGradient>
<linearGradient id="paint13_linear_45_151" x1="162.649" y1="68.5" x2="64.0419" y2="68.5" gradientUnits="userSpaceOnUse">
<stop stop-color="white"/>
<stop offset="0.35" stop-color="#CFE4E5"/>
<stop offset="1" stop-color="#0D777C"/>
</linearGradient>
<linearGradient id="paint14_linear_45_151" x1="190.431" y1="112.5" x2="69.0769" y2="112.5" gradientUnits="userSpaceOnUse">
<stop stop-color="white"/>
<stop offset="0.35" stop-color="#CFE4E5"/>
<stop offset="1" stop-color="#0D777C"/>
</linearGradient>
<linearGradient id="paint15_linear_45_151" x1="162.649" y1="125.5" x2="64.0419" y2="125.5" gradientUnits="userSpaceOnUse">
<stop stop-color="white"/>
<stop offset="0.35" stop-color="#CFE4E5"/>
<stop offset="1" stop-color="#0D777C"/>
</linearGradient>
<linearGradient id="paint16_linear_45_151" x1="97.4782" y1="403.525" x2="-26.9244" y2="430.948" gradientUnits="userSpaceOnUse">
<stop stop-color="#3AADB2"/>
<stop offset="1" stop-color="#0D777C"/>
</linearGradient>
<linearGradient id="paint17_linear_45_151" x1="80.7586" y1="1171.52" x2="794.412" y2="1065.48" gradientUnits="userSpaceOnUse">
<stop stop-color="#178C91"/>
<stop offset="0.230769" stop-color="#178C91"/>
<stop offset="0.307692" stop-color="#98E7EA"/>
<stop offset="0.389423" stop-color="#178C91"/>
<stop offset="0.567308" stop-color="#178C91"/>
<stop offset="0.6875" stop-color="#178C91"/>
<stop offset="0.774038" stop-color="#98E7EA"/>
<stop offset="0.836538" stop-color="#178C91"/>
<stop offset="1" stop-color="#178C91"/>
</linearGradient>
<clipPath id="clip0_45_151">
<rect x="10" y="10" width="608" height="491" rx="16" fill="white"/>
</clipPath>
</defs>
</svg>
